<svg width="56" height="67" viewBox="0 0 56 67" fill="none" xmlns="http://www.w3.org/2000/svg">
<path d="M46.332 63.3604C42.7548 66.832 38.808 66.2908 35.046 64.654C31.0464 62.9842 27.39 62.8786 23.166 64.654C17.9058 66.9244 15.114 66.2644 11.946 63.3604C-5.94002 44.9464 -3.30002 16.8964 17.028 15.8404C21.9582 16.1044 25.41 18.5662 28.314 18.7708C32.6304 17.893 36.762 15.3784 41.382 15.7084C46.9326 16.1572 51.084 18.3484 53.856 22.2886C42.438 29.1526 45.144 44.2006 55.6314 48.4246C53.5326 53.9356 50.8398 59.3806 46.3254 63.4066L46.332 63.3604ZM27.918 15.6424C27.3834 7.45841 34.0164 0.726406 41.646 0.0664062C42.6954 9.50441 33.066 16.5664 27.918 15.6424Z" fill="black"/>
</svg>
