<svg width="66" height="40" viewBox="0 0 66 40" fill="none" xmlns="http://www.w3.org/2000/svg">
<path d="M18.7579 14.4153C18.7579 15.2185 18.8447 15.8699 18.9967 16.3475C19.1704 16.8251 19.3875 17.3462 19.6915 17.9106C19.8 18.0843 19.8434 18.258 19.8434 18.41C19.8434 18.6271 19.7132 18.8442 19.4309 19.0613L18.0632 19.9731C17.8678 20.1034 17.6724 20.1685 17.4987 20.1685C17.2816 20.1685 17.0645 20.06 16.8474 19.8646C16.5434 19.5389 16.2829 19.1916 16.0658 18.8442C15.8487 18.4751 15.6316 18.0626 15.3928 17.5633C13.6993 19.5606 11.5717 20.5593 9.00987 20.5593C7.18619 20.5593 5.73158 20.0383 4.66777 18.9962C3.60395 17.9541 3.06119 16.5646 3.06119 14.8278C3.06119 12.9824 3.7125 11.4843 5.03685 10.3554C6.36119 9.22644 8.11974 8.66197 10.3559 8.66197C11.0941 8.66197 11.854 8.7271 12.6572 8.83565C13.4605 8.9442 14.2855 9.11789 15.154 9.31328V7.72841C15.154 6.07841 14.8066 4.92775 14.1336 4.25473C13.4388 3.5817 12.2665 3.25604 10.5947 3.25604C9.83487 3.25604 9.05329 3.34289 8.25 3.53828C7.44671 3.73368 6.66514 3.97249 5.90527 4.27644C5.5579 4.42841 5.29737 4.51525 5.1454 4.55868C4.99342 4.6021 4.88487 4.62381 4.79803 4.62381C4.49408 4.62381 4.34211 4.4067 4.34211 3.95078V2.88697C4.34211 2.5396 4.38553 2.27907 4.49408 2.1271C4.60264 1.97512 4.79803 1.82315 5.10198 1.67118C5.86185 1.28039 6.77369 0.954729 7.8375 0.694202C8.90132 0.411965 10.0303 0.281702 11.2243 0.281702C13.8079 0.281702 15.6967 0.867886 16.9125 2.04025C18.1066 3.21262 18.7145 4.99289 18.7145 7.38104V14.4153H18.7579ZM9.94342 17.7153C10.6599 17.7153 11.398 17.585 12.1796 17.3245C12.9612 17.0639 13.6559 16.5863 14.2421 15.935C14.5895 15.5225 14.85 15.0666 14.9803 14.5455C15.1105 14.0245 15.1974 13.3949 15.1974 12.6567V11.7449C14.5678 11.5929 13.8947 11.4626 13.2 11.3758C12.5053 11.2889 11.8322 11.2455 11.1592 11.2455C9.70461 11.2455 8.64079 11.5278 7.92435 12.1139C7.2079 12.7001 6.86053 13.5251 6.86053 14.6106C6.86053 15.631 7.12106 16.3909 7.66382 16.912C8.18487 17.4547 8.94474 17.7153 9.94342 17.7153ZM27.377 20.06C26.9862 20.06 26.7257 19.9949 26.552 19.8429C26.3783 19.7126 26.2263 19.4087 26.0961 18.9962L20.9941 2.21394C20.8638 1.77973 20.7987 1.49749 20.7987 1.34552C20.7987 0.99815 20.9724 0.802755 21.3197 0.802755H23.4474C23.8599 0.802755 24.1421 0.867886 24.2941 1.01986C24.4678 1.15012 24.598 1.45407 24.7283 1.86657L28.3757 16.2389L31.7625 1.86657C31.8711 1.43236 32.0013 1.15012 32.175 1.01986C32.3487 0.889597 32.6526 0.802755 33.0434 0.802755H34.7803C35.1928 0.802755 35.475 0.867886 35.6487 1.01986C35.8224 1.15012 35.9743 1.45407 36.0612 1.86657L39.4914 16.4126L43.2474 1.86657C43.3776 1.43236 43.5296 1.15012 43.6816 1.01986C43.8553 0.889597 44.1375 0.802755 44.5283 0.802755H46.5474C46.8947 0.802755 47.0901 0.976439 47.0901 1.34552C47.0901 1.45407 47.0684 1.56262 47.0467 1.69289C47.025 1.82315 46.9816 1.99683 46.8947 2.23565L41.6625 19.0179C41.5322 19.4521 41.3803 19.7343 41.2066 19.8646C41.0329 19.9949 40.7507 20.0817 40.3816 20.0817H38.5145C38.102 20.0817 37.8197 20.0166 37.6461 19.8646C37.4724 19.7126 37.3204 19.4304 37.2336 18.9962L33.8684 4.99289L30.525 18.9745C30.4165 19.4087 30.2862 19.6909 30.1125 19.8429C29.9388 19.9949 29.6349 20.06 29.2441 20.06H27.377ZM55.275 20.6462C54.1461 20.6462 53.0171 20.5159 51.9316 20.2554C50.8461 19.9949 49.9993 19.7126 49.4349 19.387C49.0875 19.1916 48.8487 18.9745 48.7618 18.7791C48.675 18.5837 48.6316 18.3666 48.6316 18.1712V17.0639C48.6316 16.608 48.8053 16.3909 49.1309 16.3909C49.2612 16.3909 49.3915 16.4126 49.5217 16.456C49.652 16.4995 49.8474 16.5863 50.0645 16.6731C50.8026 16.9988 51.6059 17.2593 52.4526 17.433C53.3211 17.6067 54.1678 17.6935 55.0362 17.6935C56.4039 17.6935 57.4678 17.4547 58.2059 16.9771C58.9441 16.4995 59.3349 15.8047 59.3349 14.9146C59.3349 14.3067 59.1395 13.8074 58.7487 13.3949C58.3579 12.9824 57.6197 12.6133 56.5559 12.2659L53.4079 11.2889C51.823 10.7896 50.6507 10.0514 49.9342 9.07446C49.2178 8.1192 48.8487 7.05539 48.8487 5.92644C48.8487 5.0146 49.0441 4.21131 49.4349 3.51657C49.8257 2.82183 50.3467 2.21394 50.998 1.73631C51.6493 1.23697 52.3875 0.867886 53.2559 0.60736C54.1243 0.346834 55.0362 0.238281 55.9915 0.238281C56.4691 0.238281 56.9684 0.259992 57.4461 0.325123C57.9454 0.390255 58.4013 0.477097 58.8572 0.563939C59.2915 0.672492 59.7039 0.781044 60.0947 0.911307C60.4855 1.04157 60.7895 1.17183 61.0066 1.3021C61.3105 1.47578 61.5276 1.64947 61.6579 1.84486C61.7882 2.01854 61.8533 2.25736 61.8533 2.56131V3.5817C61.8533 4.03762 61.6796 4.27644 61.354 4.27644C61.1803 4.27644 60.898 4.1896 60.5289 4.01591C59.2914 3.45144 57.902 3.1692 56.3605 3.1692C55.123 3.1692 54.1461 3.3646 53.473 3.7771C52.8 4.1896 52.4526 4.8192 52.4526 5.70933C52.4526 6.31723 52.6697 6.83828 53.104 7.25078C53.5382 7.66328 54.3415 8.07578 55.4921 8.44486L58.575 9.42183C60.1382 9.92118 61.2671 10.6159 61.9401 11.506C62.6132 12.3962 62.9388 13.4166 62.9388 14.5455C62.9388 15.4791 62.7434 16.3258 62.3743 17.0639C61.9836 17.8021 61.4625 18.4534 60.7895 18.9745C60.1165 19.5172 59.3132 19.908 58.3796 20.1903C57.4026 20.4942 56.3822 20.6462 55.275 20.6462Z" fill="#252F3E"/>
<path fill-rule="evenodd" clip-rule="evenodd" d="M59.3783 31.1982C52.2355 36.4738 41.8579 39.2745 32.9348 39.2745C20.4296 39.2745 9.16181 34.6501 0.651279 26.9646C-0.0217474 26.3567 0.586147 25.5317 1.38944 26.0093C10.5947 31.3501 21.9493 34.585 33.6947 34.585C41.619 34.585 50.325 32.935 58.3362 29.5482C59.5302 29.0054 60.5506 30.3297 59.3783 31.1982Z" fill="#FF9900"/>
<path fill-rule="evenodd" clip-rule="evenodd" d="M62.3526 27.811C61.4408 26.6386 56.3171 27.2465 53.9941 27.5288C53.2993 27.6156 53.1908 27.0077 53.8204 26.5518C57.9019 23.686 64.6105 24.511 65.3921 25.4663C66.1737 26.4433 65.175 33.1518 61.3539 36.365C60.7677 36.8643 60.2033 36.6038 60.4638 35.9525C61.3322 33.8031 63.2645 28.9617 62.3526 27.811Z" fill="#FF9900"/>
</svg>
