<svg width="66" height="66" viewBox="0 0 66 66" fill="none" xmlns="http://www.w3.org/2000/svg">
<path d="M66 55C66 61.05 61.05 66 55 66H11C4.95 66 0 61.05 0 55V11C0 4.95 4.95 0 11 0H55C61.05 0 66 4.95 66 11V55Z" fill="#563D7C"/>
<path d="M17.9343 14.3435H36.6451C40.096 14.3435 42.8676 15.1308 44.949 16.7161C47.0304 18.3013 48.0764 20.6847 48.0764 23.8876C48.0764 25.8288 47.6019 27.4896 46.6529 28.87C45.7039 30.2504 44.3451 31.3288 42.5764 32.0837V32.1915C44.949 32.6984 46.75 33.82 47.9686 35.5563C49.1872 37.3033 49.8019 39.4817 49.8019 42.1131C49.8019 43.6229 49.5323 45.0357 48.9931 46.3406C48.4539 47.6563 47.6127 48.7886 46.4588 49.7376C45.3049 50.6866 43.8382 51.4416 42.0372 52.0023C40.2362 52.5631 38.1009 52.8435 35.6206 52.8435H17.9343V14.3435ZM24.6745 30.4661H35.6745C37.2921 30.4661 38.6402 30.0131 39.7186 29.0857C40.797 28.1582 41.3362 26.8425 41.3362 25.117C41.3362 23.1759 40.8509 21.8063 39.8804 21.019C38.9098 20.2317 37.5078 19.8327 35.6745 19.8327H24.6745V30.4661ZM24.6745 47.3435H36.5911C38.6402 47.3435 40.2362 46.8151 41.3578 45.7474C42.4902 44.6906 43.0617 43.1808 43.0617 41.2396C43.0617 39.3308 42.5009 37.8749 41.3578 36.8396C40.2147 35.8043 38.6402 35.3082 36.5911 35.3082H24.6745V47.3435Z" fill="white"/>
</svg>
