<svg width="50" height="59" viewBox="0 0 50 59" fill="none" xmlns="http://www.w3.org/2000/svg">
<path d="M15.9637 50.4653H27.4097C36.2452 50.4653 40.6626 47.5532 40.6626 41.9309C40.6626 36.4096 35.9436 33.3973 26.7069 33.3973H15.9637V50.4653ZM15.9637 9.30083V25.1647H26.0041C33.5341 25.1647 37.4497 22.3529 37.4497 17.2327C37.4497 12.0112 33.4339 9.30083 25.9035 9.30083H15.9637ZM0 59V50.4653H6.72696V9.30083H0V0.766094H26.9079C39.2568 0.766094 46.7871 6.48915 46.7871 16.4293C46.7871 22.9553 42.9721 26.9716 38.1529 28.8788C45.0803 30.7869 50 35.7066 50 42.433C50 53.0757 41.7673 59 28.3129 59H0Z" fill="black"/>
</svg>
