<svg width="61" height="63" viewBox="0 0 61 63" fill="none" xmlns="http://www.w3.org/2000/svg">
<path d="M60.2553 39.4082C60.2553 43.6921 56.7794 47.1643 52.4931 47.1643H11.2474C6.51268 47.1643 2.50452 44.0566 1.15448 39.7715C0.836757 38.768 0.666504 37.6997 0.666504 36.5918C0.666504 36.2885 0.679693 35.9887 0.704871 35.6926C1.16048 30.2733 5.70577 26.0181 11.2474 26.0181C13.6813 26.0181 15.9246 26.8394 17.7122 28.2218C18.9544 21.2894 24.6363 15.8976 31.7126 15.0883C32.0711 15.0476 32.4344 15.0188 32.8001 15.002C33.0518 14.99 33.306 14.984 33.5614 14.984C42.453 14.984 49.6624 22.1874 49.6624 31.0742C49.6624 31.453 49.648 31.8283 49.6228 32.2C50.51 31.8463 51.48 31.6521 52.4931 31.6521C56.7794 31.6521 60.2553 35.1255 60.2553 39.4082Z" fill="#D0EDF5"/>
<path d="M60.2556 39.4082C60.2556 43.6921 56.7798 47.1643 52.4934 47.1643H11.2477C6.51298 47.1643 2.50482 44.0566 1.15479 39.7715C2.58635 41.8649 4.99388 43.2389 7.72274 43.2389H34.2475C40.2532 43.2389 45.4435 38.8819 46.3032 32.9386C46.3823 32.393 46.4243 31.8499 46.4243 31.314C46.4243 23.1682 40.5469 16.394 32.8004 15.002C33.0522 14.99 33.3063 14.984 33.5617 14.984C42.4533 14.984 49.6627 22.1874 49.6627 31.0742C49.6627 31.453 49.6483 31.8283 49.6231 32.2C50.5103 31.8463 51.4803 31.6521 52.4934 31.6521C56.7798 31.6521 60.2556 35.1255 60.2556 39.4082Z" fill="#A6DFF5"/>
<path d="M14.9801 43.0018C15.9734 43.0018 16.7785 42.1977 16.7785 41.2057C16.7785 40.2138 15.9734 39.4097 14.9801 39.4097C13.9868 39.4097 13.1816 40.2138 13.1816 41.2057C13.1816 42.1977 13.9868 43.0018 14.9801 43.0018Z" fill="#59E1DA"/>
<path d="M30.4611 43.0015C31.4543 43.0015 32.2595 42.1974 32.2595 41.2055C32.2595 40.2135 31.4543 39.4094 30.4611 39.4094C29.4678 39.4094 28.6626 40.2135 28.6626 41.2055C28.6626 42.1974 29.4678 43.0015 30.4611 43.0015Z" fill="#59E1DA"/>
<path d="M45.9418 43.0015C46.935 43.0015 47.7402 42.1974 47.7402 41.2055C47.7402 40.2135 46.935 39.4094 45.9418 39.4094C44.9485 39.4094 44.1433 40.2135 44.1433 41.2055C44.1433 42.1974 44.9485 43.0015 45.9418 43.0015Z" fill="#59E1DA"/>
<path d="M22.192 61.1545C23.1853 61.1545 23.9905 60.3504 23.9905 59.3584C23.9905 58.3665 23.1853 57.5624 22.192 57.5624C21.1987 57.5624 20.3936 58.3665 20.3936 59.3584C20.3936 60.3504 21.1987 61.1545 22.192 61.1545Z" fill="#FFBCD5"/>
<path d="M38.7301 61.1542C39.7234 61.1542 40.5285 60.3501 40.5285 59.3582C40.5285 58.3663 39.7234 57.5621 38.7301 57.5621C37.7368 57.5621 36.9316 58.3663 36.9316 59.3582C36.9316 60.3501 37.7368 61.1542 38.7301 61.1542Z" fill="#FFBCD5"/>
<path d="M30.4611 5.15754C31.4543 5.15754 32.2595 4.35342 32.2595 3.36149C32.2595 2.36955 31.4543 1.56543 30.4611 1.56543C29.4678 1.56543 28.6626 2.36955 28.6626 3.36149C28.6626 4.35342 29.4678 5.15754 30.4611 5.15754Z" fill="#59E1DA"/>
<path d="M10.9039 5.15803C11.8972 5.15803 12.7024 4.35391 12.7024 3.36197C12.7024 2.37004 11.8972 1.56592 10.9039 1.56592C9.91066 1.56592 9.10547 2.37004 9.10547 3.36197C9.10547 4.35391 9.91066 5.15803 10.9039 5.15803Z" fill="#59E1DA"/>
<path d="M49.9615 5.15754C50.9548 5.15754 51.76 4.35342 51.76 3.36149C51.76 2.36955 50.9548 1.56543 49.9615 1.56543C48.9683 1.56543 48.1631 2.36955 48.1631 3.36149C48.1631 4.35342 48.9683 5.15754 49.9615 5.15754Z" fill="#59E1DA"/>
<path d="M22.192 8.18086C23.1853 8.18086 23.9905 7.37674 23.9905 6.3848C23.9905 5.39287 23.1853 4.58875 22.192 4.58875C21.1987 4.58875 20.3936 5.39287 20.3936 6.3848C20.3936 7.37674 21.1987 8.18086 22.192 8.18086Z" fill="#FFBCD5"/>
<path d="M38.7301 8.18025C39.7234 8.18025 40.5285 7.37612 40.5285 6.38419C40.5285 5.39226 39.7234 4.58813 38.7301 4.58813C37.7368 4.58813 36.9316 5.39226 36.9316 6.38419C36.9316 7.37612 37.7368 8.18025 38.7301 8.18025Z" fill="#FFBCD5"/>
<path d="M18.5978 28.383C19.8943 21.142 26.1875 15.8866 33.5614 15.8866C39.2002 15.8866 44.3481 18.9808 46.9959 23.9618C47.2291 24.4002 47.7735 24.5668 48.2121 24.3337C48.6505 24.1006 48.8171 23.5561 48.584 23.1176C48.0804 22.1703 47.4959 21.284 46.8416 20.4654V8.47875L49.017 5.88658C49.3113 5.99688 49.6296 6.05719 49.962 6.05719C51.4495 6.05719 52.6596 4.84815 52.6596 3.36191C52.6596 1.87567 51.4494 0.666626 49.962 0.666626C48.4745 0.666626 47.2643 1.87567 47.2643 3.36191C47.2643 3.8614 47.401 4.3296 47.639 4.73101L45.2536 7.57329C45.1178 7.73527 45.0432 7.93993 45.0432 8.15131V18.5418C43.4644 17.0963 41.6274 15.9637 39.6297 15.2023V8.92596C40.6764 8.55512 41.4282 7.5559 41.4282 6.38463C41.4282 4.89839 40.2181 3.68935 38.7305 3.68935C37.2429 3.68935 36.0328 4.89839 36.0328 6.38463C36.0328 7.5559 36.7846 8.55512 37.8313 8.92596V14.6295C36.4562 14.2742 35.0235 14.0881 33.5614 14.0881C32.8169 14.0881 32.0822 14.1361 31.3607 14.2292V5.90324C32.4074 5.5324 33.1591 4.53318 33.1591 3.36191C33.1591 1.87567 31.949 0.666626 30.4614 0.666626C28.9739 0.666626 27.7638 1.87567 27.7638 3.36191C27.7638 4.53318 28.5155 5.5324 29.5622 5.90324V14.5604C27.1776 15.1336 24.9777 16.2095 23.0916 17.68V8.92596C24.1383 8.55512 24.8901 7.5559 24.8901 6.38463C24.8901 4.89839 23.68 3.68935 22.1924 3.68935C20.7048 3.68935 19.4947 4.89839 19.4947 6.38463C19.4947 7.5559 20.2465 8.55512 21.2932 8.92596V19.3006C19.3333 21.3377 17.8718 23.8747 17.1209 26.7343C16.7009 26.4829 16.2674 26.2602 15.8226 26.0664V8.15143C15.8226 7.93993 15.7481 7.73527 15.6122 7.57341L13.227 4.73113C13.465 4.3296 13.6017 3.8614 13.6017 3.36191C13.6017 1.87567 12.3915 0.666626 10.904 0.666626C9.41642 0.666626 8.2063 1.87567 8.2063 3.36191C8.2063 4.84815 9.41642 6.05719 10.904 6.05719C11.2362 6.05719 11.5547 5.99688 11.8488 5.88658L14.0242 8.47875V25.4573C13.1264 25.2354 12.1963 25.1222 11.2474 25.1222C10.7508 25.1222 10.3481 25.5248 10.3481 26.0215C10.3481 26.5181 10.7508 26.9207 11.2474 26.9207C13.4104 26.9207 15.4559 27.6176 17.1627 28.9362C17.3225 29.0597 17.5165 29.1238 17.7126 29.1238C17.8216 29.1238 17.9311 29.104 18.0359 29.0636C18.3293 28.9504 18.5423 28.6924 18.5978 28.383ZM49.962 2.46508C50.4578 2.46508 50.8612 2.86733 50.8612 3.36191C50.8612 3.85648 50.4578 4.25874 49.962 4.25874C49.4661 4.25874 49.0627 3.85648 49.0627 3.36191C49.0627 2.86733 49.4661 2.46508 49.962 2.46508ZM38.7305 5.48768C39.2264 5.48768 39.6297 5.89005 39.6297 6.38451C39.6297 6.87896 39.2264 7.28134 38.7305 7.28134C38.2346 7.28134 37.8313 6.87908 37.8313 6.38451C37.8313 5.88993 38.2346 5.48768 38.7305 5.48768ZM30.4614 2.46508C30.9573 2.46508 31.3607 2.86733 31.3607 3.36191C31.3607 3.85648 30.9573 4.25874 30.4614 4.25874C29.9655 4.25874 29.5622 3.85648 29.5622 3.36191C29.5622 2.86733 29.9655 2.46508 30.4614 2.46508ZM22.1924 5.48768C22.6883 5.48768 23.0916 5.89005 23.0916 6.38451C23.0916 6.87896 22.6883 7.28134 22.1924 7.28134C21.6965 7.28134 21.2932 6.87908 21.2932 6.38451C21.2932 5.88993 21.6965 5.48768 22.1924 5.48768ZM10.0048 3.36191C10.0048 2.86733 10.4081 2.46508 10.904 2.46508C11.3999 2.46508 11.8032 2.86733 11.8032 3.36191C11.8032 3.85648 11.3999 4.25874 10.904 4.25874C10.4081 4.25874 10.0048 3.85636 10.0048 3.36191Z" fill="#79BFDA"/>
<path d="M42.394 46.2689H34.0604C33.5637 46.2689 33.1611 46.6715 33.1611 47.1681C33.1611 47.6648 33.5637 48.0674 34.0604 48.0674H37.8315V56.8176C36.7848 57.1884 36.033 58.1876 36.033 59.3589C36.033 60.8451 37.2431 62.0542 38.7307 62.0542C40.2183 62.0542 41.4284 60.8451 41.4284 59.3589C41.4284 58.1875 40.6766 57.1883 39.6299 56.8176V48.0674H42.394C42.8906 48.0674 43.2933 47.6648 43.2933 47.1681C43.2933 46.6715 42.8906 46.2689 42.394 46.2689ZM38.7307 60.2557C38.2348 60.2557 37.8315 59.8535 37.8315 59.3589C37.8315 58.8643 38.2348 58.4621 38.7307 58.4621C39.2266 58.4621 39.6299 58.8644 39.6299 59.3589C39.6299 59.8534 39.2266 60.2557 38.7307 60.2557Z" fill="#79BFDA"/>
<path d="M26.8604 46.2689H18.6722C18.1756 46.2689 17.7729 46.6715 17.7729 47.1681C17.7729 47.6648 18.1756 48.0674 18.6722 48.0674H21.2936V56.8176C20.2469 57.1884 19.4951 58.1876 19.4951 59.3589C19.4951 60.8451 20.7053 62.0542 22.1928 62.0542C23.6804 62.0542 24.8905 60.8451 24.8905 59.3589C24.8905 58.1875 24.1388 57.1883 23.0921 56.8176V48.0674H26.8604C27.357 48.0674 27.7596 47.6648 27.7596 47.1681C27.7596 46.6715 27.357 46.2689 26.8604 46.2689ZM22.1928 60.2557C21.6969 60.2557 21.2936 59.8535 21.2936 59.3589C21.2936 58.8643 21.6969 58.4621 22.1928 58.4621C22.6887 58.4621 23.0921 58.8644 23.0921 59.3589C23.0921 59.8534 22.6887 60.2557 22.1928 60.2557Z" fill="#79BFDA"/>
<path d="M14.9808 38.5106C13.4932 38.5106 12.2831 39.7197 12.2831 41.2059C12.2831 42.3772 13.0349 43.3764 14.0816 43.7472V56.0379L10.2725 60.5766C9.95317 60.957 10.0028 61.5241 10.3832 61.8434C10.5517 61.9848 10.7568 62.0538 10.9608 62.0538C11.2174 62.0538 11.4723 61.9446 11.6501 61.7326L15.6696 56.9431C15.8055 56.7811 15.88 56.5764 15.88 56.3651V43.7471C16.9267 43.3763 17.6785 42.3771 17.6785 41.2058C17.6785 39.7197 16.4684 38.5106 14.9808 38.5106ZM14.9808 42.1027C14.4849 42.1027 14.0816 41.7005 14.0816 41.2059C14.0816 40.7113 14.4849 40.3091 14.9808 40.3091C15.4767 40.3091 15.88 40.7114 15.88 41.2059C15.88 41.7004 15.4767 42.1027 14.9808 42.1027Z" fill="#79BFDA"/>
<path d="M30.4618 38.5106C28.9743 38.5106 27.7642 39.7197 27.7642 41.2059C27.7642 42.3772 28.5159 43.3764 29.5626 43.7472V61.1547C29.5626 61.6513 29.9652 62.0539 30.4618 62.0539C30.9585 62.0539 31.3611 61.6513 31.3611 61.1547V43.7472C32.4078 43.3764 33.1595 42.3772 33.1595 41.2059C33.1595 39.7197 31.9494 38.5106 30.4618 38.5106ZM30.4618 42.1027C29.9659 42.1027 29.5626 41.7005 29.5626 41.2059C29.5626 40.7113 29.9659 40.3091 30.4618 40.3091C30.9577 40.3091 31.3611 40.7114 31.3611 41.2059C31.3611 41.7004 30.9577 42.1027 30.4618 42.1027Z" fill="#79BFDA"/>
<path d="M46.8415 56.0378V43.7472C47.8882 43.3764 48.64 42.3772 48.64 41.2059C48.64 39.7197 47.4299 38.5106 45.9423 38.5106C44.4547 38.5106 43.2446 39.7197 43.2446 41.2059C43.2446 42.3772 43.9964 43.3764 45.0431 43.7472V56.3652C45.0431 56.5767 45.1177 56.7813 45.2535 56.9432L49.273 61.7327C49.451 61.9447 49.7058 62.0539 49.9623 62.0539C50.1663 62.0539 50.3714 61.9848 50.5399 61.8435C50.9203 61.5242 50.9698 60.957 50.6507 60.5767L46.8415 56.0378ZM45.9423 40.3091C46.4382 40.3091 46.8415 40.7114 46.8415 41.2059C46.8415 41.7004 46.4382 42.1027 45.9423 42.1027C45.4464 42.1027 45.0431 41.7005 45.0431 41.2059C45.0431 40.7113 45.4464 40.3091 45.9423 40.3091Z" fill="#79BFDA"/>
</svg>
