<svg width="45" height="62" viewBox="0 0 45 62" fill="none" xmlns="http://www.w3.org/2000/svg">
<path d="M22.3855 61.9448L4.62466 57.0142L0.666748 12.6216H44.1574L40.1953 57.0073L22.3855 61.9448Z" fill="#264DE4"/>
<path d="M36.8031 54.1811L40.189 16.2515H22.4119V58.1709L36.8031 54.1811Z" fill="#2965F1"/>
<path d="M9.74023 32.7161L10.2282 38.1606H22.4121V32.7161H9.74023Z" fill="#EBEBEB"/>
<path d="M8.75952 21.6963L9.25445 27.1409H22.4119V21.6963H22.3931H8.75952Z" fill="#EBEBEB"/>
<path d="M22.4121 46.856L22.3882 46.8623L16.3246 45.225L15.9369 40.8827H12.9905H10.4714L11.2342 49.4315L22.387 52.5276L22.4121 52.5206V46.856Z" fill="#EBEBEB"/>
<path d="M10.9019 0.557617H17.4962V3.31525H13.6595V6.07287H17.4962V8.8305H10.9019V0.557617Z" fill="black"/>
<path d="M18.8149 0.557617H25.4093V2.95556H21.5726V3.43514H25.4093V8.9504H18.8149V6.43257H22.6516V5.95298H18.8149V0.557617Z" fill="black"/>
<path d="M26.7283 0.557617H33.3226V2.95556H29.4859V3.43514H33.3226V8.9504H26.7283V6.43257H30.565V5.95298H26.7283V0.557617Z" fill="black"/>
<path d="M35.0491 32.7163L36.0321 21.6963H22.3933V27.1409H30.0653L29.5699 32.7163H22.3933V38.1608H29.0977L28.4657 45.222L22.3933 46.861V52.5254L33.555 49.4319L33.6369 48.5121L34.9163 34.1783L35.0491 32.7163Z" fill="white"/>
</svg>
