<svg width="66" height="66" viewBox="0 0 66 66" fill="none" xmlns="http://www.w3.org/2000/svg">
<path d="M13.4569 52.5239L2.17172 41.2387C0.833786 39.862 0 37.9229 0 36.0275C0 35.1501 0.494455 33.7782 0.86772 32.9881L11.2852 11.2854L13.4569 52.5239Z" fill="#01579B"/>
<path d="M52.0923 13.4569L40.8071 2.17172C39.823 1.18281 37.7676 0 36.0322 0C34.5391 0 33.0752 0.300551 32.125 0.86772L11.2901 11.2852L52.0923 13.4569Z" fill="#40C4FF"/>
<path d="M26.9138 65.9806H54.264V54.2591L33.8604 47.7488L15.1972 54.2591L26.9138 65.9806Z" fill="#40C4FF"/>
<path d="M11.2901 46.4496C11.2901 49.9302 11.7264 50.7882 13.4618 52.5285L15.1972 54.264H54.264L35.1645 32.5613L11.2901 11.29V46.4496Z" fill="#29B6F6"/>
<path d="M46.0134 11.2854H11.2852L54.2591 54.2593H65.9806V27.3455L52.0923 13.4571C50.1435 11.4987 48.4081 11.2854 46.0134 11.2854Z" fill="#01579B"/>
<path opacity="0.2" d="M13.8932 52.9602C12.1578 51.215 11.7215 49.499 11.7215 46.4499V11.7217L11.2852 11.2854V46.445C11.2901 49.499 11.2901 50.3425 13.8932 52.9602L15.1972 54.2642L13.8932 52.9602Z" fill="white"/>
<path opacity="0.2" d="M65.5492 26.9136V53.8274H53.8277L54.264 54.2589H65.9855V27.3499L65.5492 26.9136Z" fill="#263238"/>
<path opacity="0.2" d="M52.0923 13.4571C49.9399 11.3048 48.1754 11.2854 45.582 11.2854H11.2901L11.7264 11.7217H45.5868C46.8763 11.7217 50.1484 11.5035 52.0923 13.4571Z" fill="white"/>
<path opacity="0.2" d="M65.5492 26.9138L52.0923 13.4569L40.8071 2.17172C39.823 1.18281 37.7676 0 36.0322 0C34.5391 0 33.0751 0.300551 32.125 0.86772L11.2901 11.2852L0.872572 32.9879C0.499307 33.778 0.00485229 35.1499 0.00485229 36.0273C0.00485229 37.9227 0.838639 39.8618 2.17657 41.2385L12.5795 51.5639C12.8267 51.8693 13.1176 52.1795 13.4666 52.5237L13.9029 52.96L15.2069 54.264L26.4921 65.5492L26.9284 65.9855H53.8422H54.2785V54.264H66V54.2349V27.3501L65.5492 26.9138Z" fill="url(#paint0_radial)"/>
<defs>
<radialGradient id="paint0_radial" cx="0" cy="0" r="1" gradientUnits="userSpaceOnUse" gradientTransform="translate(33 32.991) scale(32.9952)">
<stop stop-color="white" stop-opacity="0.1"/>
<stop offset="1" stop-color="white" stop-opacity="0"/>
</radialGradient>
</defs>
</svg>
