<svg width="59" height="82" viewBox="0 0 59 82" fill="none" xmlns="http://www.w3.org/2000/svg">
<path d="M0.0321655 65.4067L10.0101 1.55916C10.1321 0.776122 10.741 0.15885 11.5223 0.0261174C12.3036 -0.106615 13.0822 0.275253 13.4558 0.974107L23.7747 20.2205L27.8878 12.3892C28.2063 11.7837 28.8343 11.4045 29.5186 11.4045C30.2028 11.4045 30.8307 11.7837 31.1493 12.3892L58.9963 65.4066H0.0321655V65.4067Z" fill="#FFA000"/>
<path d="M34.5033 40.5358L23.7699 20.2114L0.0321655 65.4068L34.5033 40.5358Z" fill="#F57C00"/>
<path d="M58.9967 65.4065L51.3544 18.115C51.2389 17.4359 50.7542 16.878 50.0979 16.6677C49.4415 16.4574 48.7232 16.6325 48.2357 17.1193L0.0321655 65.4058L26.7044 80.3634C28.3793 81.2986 30.4192 81.2986 32.0941 80.3634L58.9967 65.4058V65.4065Z" fill="#FFCA28"/>
<path d="M51.3544 18.1162C51.2389 17.4371 50.7542 16.8792 50.0979 16.6689C49.4415 16.4586 48.7232 16.6336 48.2357 17.1205L38.6684 26.7121L31.1452 12.3898C30.8266 11.7843 30.1987 11.4051 29.5144 11.4051C28.8302 11.4051 28.2022 11.7843 27.8836 12.3898L23.7706 20.2211L13.4512 0.975011C13.077 0.275972 12.2975 -0.105278 11.5152 0.0284441C10.733 0.162166 10.1261 0.780985 10.0054 1.56464L0.0321625 65.4076H0L0.0321625 65.4445L0.29472 65.5735L48.2218 17.591C48.709 17.1015 49.4291 16.9255 50.0872 17.1352C50.7453 17.3449 51.2308 17.9049 51.3451 18.586L58.923 65.4536L58.9967 65.4075L51.3544 18.1161L51.3544 18.1162ZM0.119682 65.3201L10.0101 2.01615C10.1306 1.2325 10.7389 0.613678 11.5205 0.479956C12.302 0.346234 13.0816 0.72736 13.4564 1.42652L23.7747 20.6729L27.8878 12.8416C28.2063 12.2361 28.8343 11.8569 29.5186 11.8569C30.2028 11.8569 30.8307 12.2361 31.1493 12.8416L38.5199 26.8595L0.119249 65.3201H0.119682Z" fill="white" fill-opacity="0.2"/>
<path opacity="0.2" d="M32.0942 79.9132C30.4192 80.8484 28.3794 80.8484 26.7045 79.9132L0.0966758 64.9971L0.0321655 65.4072L26.7044 80.3603C28.3793 81.2955 30.4192 81.2955 32.0941 80.3603L58.9967 65.4072L58.9276 64.9834L32.0942 79.9134V79.9132Z" fill="#A52714"/>
<path d="M51.278 18.1252C51.163 17.4462 50.6799 16.8881 50.0259 16.6791C49.3719 16.47 48.656 16.6438 48.1702 17.1306L38.6359 26.7174L31.1395 12.4017C30.822 11.7964 30.1963 11.4174 29.5145 11.4174C28.8327 11.4174 28.207 11.7964 27.8895 12.4017L23.7902 20.2295L13.5075 0.991449C13.1345 0.292719 12.3578 -0.0884685 11.579 0.0453151C10.8001 0.179099 10.1939 0.797423 10.0738 1.58089L0.1353 65.3959L26.7143 80.3424C28.3834 81.2771 30.4161 81.2771 32.0852 80.3424L58.8937 65.3959L51.278 18.125V18.1252Z" fill="url(#paint0_linear)"/>
<defs>
<linearGradient id="paint0_linear" x1="-1.91537" y1="13.8092" x2="71.4099" y2="52.4874" gradientUnits="userSpaceOnUse">
<stop stop-color="white" stop-opacity="0.1"/>
<stop offset="0.14" stop-color="white" stop-opacity="0.08"/>
<stop offset="0.61" stop-color="white" stop-opacity="0.02"/>
<stop offset="1" stop-color="white" stop-opacity="0"/>
</linearGradient>
</defs>
</svg>
