<svg width="44" height="62" viewBox="0 0 44 62" fill="none" xmlns="http://www.w3.org/2000/svg">
<path d="M43.6186 12.6216L39.6565 57.0073L21.8467 61.9448L4.08585 57.0142L0.12793 12.6216H43.6186Z" fill="#E44D26"/>
<path d="M21.8733 58.1709L36.2645 54.1811L39.6504 16.2515H21.8733V58.1709Z" fill="#F16529"/>
<path d="M14.1705 27.1409H21.8726V21.6963H21.8538H8.22021L8.35054 23.157L9.68871 38.1608H21.8726V32.7163H14.668L14.1705 27.1409Z" fill="#EBEBEB"/>
<path d="M15.3976 40.8826H12.4512H9.93213L10.6949 49.4313L21.8477 52.5274L21.8728 52.5205V46.8558L21.8489 46.8622L15.7853 45.2249L15.3976 40.8826Z" fill="#EBEBEB"/>
<path d="M4.17383 0.557617H6.94069V3.29127H9.47171V0.557617H12.2387V8.83578H9.47183V6.06376H6.94081V8.83578H4.17395V0.557617H4.17383Z" fill="black"/>
<path d="M15.8775 3.30278H13.4417V0.557617H21.0815V3.30278H18.6446V8.83578H15.8776V3.30278H15.8775Z" fill="black"/>
<path d="M22.2939 0.557617H25.179L26.9537 3.46632L28.7267 0.557617H31.6128V8.83578H28.8573V4.73267L26.9537 7.67602H26.9061L25.0012 4.73267V8.83578H22.2939V0.557617Z" fill="black"/>
<path d="M32.9897 0.557617H35.7574V6.09949H39.6485V8.83578H32.9897V0.557617Z" fill="black"/>
<path d="M21.8545 38.1606H28.5589L27.9269 45.2218L21.8545 46.8608V52.5252L33.0162 49.4317L33.0981 48.5119L34.3775 34.1781L34.5103 32.7161H33.0431H21.8545V38.1606Z" fill="white"/>
<path d="M21.8545 27.1276V27.1409H34.9882H35.0057L35.115 25.9171L35.363 23.157L35.4932 21.6963H21.8545V25.0779V27.1276Z" fill="white"/>
</svg>
