<svg width="66" height="66" viewBox="0 0 66 66" fill="none" xmlns="http://www.w3.org/2000/svg">
<path d="M66 0H0V66H66V0Z" fill="#F7DF1E"/>
<path d="M44.3352 51.5621C45.6647 53.7328 47.3943 55.3283 50.4533 55.3283C53.0231 55.3283 54.6648 54.0439 54.6648 52.2692C54.6648 50.1426 52.9781 49.3893 50.1495 48.1521L48.599 47.4869C44.1236 45.5802 41.1505 43.1916 41.1505 38.1421C41.1505 33.4907 44.6946 29.9497 50.2333 29.9497C54.1766 29.9497 57.0114 31.3221 59.0543 34.9154L54.2248 38.0164C53.1614 36.1097 52.0143 35.3586 50.2333 35.3586C48.4168 35.3586 47.2654 36.5109 47.2654 38.0164C47.2654 39.8769 48.4178 40.6302 51.0788 41.7826L52.6292 42.4468C57.8988 44.7065 60.874 47.0102 60.874 52.1896C60.874 57.7734 56.4876 60.8325 50.5968 60.8325C44.837 60.8325 41.1159 58.0877 39.2951 54.4902L44.3352 51.5621ZM22.4264 52.0995C23.4007 53.8281 24.2869 55.2895 26.4178 55.2895C28.4554 55.2895 29.7409 54.4923 29.7409 51.3924V30.3038H35.9428V51.4762C35.9428 57.8981 32.1776 60.8209 26.6818 60.8209C21.7161 60.8209 18.8404 58.2511 17.3779 55.1559L22.4264 52.0995Z" fill="black"/>
</svg>
