<svg width="69" height="66" viewBox="0 0 69 66" fill="none" xmlns="http://www.w3.org/2000/svg">
<path d="M4.35066 15.5019C-1.71487 24.2199 -0.95979 35.5622 3.67375 44.8253C3.78391 45.0474 3.89939 45.2659 4.01309 45.4844C4.08595 45.623 4.15434 45.7651 4.22984 45.9019C4.2725 45.9836 4.32045 46.0636 4.36487 46.1418C4.44392 46.2892 4.52477 46.4296 4.60649 46.5735C4.7504 46.8276 4.89787 47.0799 5.04888 47.3321C5.13238 47.4707 5.215 47.6093 5.30117 47.7479C5.46817 48.0179 5.63962 48.2844 5.81462 48.5509C5.88748 48.6646 5.95852 48.7783 6.03314 48.8885C6.27478 49.2491 6.52173 49.608 6.77665 49.9616C6.78298 49.9707 6.78993 49.9811 6.79794 49.9899C6.83796 50.0468 6.88235 50.1019 6.92319 50.1587C7.1435 50.4625 7.37092 50.7628 7.60099 51.0595C7.68541 51.1679 7.77066 51.2763 7.85594 51.3846C8.06115 51.6423 8.2699 51.8981 8.48221 52.1539C8.56126 52.2498 8.64122 52.3458 8.72117 52.4399C9.00632 52.7757 9.2968 53.1097 9.59348 53.4366C9.59894 53.4417 9.60595 53.4491 9.61122 53.4544C9.62368 53.4686 9.63432 53.4774 9.64496 53.4916C9.93456 53.8079 10.2313 54.117 10.5315 54.4262C10.6248 54.5221 10.7199 54.6181 10.8158 54.7122C11.0485 54.9467 11.2848 55.1777 11.5238 55.4069C11.6206 55.4993 11.7166 55.5934 11.8134 55.6823C12.1323 55.9825 12.4548 56.2775 12.7834 56.5653C12.7889 56.5704 12.7932 56.5744 12.7985 56.5777C12.8545 56.6275 12.9122 56.6737 12.9673 56.7216C13.2569 56.9721 13.5518 57.2209 13.8485 57.4661C13.9693 57.5638 14.0919 57.6597 14.2136 57.7575C14.4561 57.9511 14.7013 58.143 14.9483 58.3313C15.0788 58.4308 15.2094 58.5303 15.3409 58.6298C15.6136 58.8306 15.8881 59.0278 16.1653 59.2214C16.2665 59.2943 16.3643 59.3653 16.4655 59.4346C16.4939 59.4542 16.5197 59.4737 16.5481 59.4933C16.8111 59.6745 17.0802 59.8486 17.3485 60.0227C17.464 60.0991 17.5786 60.1791 17.695 60.2537C18.1072 60.5149 18.5256 60.7725 18.9484 61.0212C19.063 61.087 19.1794 61.1509 19.2948 61.2166C19.6058 61.3961 19.9184 61.572 20.2356 61.7443C20.407 61.8367 20.5829 61.9237 20.7561 62.0126C20.98 62.1298 21.2021 62.2489 21.4295 62.3626C21.481 62.3875 21.5343 62.4124 21.5849 62.4372C21.6764 62.4816 21.7688 62.5242 21.8603 62.5704C22.213 62.7392 22.5683 62.9044 22.9272 63.0643C23.0036 63.0981 23.0773 63.1319 23.1529 63.1656C23.5641 63.345 23.979 63.5174 24.3974 63.6826C24.4978 63.7234 24.5991 63.7626 24.7003 63.8016C25.0876 63.9509 25.4803 64.0984 25.8747 64.2369C25.9245 64.2547 25.9724 64.2707 26.0222 64.2884C26.4548 64.4394 26.8919 64.5797 27.3316 64.7165C27.4364 64.7467 27.5421 64.7805 27.6478 64.8107C28.0955 64.9457 28.5379 65.1074 28.9998 65.1927C58.3341 70.5422 66.855 47.5645 66.855 47.5645C59.6986 56.888 46.9956 59.3469 34.9598 56.6093C34.5041 56.5062 34.0618 56.3641 33.6167 56.2326C33.5039 56.1988 33.3928 56.1651 33.2818 56.1313C32.8474 55.9981 32.4165 55.8577 31.9884 55.7103C31.9297 55.689 31.8703 55.6676 31.8107 55.6463C31.427 55.5113 31.0477 55.3691 30.6701 55.2235C30.5635 55.1808 30.4569 55.14 30.3503 55.0973C29.9364 54.9339 29.5251 54.7633 29.1191 54.5857C29.0356 54.5501 28.9556 54.5128 28.873 54.4773C28.5239 54.3191 28.1783 54.1592 27.8346 53.994C27.7351 53.9461 27.6356 53.8999 27.5343 53.8501C27.2643 53.7184 26.9973 53.5779 26.7309 53.4411C26.5526 53.3473 26.3714 53.2585 26.1946 53.1602C25.8693 52.9863 25.5498 52.8051 25.2318 52.6203C25.1241 52.5599 25.0149 52.5016 24.9065 52.4391C24.4837 52.1902 24.066 51.9326 23.6527 51.6713C23.5384 51.5985 23.4271 51.5207 23.3143 51.4457C23.0145 51.2522 22.7161 51.0549 22.4221 50.8526C22.3246 50.7864 22.2307 50.7158 22.1346 50.6503C21.8508 50.4495 21.5699 50.2465 21.2912 50.0405C21.1646 49.9466 21.0402 49.852 20.9172 49.7582C20.6617 49.5624 20.4078 49.3652 20.156 49.1629C20.0423 49.0723 19.9286 48.9817 19.8166 48.891C19.4968 48.6281 19.1806 48.3634 18.8688 48.0916C18.8359 48.0632 18.8004 48.0347 18.7648 48.0045C18.4273 47.7078 18.0959 47.404 17.7682 47.0984C17.6731 47.0078 17.5807 46.919 17.4874 46.8284C17.2449 46.5974 17.006 46.3647 16.7715 46.1266C16.6773 46.0324 16.5831 45.9401 16.4907 45.8459C16.1923 45.5403 15.8991 45.2312 15.6122 44.9167C15.598 44.9007 15.5829 44.8865 15.5687 44.8705C15.2649 44.5383 14.9682 44.199 14.6777 43.8561C14.5986 43.7619 14.5222 43.6713 14.444 43.5789C14.2273 43.3178 14.0123 43.053 13.8027 42.7865C13.7241 42.6905 13.6455 42.5922 13.5676 42.4933C13.3151 42.1658 13.0684 41.839 12.8268 41.5072C6.14467 32.3925 3.74414 19.8212 9.08487 9.49707" fill="#0868AC"/>
<path d="M23.1794 8.15537C18.7928 14.4678 19.0309 22.9179 22.4527 29.5939C23.0266 30.7132 23.6715 31.7988 24.3928 32.8328C25.0501 33.7744 25.7786 34.8955 26.6509 35.6523C26.9672 36.0006 27.2976 36.3399 27.6351 36.6739C27.7204 36.761 27.8075 36.8445 27.8945 36.9298C28.2223 37.2478 28.5555 37.5605 28.9001 37.8643C28.9143 37.8749 28.9268 37.8891 28.9409 37.8999C28.9446 37.9035 28.9482 37.905 28.9507 37.909C29.3318 38.243 29.7253 38.5646 30.1251 38.8808C30.2139 38.9482 30.3018 39.0194 30.3916 39.0886C30.7922 39.396 31.2009 39.698 31.6201 39.9858C31.6326 39.9949 31.6432 40.0036 31.6557 40.0125C31.8404 40.1404 32.0288 40.2594 32.2162 40.382C32.3059 40.4407 32.3912 40.5028 32.4818 40.5579C32.7812 40.7498 33.0841 40.9363 33.3923 41.1158C33.4359 41.1424 33.4785 41.1656 33.5211 41.1904C33.7868 41.3432 34.0559 41.4942 34.326 41.6399C34.4202 41.6931 34.5161 41.7394 34.612 41.7891C34.7986 41.8868 34.9851 41.9863 35.1752 42.0805C35.2036 42.0947 35.233 42.1071 35.2605 42.1196C35.6469 42.3097 36.0369 42.4927 36.4349 42.6668C36.5201 42.7042 36.6081 42.7379 36.6942 42.7734C37.0123 42.9085 37.3338 43.0399 37.6572 43.1643C37.794 43.2158 37.9325 43.2656 38.0693 43.3153C38.3625 43.4237 38.6565 43.5232 38.9532 43.6227C39.0874 43.6653 39.2188 43.7097 39.353 43.7506C39.7749 43.8821 40.1915 44.0473 40.6313 44.1201C63.2801 47.8724 68.5087 30.4347 68.5087 30.4347C63.7953 37.2233 54.6675 40.4619 44.927 37.9338C44.4944 37.8201 44.068 37.6957 43.6443 37.5625C43.5146 37.5234 43.3875 37.4808 43.2587 37.4381C42.9576 37.3404 42.6582 37.2373 42.3615 37.129C42.2256 37.0792 42.0897 37.0295 41.9564 36.978C41.6313 36.8536 41.3097 36.7239 40.9908 36.5889C40.9038 36.5515 40.8158 36.5178 40.7305 36.4787C40.3308 36.3046 39.9373 36.1216 39.5491 35.9297C39.3492 35.832 39.1529 35.729 38.9566 35.6277C38.8429 35.5691 38.7283 35.5104 38.6146 35.4518C38.3623 35.315 38.1118 35.1729 37.8648 35.029C37.8062 34.9952 37.7449 34.9632 37.6854 34.9277C37.3789 34.7483 37.0768 34.5635 36.7775 34.3734C36.6851 34.3147 36.5962 34.2508 36.5038 34.1904C36.3066 34.0625 36.1094 33.9328 35.9158 33.8013C35.4983 33.5135 35.0923 33.2114 34.6917 32.9058C34.5993 32.833 34.5069 32.7619 34.4163 32.6891C30.1526 29.3227 26.7731 24.7228 25.1663 19.5065C23.4823 14.0966 23.8455 8.02381 26.7629 3.0957" fill="#0868AC"/>
<path d="M39.015 2.66829C36.4291 6.47389 36.1751 11.2001 37.9695 15.4034C39.8616 19.8646 43.7392 23.3646 48.2645 25.0238C48.451 25.0931 48.6376 25.1553 48.8268 25.2192C48.9094 25.2441 48.9911 25.2726 49.0746 25.2973C49.3411 25.3809 49.6059 25.4786 49.8813 25.5301C62.3871 27.9463 65.779 19.1128 66.6821 17.8126C63.7107 22.0908 58.7172 23.1177 52.5905 21.6307C52.1066 21.5128 51.5746 21.3381 51.1082 21.173C50.51 20.9597 49.9205 20.7167 49.3478 20.4416C48.2599 19.9191 47.2229 19.2845 46.2616 18.5583C40.779 14.3986 37.3732 6.46286 40.9507 0" fill="#0868AC"/>
</svg>
