<svg width="76" height="24" viewBox="0 0 76 24" fill="none" xmlns="http://www.w3.org/2000/svg">
<path d="M21.5034 9.39617L21.5037 9.39526L20.7861 11.544L21.5034 9.39617H21.5034Z" fill="#131B28"/>
<path d="M25.0896 14.4113L24.3721 14.4073L25.0896 14.4113Z" fill="#131B28"/>
<path d="M25.0862 17.2667H25.0869L20.7861 17.2813L25.0863 17.2667H25.0862Z" fill="#131B28"/>
<path d="M25.8054 14.4113L25.0879 14.4073L25.8054 14.4113Z" fill="#131B28"/>
<path d="M25.0879 17.2734L25.8054 14.4089L25.0879 17.274V17.2736V17.2734Z" fill="#131B28"/>
<path d="M40.1416 4.38159L38.708 10.8279C38.708 10.8279 40.1416 4.38159 40.1416 4.38159Z" fill="#131B28"/>
<path d="M36.5574 5.098L35.8398 9.39518L36.5574 5.09766V5.098Z" fill="#131B28"/>
<path d="M39.9093 4.38159H37.0916C36.9353 4.38159 36.7801 4.5065 36.7467 4.65863L35.7464 9.26746L34.7461 13.8763C34.7129 14.0284 34.5579 14.1529 34.4016 14.1529H32.4072C30.4342 14.1529 30.6624 12.794 31.0665 10.9319C31.0705 10.9132 31.0745 10.8949 31.0786 10.8757L31.1229 10.641C31.1256 10.6259 31.1287 10.6107 31.1312 10.5969L31.2212 10.1191L31.3178 9.60691C31.3471 9.45256 31.3917 9.22682 31.4208 9.08496L31.8755 6.87228L32.3306 4.6596C32.362 4.50702 32.2594 4.38166 32.1031 4.38166H29.2109C29.0546 4.38166 28.8998 4.50702 28.8678 4.65916L28.246 7.59728L27.6242 10.535C27.6236 10.5363 27.6235 10.5382 27.6233 10.5395L27.5655 10.8125C26.8492 14.0692 27.0391 17.1747 30.932 17.2719C30.9956 17.2737 31.0448 17.2742 31.0448 17.2742H37.1554C37.3117 17.2742 37.4665 17.1492 37.4992 16.9967L38.8169 10.8282L40.1346 4.65925C40.1671 4.50667 40.0656 4.38175 39.9093 4.38175L39.9093 4.38159Z" fill="#131B28"/>
<path d="M50.8004 14.4089C50.9549 14.4089 51.056 14.5201 51.025 14.656L50.7549 15.8414" fill="#131B28"/>
<path d="M50.0412 17.2736L50.3111 15.8416L50.041 17.2741C50.041 17.2737 50.0412 17.2737 50.0412 17.2737L50.0412 17.2736Z" fill="#131B28"/>
<path d="M50.1746 17.2618C50.1749 17.2618 50.1754 17.2615 50.1758 17.2615C49.3748 17.2681 46.9675 17.2866 45.1582 17.2866C47.3602 17.2866 50.1744 17.2619 50.1744 17.2619L50.1746 17.2618Z" fill="#131B28"/>
<path d="M43.1706 12.6085C43.1666 12.4823 43.4547 12.265 43.7253 12.265L43.1172 12.26C42.8431 13.634 43.1706 12.6085 43.1706 12.6085H43.1706Z" fill="#131B28"/>
<path d="M45.1857 17.2739C45.168 17.2739 45.1498 17.2739 45.1322 17.2742C45.1498 17.2739 45.168 17.2739 45.1857 17.2739Z" fill="#131B28"/>
<path d="M50.8229 14.4089C50.9775 14.4089 51.0785 14.5559 51.0475 14.7354L50.7774 16.3021L50.7334 16.5577" fill="#131B28"/>
<path d="M45.1916 17.2739C45.1695 17.2739 45.1479 17.2739 45.1262 17.2742C45.1479 17.2739 45.1695 17.2739 45.1916 17.2739Z" fill="#131B28"/>
<path d="M45.9599 17.2739C45.9036 17.2739 45.8472 17.2742 45.7915 17.2742C45.8472 17.2742 45.9036 17.2739 45.9599 17.2739Z" fill="#131B28"/>
<path d="M46.5916 17.2729C46.3509 17.2738 46.1107 17.2747 45.874 17.2752C46.1107 17.2748 46.3511 17.2739 46.5916 17.2729Z" fill="#131B28"/>
<path d="M50.1766 17.2632H50.1768C49.5726 17.2681 48.0807 17.2791 46.5928 17.2849C48.0799 17.2796 49.5722 17.2681 50.1766 17.2632Z" fill="#131B28"/>
<path d="M50.0627 17.2729L50.2889 15.8416L50.0625 17.2741C50.0625 17.2736 50.0627 17.2736 50.0627 17.2729L50.0627 17.2729Z" fill="#131B28"/>
<path d="M4.69904 12.6901L5.01929 10.8276L4.65315 12.9566L4.30176 15.1252L4.60972 13.2241C4.63348 13.0771 4.6738 12.8367 4.69904 12.6901L4.69904 12.6901Z" fill="#131B28"/>
<path d="M9.80305 4.38159H6.68336C6.52552 4.38159 6.36812 4.49544 6.3329 4.63418L6.03708 5.81389L5.74126 6.99402C5.70648 7.13276 5.80697 7.24661 5.96482 7.24661H9.10874C9.26637 7.24661 9.42308 7.13276 9.45695 6.9936L9.74284 5.81389L10.0287 4.635V4.63466C10.0624 4.49551 9.96098 4.38166 9.80313 4.38166L9.80305 4.38159Z" fill="#131B28"/>
<path d="M9.31909 8.67957V8.6792L8.60156 12.9767L9.31909 8.67957Z" fill="#131B28"/>
<path d="M0.00144267 22.278C0.00144267 22.278 1.75346 22.2979 2.8672 22.2979C2.02114 22.2979 0.623851 22.2842 0 22.2776C0.000618286 22.2776 0.00103048 22.2779 0.00164876 22.2779L0.00144267 22.278Z" fill="#131B28"/>
<path d="M5.73609 8.6792L5.01855 10.828L5.73609 8.6792Z" fill="#131B28"/>
<path d="M9.08552 8.6792H5.9342C5.77623 8.6792 5.61825 8.8052 5.5834 8.9592L5.14071 10.9151L4.69848 12.8711C4.66362 13.0251 4.60795 13.2775 4.57513 13.4319L4.14987 15.4284L3.72483 17.4248C3.69179 17.5788 3.62389 17.8276 3.57319 17.9771C3.57319 17.9771 2.98453 19.7248 1.99481 19.7049C1.95271 19.704 1.91175 19.7037 1.87124 19.7026C1.39165 19.6936 1.01484 19.6868 1.01484 19.6868H1.0141C0.856348 19.6845 0.697684 19.8074 0.660807 19.9605L0.333995 21.3311L0.00762787 22.7013C-0.0290358 22.8543 0.0700943 22.9808 0.227165 22.9835C0.788458 22.9903 2.04544 23.0043 2.80651 23.0043C5.27869 23.0043 6.5819 21.6377 7.41733 17.7053L8.39504 13.1921L9.31211 8.95926C9.34538 8.80527 9.2433 8.67926 9.08532 8.67926L9.08552 8.6792Z" fill="#131B28"/>
<path d="M52.5384 17.2738C52.3955 17.2738 52.3027 17.1542 52.3328 17.0081L54.4775 6.53003" fill="#131B28"/>
<path d="M55.9111 16.5575L56.6287 12.26L55.9111 16.5575Z" fill="#131B28"/>
<path d="M52.3764 17.1357C52.3532 17.0597 52.3668 16.8734 52.4071 16.7213L53.7607 11.5439L52.3347 16.9974C52.2947 17.1495 52.418 17.274 52.6081 17.274H52.9545C52.7641 17.274 52.3992 17.2117 52.3764 17.1357L52.3764 17.1357Z" fill="#131B28"/>
<path d="M55.6567 17.1931C55.5672 17.2374 55.359 17.2736 55.1943 17.2736H55.494C55.6584 17.2736 55.82 17.1125 55.8525 16.9152L55.9119 16.5574C55.8791 16.7541 55.7465 17.1488 55.6568 17.1931H55.6567Z" fill="#131B28"/>
<path d="M55.9112 15.1256L56.6287 12.9768C56.6283 12.9781 56.628 12.9801 56.6274 12.981L55.9111 15.1256H55.9112Z" fill="#131B28"/>
<path d="M65.207 7.24634L65.3346 7.71778C65.3697 7.85265 65.2722 7.9622 65.1182 7.96259" fill="#131B28"/>
<path d="M55.9111 16.5577L56.6287 14.4089L55.9111 16.5577Z" fill="#131B28"/>
<path d="M65.1661 6.53003L65.2923 7.24628L65.1661 6.53003Z" fill="#131B28"/>
<path d="M56.6279 12.9763C56.6677 12.8106 56.7334 12.5422 56.7748 12.378L57.3455 10.1113L56.6991 12.6788L56.6279 12.9763L56.6279 12.9763Z" fill="#131B28"/>
<path d="M54.4766 5.81396C54.4397 5.96323 54.3925 6.15185 54.3612 6.2767L53.043 11.544L54.4317 5.99583L54.4766 5.81399L54.4766 5.81396Z" fill="#131B28"/>
<path d="M65.2223 7.29233L65.0972 6.7592L64.9734 6.21309L64.9108 5.93669C64.6655 4.95406 63.9457 4.38694 62.3826 4.38694L59.9491 4.38427L57.708 4.38159H55.1863C55.0349 4.38159 54.8851 4.50638 54.8539 4.65933H54.8537L54.7423 5.20275L54.6106 5.84456L54.574 6.02435L53.4385 11.5103L52.3606 16.7182C52.3285 16.8712 52.3177 17.0586 52.3361 17.1351C52.3543 17.2115 52.6449 17.2742 52.7964 17.2742H55.0715C55.223 17.2742 55.4147 17.246 55.4971 17.2115C55.5797 17.1771 55.7018 16.8703 55.7319 16.7173L56.1363 14.6542L56.5411 12.5914C56.5413 12.5905 56.5415 12.5887 56.5418 12.5874L56.5958 12.3127L57.0863 9.94274L57.5195 7.84955C57.5516 7.69748 57.7008 7.57314 57.8519 7.5727L65.0102 7.56913C65.1614 7.56876 65.257 7.44479 65.2225 7.29228L65.2223 7.29233Z" fill="#131B28"/>
<path d="M74.9193 2.95462C74.7613 2.95568 74.503 2.95662 74.345 2.95662H71.9565C71.7985 2.95662 71.5962 3.05869 71.5071 3.18346L66.2255 10.586C66.1362 10.7109 66.0345 10.6923 65.9995 10.5453L65.6109 8.91438C65.5759 8.7669 65.4177 8.64668 65.2599 8.64668H61.8644C61.7064 8.64668 61.6129 8.76518 61.656 8.9105L63.1775 14.0095C63.2209 14.1549 63.2241 14.3936 63.185 14.5398L62.5218 17.0076C62.4824 17.1542 62.5796 17.274 62.7376 17.274H66.0935C66.2512 17.274 66.4126 17.1542 66.4517 17.0076L67.1152 14.5398C67.1543 14.3936 67.2641 14.1748 67.3593 14.0541L75.9337 3.16673C76.0289 3.04607 75.9773 2.94789 75.8196 2.94898L74.9195 2.9546L74.9193 2.95462Z" fill="#131B28"/>
<path fill-rule="evenodd" clip-rule="evenodd" d="M39.7341 10.858C40.4314 7.60487 41.6744 4.38159 46.9197 4.38159L46.9194 4.38182C51.8811 4.38182 52.2133 7.36041 51.055 11.7833L51.0559 11.7824C51.0529 11.8063 51.0456 11.8293 51.037 11.8515C50.9915 11.9666 50.877 12.053 50.7529 12.0552C50.7512 12.0552 50.7496 12.0561 50.7476 12.0561L50.7483 12.0552H42.9479C42.7355 13.5901 43.3119 14.1124 45.2526 14.1124H50.1324C50.2823 14.1124 50.3804 14.234 50.3504 14.3826L50.0882 15.6795L50.0455 15.891L49.8257 16.9785C49.795 17.1258 49.6494 17.2474 49.5004 17.2496C48.9181 17.2544 47.4805 17.2652 46.047 17.2709H46.036C45.9755 17.2711 45.915 17.2713 45.8546 17.2716C45.697 17.2722 45.5401 17.2728 45.3848 17.2731H45.3464C45.3189 17.2731 45.2915 17.2732 45.2642 17.2733C45.237 17.2734 45.2098 17.2734 45.1829 17.2734C45.1614 17.2734 45.1404 17.2734 45.1194 17.2738H44.7692C44.752 17.2738 44.7344 17.2738 44.7173 17.2742H44.5246C39.0969 17.2742 39.0368 14.1738 39.7341 10.858ZM48.1172 9.15378L48.1174 9.15683L48.1175 9.15677C48.2317 8.22139 47.9034 7.3894 46.2214 7.3894C44.7273 7.3894 43.9323 8.07889 43.542 9.1294L43.5233 9.19978C43.5225 9.20268 43.5222 9.20541 43.5219 9.20817C43.5217 9.20997 43.5215 9.21179 43.5211 9.21368C43.5223 9.21279 43.5237 9.21244 43.5237 9.21244C43.5222 9.21467 43.5215 9.21691 43.5207 9.21932C43.5205 9.22018 43.5202 9.22107 43.5198 9.22199C43.499 9.3419 43.5709 9.43922 43.7121 9.43922H47.7986C47.9483 9.43922 48.0983 9.31844 48.1172 9.15378Z" fill="#131B28"/>
<path fill-rule="evenodd" clip-rule="evenodd" d="M25.7196 7.85123C25.371 10.001 23.8359 13.7226 23.8359 13.7226L23.837 13.7223C23.828 13.7443 23.8233 13.7653 23.8204 13.7859C23.8043 13.9 23.8805 13.9859 24.0136 13.9868L24.6917 13.9908L25.37 13.9949C25.5264 13.9958 25.6221 14.1202 25.5826 14.2714L24.875 16.9669C24.8351 17.1177 24.6751 17.2418 24.5187 17.243L20.4559 17.2578L16.109 17.2739C10.5989 17.3053 9.396 13.479 10.3141 9.11621C11.2323 4.78475 13.6387 0.800293 19.1806 0.800293C24.754 0.800293 26.1969 4.97356 25.7196 7.85123ZM21.5247 9.26234L21.6018 8.9898L21.6018 8.98989C22.4039 6.29717 21.7393 3.96431 18.4177 4.21448C15.987 4.3976 14.8081 6.20643 14.2068 9.11619C13.6054 11.9611 14.2068 13.8898 16.6765 13.8898H19.9324C20.0892 13.8898 20.2519 13.7667 20.2945 13.6163L20.9094 11.44L21.5246 9.26325C21.5246 9.26325 21.5246 9.26325 21.5247 9.26301C21.5247 9.26287 21.5247 9.26266 21.5247 9.26234Z" fill="#131B28"/>
<path d="M50.8943 11.1853C50.8943 11.3831 50.7338 11.5439 50.5355 11.5439C50.3377 11.5439 50.1768 11.3831 50.1768 11.1853C50.1768 10.9876 50.3376 10.8276 50.5355 10.8276C50.7338 10.8276 50.8943 10.9876 50.8943 11.1853Z" fill="#131B28"/>
</svg>
