<svg width="64" height="65" viewBox="0 0 64 65" fill="none" xmlns="http://www.w3.org/2000/svg">
<path fill-rule="evenodd" clip-rule="evenodd" d="M62.9869 14.6772C63.0102 14.7637 63.0222 14.8529 63.0224 14.9425V28.8685C63.0224 29.0472 62.9752 29.2228 62.8856 29.3775C62.796 29.5321 62.6672 29.6604 62.5122 29.7493L50.8238 36.4788V49.8171C50.8238 50.1801 50.6309 50.5152 50.3161 50.698L25.9177 64.7433C25.8618 64.775 25.8009 64.7953 25.74 64.8169C25.7172 64.8245 25.6956 64.8385 25.6715 64.8448C25.5009 64.8897 25.3216 64.8897 25.1511 64.8448C25.1232 64.8372 25.0978 64.822 25.0711 64.8118C25.0153 64.7915 24.9569 64.7738 24.9036 64.7433L0.510231 50.698C0.355267 50.609 0.226508 50.4807 0.13693 50.326C0.047353 50.1714 0.000122785 49.9959 0 49.8171L0 8.03914C0 7.94776 0.0126923 7.85891 0.0355385 7.77261C0.0431538 7.74341 0.0609231 7.71676 0.0710769 7.68757C0.0901154 7.63426 0.107885 7.57968 0.135808 7.53018C0.154846 7.49718 0.182769 7.47053 0.205615 7.44007C0.234808 7.39945 0.261462 7.35757 0.295731 7.32203C0.324923 7.29284 0.363 7.27126 0.396 7.24587C0.432808 7.21541 0.465808 7.18241 0.507692 7.1583H0.508962L12.7063 0.135644C12.8607 0.0467734 13.0358 0 13.214 0C13.3921 0 13.5672 0.0467734 13.7217 0.135644L25.919 7.1583H25.9215C25.9621 7.18368 25.9964 7.21541 26.0332 7.24461C26.0662 7.26999 26.103 7.29284 26.1322 7.32076C26.1677 7.35757 26.1931 7.39945 26.2236 7.44007C26.2452 7.47053 26.2743 7.49718 26.2921 7.53018C26.3213 7.58095 26.3378 7.63426 26.3581 7.68757C26.3683 7.71676 26.386 7.74341 26.3937 7.77387C26.417 7.86037 26.429 7.94955 26.4292 8.03914V34.1333L36.5932 28.2808V14.9412C36.5932 14.8524 36.6059 14.7623 36.6287 14.6772C36.6376 14.6468 36.6541 14.6201 36.6643 14.5909C36.6846 14.5376 36.7023 14.483 36.7303 14.4335C36.7493 14.4005 36.7772 14.3739 36.7988 14.3434C36.8293 14.3028 36.8547 14.2609 36.8902 14.2254C36.9194 14.1962 36.9562 14.1746 36.9892 14.1492C37.0273 14.1188 37.0603 14.0858 37.1009 14.0616H37.1022L49.3007 7.03899C49.4551 6.95 49.6302 6.90315 49.8084 6.90315C49.9866 6.90315 50.1617 6.95 50.3161 7.03899L62.5134 14.0616C62.5566 14.087 62.5896 14.1188 62.6277 14.148C62.6594 14.1733 62.6962 14.1962 62.7254 14.2241C62.7609 14.2609 62.7863 14.3028 62.8168 14.3434C62.8396 14.3739 62.8675 14.4005 62.8853 14.4335C62.9145 14.483 62.931 14.5376 62.9513 14.5909C62.9627 14.6201 62.9792 14.6468 62.9869 14.6772ZM60.9891 28.2808V16.7004L56.7207 19.1576L50.8238 22.5528V34.1333L60.9904 28.2808H60.9891ZM48.7918 49.2295V37.6414L42.9914 40.9541L26.4279 50.4073V62.1046L48.7918 49.2295ZM2.03331 9.79703V49.2295L24.3946 62.1033V50.4086L12.7126 43.7972L12.7088 43.7946L12.7037 43.7921C12.6644 43.7693 12.6314 43.7363 12.5946 43.7083C12.5628 43.6829 12.526 43.6626 12.4981 43.6347L12.4956 43.6309C12.4626 43.5992 12.4397 43.5598 12.4118 43.5243C12.3864 43.49 12.356 43.4608 12.3357 43.4253L12.3344 43.4215C12.3115 43.3834 12.2976 43.3377 12.2811 43.2946C12.2646 43.2565 12.243 43.2209 12.2328 43.1803V43.1791C12.2202 43.1308 12.2176 43.0801 12.2125 43.0306C12.2075 42.9925 12.1973 42.9544 12.1973 42.9163V42.9138V15.6495L6.30173 12.253L2.03331 9.7983V9.79703ZM13.2152 2.18926L3.0525 8.03914L13.2127 13.889L23.3742 8.03788L13.2127 2.18926H13.2152ZM18.5003 38.6974L24.3959 35.3035V9.79703L20.1275 12.2543L14.2306 15.6495V41.1559L18.5003 38.6974ZM49.8084 9.09261L39.647 14.9425L49.8084 20.7924L59.9686 14.9412L49.8084 9.09261ZM48.7918 22.5528L42.8949 19.1576L38.6265 16.7004V28.2808L44.5221 31.6748L48.7918 34.1333V22.5528ZM25.41 48.6495L40.3146 40.1405L47.765 35.8886L37.6111 30.0425L25.9202 36.7733L15.265 42.9074L25.41 48.6495Z" fill="#FF2D20"/>
</svg>
