<svg width="32" height="70" viewBox="0 0 32 70" fill="none" xmlns="http://www.w3.org/2000/svg">
<path d="M30.6884 27.7016C27.0212 11.5238 19.3778 7.21702 17.428 4.1726C16.624 2.83146 15.9118 1.4374 15.2962 0C15.1932 1.43718 15.004 2.3426 13.7824 3.43246C11.3296 5.61936 0.91247 14.1083 0.0357923 32.4898C-0.781003 49.6281 12.635 60.1961 14.4076 61.2884C15.7705 61.959 17.4304 61.3027 18.24 60.6871C24.7073 56.2487 33.5435 44.4159 30.6955 27.7016" fill="#10AA50"/>
<path d="M15.8519 52.1621C15.5142 56.4042 15.2722 58.8689 14.4147 61.293C14.4147 61.293 14.9776 65.3314 15.3729 69.6094H16.7717C17.1054 66.5969 17.6148 63.6065 18.2975 60.6534C16.4867 59.7624 15.9214 55.8844 15.8519 52.1621Z" fill="#B8C4C2"/>
<path d="M18.2951 60.6557C16.4651 59.8102 15.9357 55.8507 15.8543 52.162C16.3069 46.0771 16.4388 39.9727 16.2495 33.8739C16.1537 30.6738 16.295 4.23456 15.4615 0.36377C16.0317 1.67477 16.6886 2.94629 17.428 4.16989C19.3778 7.2167 27.0235 11.5234 30.6883 27.7013C33.5435 44.3869 24.7552 56.1885 18.2951 60.6557Z" fill="#12924F"/>
</svg>
