<svg width="87" height="60" viewBox="0 0 87 60" fill="none" xmlns="http://www.w3.org/2000/svg">
<path fill-rule="evenodd" clip-rule="evenodd" d="M24.7373 47.9007H27.0557C26.9463 43.7178 26.5906 39.1038 25.9885 34.0596H23.2391L19.8742 44.2299H19.8536L16.5093 34.0596H13.6358C13.0888 38.366 12.7465 42.9796 12.6104 47.9007H14.7236C14.7917 43.8539 14.9556 40.1768 15.2159 36.8695H15.2361L18.7448 47.9007H20.5099L24.0397 36.8695H24.0603C24.4295 40.3143 24.6553 43.9904 24.7373 47.9007ZM33.3761 48.8479C34.9217 46.5263 36.1671 42.8072 37.111 37.6886V37.6877H34.9154C34.518 40.8321 33.8205 43.7379 32.8219 46.4028C32.8904 45.8696 32.7193 44.9335 32.3089 43.5928L30.4829 37.6882H28.2053L30.7494 45.5831C31.132 46.7721 31.3238 47.5573 31.3238 47.9414C31.3238 48.5014 31.0778 49.0077 30.5859 49.458C30.1747 49.8278 29.6353 50.0122 28.9642 50.0122C28.595 50.0122 28.2738 49.9898 28.0001 49.9505V51.1847C28.5601 51.4139 29.0327 51.5293 29.4158 51.5293C30.8525 51.5293 32.1718 50.6349 33.3761 48.8479Z" fill="#5D87A1"/>
<path fill-rule="evenodd" clip-rule="evenodd" d="M57.1152 46.9796L59.6617 48.2352L58.7576 49.7904L55.4424 47.8619C54.8918 48.0244 54.2875 48.105 53.6289 48.105C51.8633 48.105 50.5431 47.5915 49.6672 46.5659C48.7099 45.4338 48.2314 43.649 48.2314 41.216C48.2314 38.7408 48.7712 36.8687 49.8527 35.5974C50.837 34.4348 52.2132 33.8538 53.9774 33.8538C57.5753 33.8538 59.3736 36.1444 59.3736 40.7235C59.3736 43.2121 58.8338 45.0909 57.7514 46.3613C57.557 46.5937 57.341 46.7942 57.1152 46.9796ZM61.384 47.9012H67.9696V46.1974H63.5994V34.0601H61.384V47.9012ZM51.4122 45.1311C50.8513 44.2295 50.5708 42.7818 50.5708 40.7857C50.5708 37.3007 51.6303 35.5562 53.7516 35.5562C54.8604 35.5562 55.6731 35.9734 56.1928 36.806C56.7528 37.7089 57.0346 39.1437 57.0346 41.112C57.0346 44.6257 55.9741 46.3828 53.8542 46.3828C52.745 46.3832 51.9323 45.9673 51.4122 45.1311ZM45.9733 46.9555C46.8343 46.2012 47.2653 45.2383 47.2653 44.0645C47.2653 42.7198 46.7264 41.9046 45.6471 41.1395C45.6471 41.1395 43.6571 40.0065 42.6733 39.4729C41.5918 38.8726 41.0058 38.1608 41.0058 37.3425C41.0058 36.8071 41.2428 36.3706 41.6272 36.0295C42.0085 35.6871 42.5568 35.5165 43.2669 35.5165C44.1436 35.5165 45.0325 35.7077 45.9329 36.09L46.467 34.901C45.4142 34.2196 44.2453 33.8754 42.9596 33.8754C41.7146 33.8754 40.699 34.2201 39.9118 34.9117C39.1256 35.6007 38.7327 36.5063 38.7327 37.6281C38.7327 38.9836 39.2595 39.8064 40.3119 40.5728C40.3119 40.5728 42.2535 41.6866 43.2243 42.2193C44.2771 42.808 44.851 43.5108 44.851 44.3331C44.851 44.9858 44.5692 45.502 44.0966 45.87C43.6235 46.2366 42.9712 46.4215 42.1366 46.4215C41.2473 46.4215 40.2568 46.1493 39.1628 45.6018L38.5674 46.7903C39.8388 47.6507 41.1523 48.0832 42.5071 48.0832C43.9555 48.0832 45.1113 47.7067 45.9733 46.9555Z" fill="#F8981D"/>
<path fill-rule="evenodd" clip-rule="evenodd" d="M67.5056 29.8921C68.3761 29.5241 69.4132 29.3894 70.7527 29.4234C70.7156 29.1732 70.2385 28.8765 69.8884 28.6588C69.77 28.5852 69.6661 28.5206 69.5987 28.4699C69.0633 28.0844 68.4961 27.682 67.9267 27.3315C67.7435 27.2195 67.4794 27.1263 67.2254 27.0367C67.062 26.979 66.9029 26.9228 66.7722 26.8641C66.6383 26.8095 66.4555 26.7549 66.258 26.6959C65.7903 26.5562 65.2405 26.392 65.0645 26.1452C64.6089 25.5532 64.2909 24.8382 63.9733 24.1241C63.9407 24.0509 63.9082 23.9777 63.8755 23.9047C63.7073 23.5189 63.5193 23.1254 63.3302 22.7297C63.1259 22.302 62.9202 21.8717 62.7371 21.4457C62.6575 21.2712 62.5964 21.106 62.5363 20.9433C62.4583 20.7325 62.382 20.5259 62.2689 20.3091C61.0486 17.9517 59.2409 15.978 57.0488 14.5889C56.3285 14.1381 55.5252 13.7204 54.6386 13.4357C54.3665 13.3539 54.0652 13.3409 53.7614 13.3279C53.5036 13.3168 53.2438 13.3056 52.9985 13.2522H52.6464C52.4436 13.1957 52.2633 13.0328 52.0956 12.8812C52.0145 12.808 51.9364 12.7374 51.8601 12.6828C51.3422 12.3318 50.8234 12.0977 50.203 11.847C49.9857 11.7463 49.3661 11.5135 49.1493 11.6966C49.0158 11.7301 48.9477 11.7803 48.915 11.9146C48.781 12.1147 48.8979 12.4155 48.9813 12.5995C49.1483 12.9538 49.3586 13.2129 49.5743 13.4786C49.6842 13.614 49.7955 13.7512 49.9032 13.9035C49.9553 13.9771 50.0096 14.0523 50.0648 14.1289C50.3108 14.4699 50.5751 14.8362 50.7401 15.1923C50.9699 15.6896 51.1346 16.2156 51.2988 16.7398C51.4435 17.2019 51.5878 17.6627 51.7759 18.1012C51.9264 18.4531 52.163 18.8542 52.3789 19.1711C52.4472 19.2649 52.5365 19.349 52.6269 19.4341C52.7795 19.5778 52.9352 19.7244 52.9985 19.9254C53.161 20.1952 52.8632 20.9676 52.6814 21.4392C52.6382 21.5514 52.6015 21.6465 52.5792 21.7138C52.1441 23.0846 52.2284 24.9916 52.7297 26.1797C52.748 26.2221 52.7662 26.2651 52.7846 26.3085C52.9686 26.7439 53.166 27.2107 53.6508 27.3324L53.7166 27.3002C53.7416 27.1056 53.7628 26.9127 53.7836 26.7226C53.8616 26.0122 53.9353 25.3409 54.1866 24.7727C54.3064 24.4788 54.5043 24.2412 54.6973 24.0094C54.8001 23.886 54.9015 23.7642 54.9889 23.6365C55.0953 23.7003 55.1344 23.8447 55.1744 23.9929C55.1976 24.0787 55.2211 24.1657 55.2582 24.2391C55.2768 24.2834 55.2954 24.328 55.3142 24.373C55.5155 24.8541 55.731 25.3695 55.9777 25.8444C56.5287 26.9147 57.1496 27.9519 57.8512 28.8889C58.0855 29.2228 58.4197 29.5908 58.7217 29.8921C58.7671 29.9317 58.8143 29.9656 58.8609 29.9991C58.951 30.0638 59.0385 30.1267 59.1056 30.2256H59.1388V30.2757C58.82 30.1584 58.5756 29.907 58.337 29.6616C58.1997 29.5204 58.0644 29.3813 57.918 29.2707C57.1649 28.7036 56.2608 27.8503 55.7416 27.0316C55.5847 26.6915 55.4178 26.3611 55.2489 26.0269C55.1848 25.9 55.1204 25.7726 55.0561 25.6438V25.6111C54.9918 25.6961 54.9822 25.781 54.9704 25.8842C54.9639 25.942 54.9566 26.0056 54.9388 26.078C54.8771 26.3158 54.8465 26.563 54.8169 26.802C54.7424 27.4033 54.6744 27.9525 54.1346 28.1677C53.2825 28.5205 52.6455 27.6001 52.3784 27.182C51.525 25.7933 51.2898 23.4525 51.8919 21.563C51.9384 21.4178 51.971 21.2624 52.0035 21.1074C52.0646 20.8162 52.1253 20.5265 52.2776 20.3091C52.2436 20.1078 52.1285 20.0043 52.0157 19.9028C51.9592 19.8519 51.9032 19.8015 51.8583 19.7396C51.6236 19.4227 51.4233 19.0547 51.2396 18.7047C50.9716 18.182 50.7625 17.5828 50.5598 17.0018C50.4961 16.8195 50.4332 16.639 50.3692 16.4632C50.3116 16.3166 50.2743 16.1696 50.2374 16.0245C50.1988 15.8724 50.1607 15.7223 50.1004 15.5769C49.9424 15.2312 49.6772 14.885 49.4322 14.5651C49.3688 14.4823 49.3068 14.4013 49.2483 14.3225C49.1831 14.2291 49.0968 14.1209 49.0006 14.0003C48.5284 13.408 47.8178 12.5165 48.1937 11.6124C48.8961 9.89071 51.3552 11.1947 52.3104 11.7964C52.4054 11.8575 52.5062 11.9465 52.6104 12.0383C52.7623 12.1724 52.9215 12.3128 53.0805 12.3824L54.3362 12.4486C54.4075 12.4653 54.4783 12.4818 54.5487 12.4981C55.2549 12.6619 55.9146 12.8149 56.4772 13.1349C59.356 14.8248 61.2291 16.5465 62.9539 19.3891C63.1871 19.771 63.3463 20.172 63.5084 20.5803C63.6022 20.8168 63.6971 21.0558 63.8078 21.2948C64.2254 22.2667 64.6953 23.2864 65.1791 24.2055C65.2397 24.3267 65.2965 24.4517 65.3535 24.5769C65.501 24.9016 65.6493 25.2278 65.8659 25.4934C65.9438 25.6045 66.1178 25.6637 66.2844 25.7204C66.3689 25.7492 66.4515 25.7773 66.5187 25.8112C66.7362 25.9234 66.9716 26.0248 67.2087 26.1269C67.5746 26.2846 67.9447 26.444 68.26 26.6475C69.2304 27.2496 70.1694 27.969 71.0215 28.7045C71.1936 28.8582 71.3357 29.0457 71.4777 29.2331C71.5986 29.3926 71.7195 29.5521 71.8588 29.6906V29.8415C71.8277 29.8511 71.7966 29.8606 71.7656 29.8702C71.5276 29.9435 71.2916 30.0162 71.0538 30.0756C70.763 30.1503 70.4882 30.1793 70.2154 30.2082C69.9402 30.2373 69.6669 30.2662 69.3809 30.3415C69.3587 30.3481 69.3362 30.3547 69.3133 30.3614C68.9759 30.4606 68.5709 30.5796 68.226 30.6119L68.26 30.646C68.4208 31.1025 69.1046 31.4958 69.6663 31.8189C69.8636 31.9324 70.0458 32.0372 70.1851 32.1331C70.836 32.6004 71.4395 33.1694 71.9251 33.8212L72.4278 34.3056C72.4834 34.3857 72.52 34.4774 72.5561 34.5677C72.5954 34.666 72.6341 34.7626 72.6957 34.841V34.892C72.5469 34.8392 72.4456 34.7335 72.3455 34.629C72.2868 34.5677 72.2285 34.5068 72.1612 34.4573C72.0027 34.3497 71.8447 34.2329 71.6867 34.1161C71.476 33.9602 71.2655 33.8045 71.0542 33.6712C70.7323 33.4677 70.3838 33.3072 70.0334 33.1458C69.6934 32.9892 69.3517 32.8318 69.031 32.6336C68.6619 32.3994 68.3098 32.1335 67.959 31.8649C67.6396 31.6304 67.2897 31.1805 67.089 30.8461C67.0383 30.7663 67.0065 30.6808 66.9759 30.5985C66.9354 30.4895 66.8971 30.3863 66.8197 30.3098C66.8459 30.0723 67.0761 30.0125 67.2956 29.9555C67.3696 29.9363 67.4423 29.9174 67.5056 29.8921ZM52.9961 14.9749C53.2197 14.9167 53.45 14.8884 53.6811 14.8908C53.7342 14.9436 53.8001 14.9885 53.8664 15.0337C53.9688 15.1035 54.0724 15.1741 54.1322 15.2758C54.1699 15.328 54.194 15.3799 54.218 15.4319C54.2479 15.4965 54.2779 15.5612 54.3342 15.6267C54.3342 16.0283 54.2169 16.296 53.9808 16.4629L53.9485 16.4961C53.8877 16.3728 53.8301 16.25 53.7724 16.1271C53.7049 15.9831 53.6374 15.839 53.5646 15.6943C53.4996 15.6036 53.4244 15.5201 53.3488 15.4362C53.2302 15.3045 53.1107 15.1718 53.0283 15.0085H52.9961V14.9749Z" fill="#5D87A1"/>
<path fill-rule="evenodd" clip-rule="evenodd" d="M69.9201 47.8986H69.5532L69.5523 46.4902H69.0527V46.2024H70.4003V46.4902H69.9201V47.8986ZM72.6937 47.8984H72.347V46.6082L71.8658 47.8984H71.6163L71.1334 46.6082H71.115V47.8984H70.7875V46.2026H71.2884L71.7494 47.3598L72.1736 46.2026H72.6937V47.8984Z" fill="#F8981D"/>
</svg>
