<svg width="114" height="22" viewBox="0 0 114 22" fill="none" xmlns="http://www.w3.org/2000/svg">
<path fill-rule="evenodd" clip-rule="evenodd" d="M106.967 3.8274C111.896 3.8274 113.792 4.27893 113.792 5.29479C113.792 6.34703 111.842 7.97965 109.122 10.2577L109.121 10.2578C108.243 10.9936 107.284 11.7967 106.284 12.6693C106.872 11.6674 107.828 10.6932 108.701 9.80255C111.207 7.24807 113.039 5.38103 103.592 5.52054C92.6729 5.68879 90.9425 2.75763 89.7495 0.736758L89.7493 0.736473L89.7491 0.736031C89.6082 0.497436 89.4748 0.271539 89.3347 0.0649414C92.4819 3.33823 95.4016 3.8274 106.967 3.8274ZM86.8698 7.32629C86.8698 8.07877 86.5665 8.53029 85.9977 8.71843C85.6944 8.83133 85.1256 8.86893 84.2156 8.86893V15.6037C84.2156 16.0929 84.064 16.5067 83.7605 16.8454C83.4572 17.184 83.0402 17.3721 82.5472 17.3721C82.0921 17.3721 81.675 17.184 81.3338 16.8454C81.0304 16.5067 80.8408 16.0929 80.8408 15.6037V8.86893C80.1583 8.86893 79.6654 8.79368 79.3241 8.60554C78.907 8.3798 78.6795 7.92831 78.6795 7.32629C78.6795 6.68667 78.907 6.27278 79.362 6.04704C79.6654 5.89654 80.1583 5.78365 80.8408 5.78365V4.35391C80.8408 2.69842 81.4096 1.83301 82.5093 1.83301C83.6088 1.83301 84.1776 2.66073 84.1776 4.35391V5.78365C85.0877 5.78365 85.6943 5.8213 85.9598 5.93415C86.5665 6.15993 86.8698 6.61142 86.8698 7.32629ZM11.2996 11.5026C11.2996 13.1957 10.8066 14.6255 9.78287 15.7543C8.72119 16.9583 7.3561 17.5602 5.64981 17.5602C3.94349 17.5602 2.57844 16.9583 1.51672 15.7543C0.492942 14.5879 0 13.1958 0 11.5026C0 9.8095 0.492942 8.3798 1.51672 7.25104C2.57844 6.04704 3.94349 5.44506 5.64981 5.44506C7.3182 5.44506 8.72119 6.04704 9.78287 7.25104C10.8066 8.3798 11.2996 9.80954 11.2996 11.5026ZM7.96341 11.5028C7.96341 10.7503 7.77385 10.1106 7.39463 9.58392C6.97753 8.98194 6.40875 8.68091 5.65041 8.68091C4.89203 8.68091 4.32326 8.98194 3.90619 9.58392C3.52702 10.1107 3.33742 10.7503 3.33742 11.5028C3.33742 12.2553 3.52702 12.9325 3.90619 13.4592C4.3233 14.0612 4.89208 14.3622 5.65041 14.3622C6.40875 14.3622 6.97753 14.0612 7.39463 13.4592C7.77385 12.9325 7.96341 12.2553 7.96341 11.5028ZM22.0686 15.6414C22.9787 14.4374 23.4337 13.0829 23.4337 11.5026C23.4337 9.92244 22.9787 8.56795 22.0307 7.36394C21.0449 6.08469 19.7936 5.44507 18.2389 5.44507C17.0255 5.44507 16.0397 5.85895 15.3572 6.72432C15.0538 6.00945 14.5229 5.67081 13.8025 5.67081C13.3475 5.67081 12.9304 5.85891 12.6271 6.19754C12.2858 6.53618 12.1341 6.95002 12.1341 7.40155V20.2316C12.1341 20.7208 12.2858 21.1346 12.5891 21.4733C12.9304 21.8119 13.3096 22 13.8025 22C14.978 22 15.5847 21.0217 15.5847 19.0277C15.5847 18.689 15.5847 18.2375 15.5468 17.6731C15.5089 17.1088 15.5089 16.7701 15.5089 16.6196C16.2672 17.2592 17.1773 17.5603 18.2769 17.5603C19.8315 17.5603 21.0828 16.9206 22.0686 15.6414ZM20.0965 11.5028C20.0965 10.7503 19.9069 10.1106 19.5278 9.58392C19.1107 8.98194 18.5419 8.68091 17.7836 8.68091C17.0252 8.68091 16.4564 8.98194 16.0393 9.58392C15.6601 10.1107 15.4706 10.7503 15.4706 11.5028C15.4706 12.2553 15.6601 12.9325 16.0393 13.4592C16.4564 14.0612 17.0252 14.3622 17.7836 14.3622C18.5419 14.3622 19.1107 14.0612 19.5278 13.4592C19.9069 12.9325 20.0965 12.2553 20.0965 11.5028ZM35.2638 12.3305C35.5293 12.1047 35.643 11.7285 35.643 11.1641C35.643 9.58392 35.1122 8.26702 34.0884 7.2136C33.0646 6.08489 31.7754 5.52051 30.2208 5.52051C28.5524 5.52051 27.1494 6.08489 26.0498 7.28885C24.9502 8.45525 24.3814 9.88499 24.3814 11.5405C24.3814 13.2713 24.9502 14.701 26.0118 15.8673C27.1115 17.0337 28.5144 17.5981 30.2587 17.5981C31.3204 17.5981 32.3821 17.41 33.4438 17.0337C34.8089 16.5069 35.4914 15.7921 35.4914 14.8891C35.4914 14.5128 35.3397 14.1742 35.0743 13.8732C34.8088 13.6099 34.4676 13.4593 34.0884 13.4593C33.8609 13.4593 33.3679 13.6098 32.6096 13.986C31.8512 14.3246 31.1687 14.5128 30.6378 14.5128C29.9174 14.5128 29.3486 14.3623 28.8557 14.0989C28.249 13.7603 27.9456 13.2711 27.9456 12.6315H34.0125C34.5813 12.6315 34.9984 12.5563 35.2638 12.3305ZM32.2678 10.2991C32.2678 9.77233 32.0024 9.32084 31.5474 8.90696C31.0924 8.49303 30.5994 8.26733 30.1065 8.26733C29.5756 8.26733 29.0827 8.45547 28.6276 8.90696C28.1726 9.32084 27.9451 9.77228 27.9451 10.2991H32.2678ZM46.4112 16.8456C46.7145 16.507 46.8662 16.0932 46.8662 15.604L46.9041 9.43351C46.9041 8.19186 46.5249 7.2136 45.7666 6.49877C45.0082 5.82155 44.0223 5.48291 42.7331 5.48291C41.3681 5.48291 40.3822 5.89679 39.8513 6.76216C39.548 6.04729 38.9792 5.70865 38.183 5.70865C37.69 5.70865 37.2729 5.85915 36.9696 6.19778C36.6662 6.49882 36.5145 6.91266 36.5145 7.40179V15.604C36.5145 16.0932 36.6662 16.507 36.9696 16.8456C37.3108 17.1842 37.69 17.3724 38.183 17.3724C39.3584 17.3724 39.9272 16.4693 39.9272 14.6258C39.9272 14.3506 39.9069 13.9747 39.8812 13.4982C39.8717 13.3233 39.8615 13.1348 39.8513 12.9327C39.8513 12.4554 39.8375 12.0606 39.8266 11.748V11.7479V11.7478V11.7477V11.7477L39.8265 11.7475L39.8265 11.7473C39.8194 11.5427 39.8134 11.3735 39.8134 11.2395C39.8134 9.28306 40.4201 8.30484 41.7093 8.30484C42.9606 8.30484 43.6052 9.28306 43.6052 11.2395C43.6052 11.5147 43.5849 11.8905 43.5592 12.367C43.5498 12.542 43.5396 12.7305 43.5294 12.9327C43.5175 13.1802 43.5056 13.4055 43.4949 13.6087C43.4714 14.0542 43.4536 14.3932 43.4536 14.6258C43.4536 16.4317 44.0223 17.3724 45.1978 17.3724C45.6907 17.3724 46.1078 17.1843 46.4112 16.8456ZM57.4077 15.2651C57.4077 16.0177 56.9147 16.6197 55.9289 17.0335C55.1326 17.3722 54.2985 17.5603 53.4263 17.5603C51.72 17.5603 50.3549 16.9583 49.2932 15.7543C48.2694 14.5879 47.7765 13.1958 47.7765 11.5026C47.7765 9.80951 48.3073 8.37981 49.3311 7.21341C50.3549 6.04705 51.72 5.44507 53.4263 5.44507C54.4121 5.44507 55.2464 5.59556 55.9289 5.85895C56.9147 6.23523 57.3698 6.83721 57.3698 7.66493C57.3698 8.07882 57.256 8.45505 56.9906 8.75604C56.7252 9.05708 56.4218 9.20757 56.0047 9.20757C55.7393 9.20757 55.3222 9.13233 54.8292 8.94418C54.2984 8.75604 53.9192 8.6808 53.6159 8.6808C52.8196 8.6808 52.2129 8.98183 51.7579 9.54616C51.3408 10.0729 51.1512 10.7125 51.1512 11.5026C51.1512 12.2552 51.3408 12.8948 51.7199 13.4215C52.1371 14.0235 52.7058 14.3245 53.4641 14.3245C53.8054 14.3245 54.2604 14.2116 54.8292 14.0235C55.398 13.8354 55.8151 13.7225 56.0805 13.7225C56.4597 13.7225 56.763 13.873 57.0285 14.174C57.256 14.5503 57.4077 14.889 57.4077 15.2651ZM69.125 16.8461C69.4283 16.5074 69.58 16.0936 69.58 15.6044V7.43988C69.58 6.98835 69.3904 6.57447 69.087 6.23587C68.7837 5.89728 68.3666 5.70914 67.9116 5.70914C67.1911 5.70914 66.6602 6.04778 66.3569 6.76265C65.6365 5.89728 64.6886 5.4834 63.4752 5.4834C61.9206 5.4834 60.6313 6.12298 59.6455 7.40223C58.7354 8.60623 58.2804 9.96073 58.2804 11.541C58.2804 13.1212 58.7354 14.5133 59.6455 15.6797C60.6313 16.959 61.9205 17.5985 63.4752 17.5985C64.6886 17.5985 65.6744 17.1847 66.3569 16.3193C66.6602 17.0342 67.1911 17.3728 67.9116 17.3728C68.4045 17.3728 68.8216 17.1847 69.125 16.8461ZM66.2429 11.5028C66.2429 10.7503 66.0533 10.1106 65.6741 9.58392C65.2569 8.98194 64.6503 8.68091 63.9299 8.68091C63.1715 8.68091 62.6027 8.98194 62.1856 9.58392C61.8064 10.1107 61.6169 10.7503 61.6169 11.5028C61.6169 12.2553 61.8065 12.9325 62.1477 13.4592C62.5648 14.0612 63.1715 14.3622 63.8919 14.3622C64.6503 14.3622 65.219 14.0612 65.6361 13.4592C66.0533 12.9325 66.2429 12.2553 66.2429 11.5028ZM77.0483 8.64343C77.7687 8.38005 78.11 7.89087 78.11 7.17604C78.11 6.72456 77.9584 6.31068 77.5791 6.00964C77.2379 5.67101 76.8208 5.48291 76.3658 5.48291C75.5316 5.48291 74.7732 5.89679 74.0527 6.76216C73.7494 6.04729 73.1806 5.70865 72.3844 5.70865C71.8914 5.70865 71.4743 5.85915 71.171 6.19778C70.8676 6.49882 70.716 6.91266 70.716 7.40179V15.6416C70.716 16.1308 70.8676 16.5446 71.171 16.8833C71.5123 17.2219 71.8914 17.41 72.3844 17.41C72.8773 17.41 73.2944 17.2219 73.5978 16.8833C73.9011 16.5446 74.0528 16.1308 74.0528 15.6416V11.5405C74.0528 10.4494 74.394 9.73454 75.1145 9.32066L77.0483 8.64343ZM97.5634 15.7923C97.5634 16.7329 96.7671 17.523 95.8192 17.523C94.8712 17.523 94.075 16.7329 94.075 15.7923C94.075 14.8516 94.8712 14.0615 95.8192 14.0615C96.7671 14.0615 97.5634 14.8516 97.5634 15.7923ZM103.782 17.523C104.73 17.523 105.526 16.7329 105.526 15.7923C105.526 14.8516 104.73 14.0615 103.782 14.0615C102.834 14.0615 102.038 14.8516 102.038 15.7923C102.038 16.7329 102.834 17.523 103.782 17.523Z" fill="url(#paint0_linear)"/>
<defs>
<linearGradient id="paint0_linear" x1="102.564" y1="17.3572" x2="102.564" y2="-0.0525689" gradientUnits="userSpaceOnUse">
<stop stop-color="#43ADDC"/>
<stop offset="1" stop-color="#53B7D9"/>
</linearGradient>
</defs>
</svg>
