<svg width="89" height="46" viewBox="0 0 89 46" fill="none" xmlns="http://www.w3.org/2000/svg">
<path d="M6.97268 10.2334H20.0404C23.8758 10.2656 26.6552 11.3714 28.3783 13.5491C30.1015 15.7267 30.67 18.7011 30.0849 22.4722C29.8577 24.1953 29.3535 25.8854 28.5734 27.5432C27.8254 29.201 26.7858 30.696 25.4527 32.0291C23.8271 33.7191 22.0883 34.7919 20.2354 35.2473C18.3825 35.7027 16.4643 35.9299 14.4817 35.9299H8.63052L6.77764 45.1943H0L6.97268 10.2334ZM12.6776 15.792L9.752 30.42C9.94704 30.4522 10.1421 30.4688 10.3371 30.4688C10.5644 30.4688 10.7925 30.4688 11.0198 30.4688C14.1404 30.501 16.7412 30.1928 18.8214 29.5424C20.9015 28.8597 22.2999 26.487 23.0147 22.4234C23.5998 19.0102 23.0147 17.0432 21.2594 16.5234C19.5362 16.0036 17.3751 15.7598 14.7743 15.792C14.3842 15.8242 14.0107 15.8408 13.6528 15.8408C13.328 15.8408 12.9867 15.8408 12.6288 15.8408L12.6776 15.792Z" fill="black"/>
<path d="M37.8055 0.919922H44.5344L42.6327 10.2331H48.679C51.9947 10.2984 54.4648 10.981 56.0905 12.281C57.7483 13.581 58.2359 16.0521 57.5533 19.6925L54.2864 35.9296H47.46L50.5806 20.4239C50.9054 18.7983 50.8079 17.6446 50.2881 16.962C49.7683 16.2793 48.6468 15.938 46.9236 15.938L41.5113 15.8892L37.5129 35.9296H30.7841L37.8055 0.919922Z" fill="black"/>
<path d="M64.7791 10.2334H77.8468C81.6822 10.2656 84.4616 11.3714 86.1847 13.5491C87.9079 15.7267 88.4764 18.7011 87.8913 22.4722C87.6641 24.1953 87.1599 25.8854 86.3798 27.5432C85.6318 29.201 84.5922 30.696 83.2591 32.0291C81.6335 33.7191 79.8947 34.7919 78.0418 35.2473C76.1889 35.7027 74.2707 35.9299 72.2881 35.9299H66.4369L64.584 45.1943H57.8064L64.7791 10.2334ZM70.484 15.792L67.5584 30.42C67.7534 30.4522 67.9485 30.4688 68.1435 30.4688C68.3708 30.4688 68.5989 30.4688 68.8262 30.4688C71.9468 30.501 74.5476 30.1928 76.6278 29.5424C78.7079 28.8597 80.1063 26.487 80.8211 22.4234C81.4062 19.0102 80.8211 17.0432 79.0658 16.5234C77.3426 16.0036 75.1815 15.7598 72.5807 15.792C72.1906 15.8242 71.8171 15.8408 71.4592 15.8408C71.1344 15.8408 70.7931 15.8408 70.4352 15.8408L70.484 15.792Z" fill="black"/>
</svg>
