<svg width="60" height="63" viewBox="0 0 60 63" fill="none" xmlns="http://www.w3.org/2000/svg">
<path d="M57.3398 38.1849C49.9511 39.709 49.4432 37.2073 49.4432 37.2073C57.2445 25.6314 60.5057 10.9375 57.6913 7.3413C50.0135 -2.46858 36.7229 2.17086 36.5011 2.29131L36.4297 2.30409C34.9699 2.00106 33.3362 1.82054 31.5001 1.79057C28.1568 1.73578 25.6208 2.66705 23.6964 4.12637C23.6964 4.12637 -0.0127974 -5.6409 1.08989 16.4106C1.32447 21.1019 7.8138 51.9069 15.554 42.6023C18.3831 39.2 21.1165 36.3232 21.1165 36.3232C22.4742 37.2251 24.0995 37.6851 25.8034 37.5199L25.9357 37.4075C25.8946 37.83 25.9134 38.2432 25.9888 38.7323C23.9948 40.9601 24.5807 41.3513 20.5946 42.1718C16.5612 43.0031 18.9307 44.4829 20.4777 44.8697C22.3532 45.3387 26.6921 46.0031 29.6238 41.8991L29.5069 42.3673C30.2882 42.9931 30.8368 46.4377 30.7448 49.5603C30.6529 52.6829 30.5915 54.8268 31.2071 56.5013C31.8227 58.1758 32.4362 61.9435 37.6763 60.8206C42.0549 59.8823 44.3238 57.4508 44.6395 53.3948C44.8635 50.5112 45.3704 50.9375 45.4024 48.3595L45.809 47.139C46.2779 43.2301 45.8835 41.9691 48.5811 42.5556L49.2366 42.6132C51.2221 42.7036 53.8207 42.2939 55.3458 41.585C58.6299 40.0609 60.5777 37.5162 57.3395 38.1849H57.3398Z" fill="#336791"/>
<path d="M29.9409 40.4265C29.7375 47.6998 29.992 55.0237 30.7037 56.8037C31.4158 58.5837 32.9397 62.0458 38.1802 60.9232C42.5584 59.9846 44.1514 58.1682 44.8426 54.1589C45.3517 51.2091 46.3332 43.0169 46.4591 41.3384" stroke="white" stroke-width="1.94712" stroke-linecap="round" stroke-linejoin="round"/>
<path d="M23.6597 3.96436C23.6597 3.96436 -0.0656779 -5.73256 1.0373 16.3189C1.27188 21.0102 7.76166 51.8163 15.5017 42.5113C18.3302 39.1085 20.8882 36.4397 20.8882 36.4397" stroke="white" stroke-width="1.94712" stroke-linecap="round" stroke-linejoin="round"/>
<path d="M36.4749 2.19429C35.6537 2.45179 49.6724 -2.93046 57.6395 7.24972C60.4537 10.8461 57.1925 25.54 49.3913 37.1162" stroke="white" stroke-width="1.94712" stroke-linecap="round" stroke-linejoin="round"/>
<path d="M49.391 37.1168C49.391 37.1168 49.8994 39.6192 57.2883 38.094C60.5257 37.4254 58.5773 39.9704 55.294 41.4952C52.5993 42.7458 46.558 43.0663 46.4593 41.3382C46.2053 36.8794 49.639 38.234 49.3912 37.1168C49.1671 36.1106 47.6316 35.1231 46.6159 32.6605C45.7291 30.5111 34.4542 14.028 49.7427 16.476C50.3027 16.3601 45.7553 1.9339 31.4474 1.69932C17.1428 1.46474 17.6121 19.2908 17.6121 19.2908" stroke="white" stroke-width="1.94712" stroke-linecap="round" stroke-linejoin="bevel"/>
<path d="M25.9365 38.6415C23.9422 40.8692 24.5287 41.2603 20.5424 42.0812C16.509 42.9125 18.8787 44.3921 20.4253 44.7787C22.3007 45.248 26.6397 45.9124 29.5714 41.8074C30.4642 40.5575 29.5661 38.5632 28.3397 38.0548C27.7472 37.8094 26.9549 37.5018 25.9365 38.6415V38.6415Z" stroke="white" stroke-width="1.94712" stroke-linecap="round" stroke-linejoin="round"/>
<path d="M25.8059 38.6024C25.6049 37.2926 26.2363 35.734 26.9128 33.9105C27.9296 31.1746 30.2755 28.4382 28.3989 19.7595C27.0001 13.2922 17.6179 18.4136 17.6121 19.2905C17.6063 20.1671 18.0364 23.7353 17.4553 27.8905C16.6971 33.3125 20.9054 37.8982 25.7514 37.4291" stroke="white" stroke-width="1.94712" stroke-linecap="round" stroke-linejoin="round"/>
<path d="M23.5736 19.1592C23.5313 19.4587 24.1219 20.2579 24.8921 20.3647C25.6609 20.4719 26.3189 19.8473 26.3607 19.5481C26.4024 19.2486 25.8125 18.9187 25.042 18.8115C24.2728 18.7041 23.6144 18.8604 23.5738 19.1592H23.5736Z" fill="white" stroke="white" stroke-width="0.649036"/>
<path d="M46.991 18.5483C47.0328 18.8478 46.4429 19.647 45.6726 19.7538C44.9032 19.861 44.2451 19.2364 44.203 18.9372C44.1623 18.6377 44.7523 18.3078 45.5219 18.2006C46.2914 18.0934 46.9493 18.2495 46.991 18.5484V18.5483Z" fill="white" stroke="white" stroke-width="0.324518"/>
<path d="M49.7429 16.4753C49.8696 18.8247 49.2368 20.4248 49.1571 22.9258C49.039 26.5609 50.8902 30.7217 48.1008 34.8875" stroke="white" stroke-width="1.94712" stroke-linecap="round" stroke-linejoin="round"/>
</svg>
