<svg width="66" height="66" viewBox="0 0 66 66" fill="none" xmlns="http://www.w3.org/2000/svg">
<path d="M65.9746 31.2204C65.9525 30.3738 65.9079 29.5049 65.8633 28.6583C65.8186 27.7892 65.7965 26.9204 65.7073 26.0515C65.5513 24.8705 65.3953 23.6675 65.128 22.5089C64.9274 21.5509 64.5933 20.6375 64.2591 19.724C63.8358 18.6544 63.4125 17.5628 62.8778 16.538C62.0087 14.8893 60.8725 13.4187 59.8253 11.8814C59.1346 10.9009 58.2436 10.0989 57.5751 9.09649C57.1964 8.51718 56.6392 8.02682 56.0824 7.58132C55.1911 6.86847 54.2552 6.22214 53.3196 5.59849C52.6065 5.10813 51.8937 4.64046 51.1362 4.21713C50.5345 3.88275 49.8884 3.61539 49.2645 3.32587C48.5517 2.99149 47.861 2.59059 47.0589 2.43461C46.8583 2.39001 46.6802 2.32324 46.4796 2.25646C45.9671 2.07806 45.477 1.87774 44.9645 1.72176C44.1848 1.47658 43.4274 1.1868 42.6251 0.986479C41.8454 0.785901 41.0434 0.652096 40.2413 0.540721C39.3501 0.407175 38.4366 0.362573 37.5454 0.27337C36.9661 0.206596 36.3868 0.139823 35.8296 0.117393C34.9832 0.0730495 34.1142 0.0730495 33.2675 0.0506198C32.8442 0.0284479 32.3987 -0.0161536 31.9753 0.00601826C31.3293 0.0284479 30.6832 0.0952214 30.0369 0.184425C29.4132 0.251198 28.7893 0.362573 28.1876 0.451776C27.4525 0.540721 26.7173 0.585323 25.982 0.674526C25.2913 0.763729 24.5784 0.897276 23.8878 1.00865C23.6426 1.05325 23.3974 1.14246 23.1525 1.1868C22.6178 1.29843 22.0606 1.34303 21.5259 1.52118C20.5679 1.81071 19.6099 2.14509 18.674 2.50139C17.8052 2.85794 16.9585 3.23667 16.1343 3.68242C15.2877 4.1501 14.4856 4.70723 13.6833 5.24193C12.9258 5.75421 12.1684 6.28917 11.4331 6.86847C10.7203 7.42535 10.0517 8.04925 9.40567 8.67316C9.04911 9.02946 8.75959 9.45279 8.42521 9.85394C7.86833 10.5 7.3112 11.1239 6.77649 11.7922C6.33099 12.3493 5.92984 12.9286 5.50677 13.5079C4.74906 14.5327 4.10298 15.6243 3.5015 16.7161C3.25632 17.1616 3.03357 17.6074 2.81082 18.0529C2.47644 18.7214 2.12014 19.3675 1.80819 20.0582C1.58544 20.5261 1.40703 21.0384 1.27349 21.5509C0.961534 22.6425 0.649581 23.7565 0.360057 24.8483C0.0927058 25.8285 0.0256746 26.8536 0.00350268 27.8562C-0.018927 28.7472 0.0702761 29.6163 0.159479 30.5076C0.181651 30.7303 0.0481042 30.9977 0.315456 31.1758C0.337628 31.1758 0.315456 31.265 0.293026 31.2872C0.226253 31.421 0.293026 31.5545 0.426831 31.5991C0.426831 31.5991 0.449003 31.6216 0.449003 31.6437H0.337628C0.270854 31.8443 0.493604 32.0003 0.404401 32.223C0.382229 32.2676 0.471432 32.3566 0.515776 32.4236C0.515776 32.4904 0.493604 32.5796 0.515776 32.6464C0.538206 32.847 0.627409 33.0473 0.627409 33.2703C0.627409 33.4263 0.760956 33.6044 0.805557 33.7604C0.827729 33.8272 0.805557 33.9385 0.760956 33.9831C0.627409 34.1391 0.649581 34.2729 0.850159 34.3619C0.89476 34.3843 0.961534 34.4732 0.961534 34.5178C0.961534 34.6516 0.916932 34.7852 0.89476 34.919C0.939104 34.9636 0.961534 35.0079 0.939104 35.0525C0.939104 35.1193 0.872331 35.1863 0.89476 35.2309C1.07291 35.5872 1.13968 35.9884 1.16211 36.3893C1.16211 36.4785 1.20671 36.5677 1.25106 36.6791C1.27349 36.6791 1.34026 36.6791 1.38486 36.7012L1.25106 37.1024C1.36243 37.0354 1.45164 37.0132 1.56301 36.9686C1.62978 37.2584 1.69682 37.5257 1.78576 37.7707C1.80819 37.8153 1.85279 37.8599 1.91957 37.9045C1.89714 37.9491 1.89714 38.038 1.85279 38.0604C1.94174 38.4613 1.98634 38.8403 2.14232 39.219C2.16474 39.219 2.18692 39.1966 2.20909 39.1966C2.14232 38.7957 2.09771 38.3724 2.03094 37.9712V37.8377C2.03094 37.8377 2.07554 37.8153 2.09771 37.8153C2.12014 37.9045 2.16474 38.0158 2.16474 38.0826C2.34289 38.0826 2.61024 38.194 2.78839 38.194C2.81082 38.1272 2.83299 38.038 2.85542 37.9937C2.72162 37.8599 2.61024 37.6593 2.47644 37.5257C2.52104 37.7039 2.47644 37.7707 2.47644 37.8377C2.38749 37.7931 2.27612 37.7485 2.16474 37.7039C2.25369 37.5925 2.34289 37.4811 2.47644 37.3473C2.47644 37.147 2.36507 36.9686 2.05311 36.991C2.18692 36.9464 2.32072 36.8797 2.47644 36.8351C2.49887 36.9018 2.52104 36.9686 2.54347 37.0132C2.72162 36.7012 2.45427 36.4563 2.45427 36.1444C2.47644 35.7656 2.25369 35.3869 2.18692 34.9858C2.07554 34.3619 2.09771 33.4263 2.03094 32.8023C2.03094 32.7577 1.96417 32.7131 1.91957 32.6685C1.89714 32.691 1.78576 32.9805 1.76359 33.0029C1.83036 33.5376 1.89714 34.0723 1.94174 34.607C1.91957 34.607 1.89714 34.607 1.89714 34.6292C1.80819 34.1613 1.71899 33.6712 1.60761 33.1365C1.58544 33.2924 1.56301 33.3592 1.56301 33.4484C1.49624 33.4263 1.47407 33.4038 1.36243 33.3592C1.45164 33.5598 1.54084 33.6936 1.60761 33.8496C1.45164 33.7826 1.27349 33.805 1.27349 33.805V34.4286C1.05074 34.2059 0.983706 34.0277 0.872331 33.8718C0.827729 33.6936 0.805557 33.5152 0.760956 33.3371L0.827729 33.3146C0.805557 33.2257 0.760956 33.1586 0.760956 33.0919C0.738784 32.9359 0.716354 32.7577 0.694182 32.5572C0.716354 32.535 0.805557 32.5126 0.850159 32.4682L0.671753 32.2009C0.850159 32.223 0.961534 32.2452 1.07291 32.2452C1.07291 32.2009 1.09508 32.1784 1.07291 32.1563C0.850159 31.9557 1.00614 31.7773 1.09508 31.5991C1.13968 31.5099 1.29566 31.4878 1.34026 31.3986C1.51841 31.0644 1.80819 30.7971 1.80819 30.3738C1.80819 30.1732 1.87496 29.9504 1.89714 29.7498C1.94174 29.3711 1.98634 28.9924 2.00877 28.6137C2.05311 28.1236 2.00877 27.6332 2.12014 27.1655C2.29829 26.3857 2.52104 25.6058 2.76622 24.8261C2.94437 24.269 3.14495 23.7343 3.3677 23.1774C3.70208 22.3083 4.01378 21.4395 4.4371 20.615C5.03884 19.4121 5.72952 18.2535 6.39777 17.0727C6.8211 16.3374 7.26685 15.6467 7.73453 14.9336C8.18028 14.2429 8.62578 13.5301 9.13832 12.884C9.85117 11.9706 10.6311 11.1239 11.4999 10.3662C12.3911 9.56416 13.2378 8.73993 14.1958 8.00465C15.4436 7.04662 16.758 6.19996 18.1618 5.46468C19.2979 4.86321 20.4787 4.39528 21.6598 3.94952C22.4172 3.66 23.2414 3.52645 24.0213 3.28127C24.9126 2.99149 25.8038 2.85794 26.7394 2.83551C27.3412 2.81334 27.9205 2.74657 28.5219 2.67979C29.0567 2.63519 29.5914 2.59059 30.1707 2.52382C30.1039 2.61276 30.0815 2.65736 30.0593 2.70196C29.8141 3.05852 29.5468 3.41482 29.3018 3.77137C29.1013 4.06115 28.8785 4.37285 28.6779 4.66263C28.3214 5.13056 27.9426 5.59849 27.6085 6.08859C27.096 6.82387 26.6281 7.58132 26.0934 8.3166C25.5587 9.02946 24.9793 9.69797 24.4225 10.3886C23.6872 11.3467 22.9965 12.3269 22.2612 13.2849C21.5927 14.1986 20.8799 15.0674 20.2338 15.9809C19.6545 16.7829 19.142 17.6296 18.5851 18.4541C17.7606 19.6794 16.9364 20.8824 16.1119 22.1078C15.4658 23.0436 14.8197 23.9571 14.1512 24.8929C14.1066 24.9597 14.0398 24.9821 13.9731 25.0265C13.9285 25.0711 13.8393 25.1157 13.8393 25.1603C13.7949 25.3162 13.7949 25.4722 13.7279 25.6058C13.5497 25.9402 13.3716 26.2743 13.171 26.5862C13.0596 26.7644 12.9037 26.9204 12.7699 27.0985C12.7253 27.0763 12.7031 27.0542 12.6585 27.0542C12.7477 26.8312 13.1264 26.6976 12.9483 26.3635C12.8369 26.5416 12.7253 26.6976 12.6139 26.8758L12.3465 27.4105C12.4357 27.4775 12.5917 27.5218 12.4357 27.6556C12.369 27.767 12.3019 27.9006 12.2352 28.0122C12.2576 28.0122 12.2576 28.0344 12.2798 28.0344C12.3465 27.9452 12.4136 27.8784 12.4803 27.7892C12.5025 27.7892 12.5249 27.8116 12.5471 27.8116C12.4803 28.0344 12.3465 28.2349 12.2352 28.4355C12.146 28.6137 11.9232 28.7472 11.7672 28.881C11.7897 28.9032 11.9456 28.9702 11.9678 28.9924C12.0346 28.9032 12.057 28.9478 12.1238 28.8589C12.1684 28.9256 12.2352 28.8142 12.2576 28.881C12.3244 28.7918 12.3911 28.725 12.4136 28.6583C12.5025 28.4355 12.6363 28.2571 12.8591 28.1682C12.9483 28.1236 13.015 28.0565 13.0818 27.9898C13.7503 27.2991 14.441 26.6308 15.0425 25.8956C15.9783 24.7591 16.825 23.5783 17.716 22.4197C18.095 21.9296 18.5405 21.4395 18.9414 20.9716C18.986 20.994 19.0306 20.994 19.053 21.0162C19.0084 21.4841 18.9638 21.9742 18.9414 22.4422C18.8746 23.2664 18.83 24.0909 18.7632 24.9375C18.7411 25.2716 18.7632 25.6058 18.7411 25.9402C18.7411 26.0291 18.674 26.0959 18.674 26.1851C18.674 26.4078 18.7411 26.653 18.7411 26.8758C18.674 27.7002 18.5851 28.5023 18.518 29.3265C18.4959 29.5049 18.5851 29.6831 18.6297 29.8391C18.6073 29.8169 18.5851 29.7945 18.518 29.7498C18.518 31.0423 18.7632 32.3122 18.5627 33.5822C18.6519 33.5598 18.6965 33.5376 18.6965 33.493C18.7186 33.3371 18.7632 33.1811 18.7632 33.0251C18.7857 32.8916 18.7632 32.7577 18.7632 32.6018V32.379C18.7857 31.9779 18.8746 31.5545 18.83 31.1536C18.7857 30.7079 18.7857 30.2846 18.8746 29.8612C18.9192 29.6831 18.8524 29.4603 18.9638 29.2376V29.5717C18.9414 30.8417 18.986 32.1117 18.8078 33.3817C18.7857 33.493 18.8746 33.6936 18.6297 33.6712C18.6073 33.6712 18.5851 33.7826 18.5405 33.8496C18.4291 34.0723 18.674 34.3619 18.4513 34.5846C18.4067 34.6292 18.4959 34.8298 18.518 34.9636C18.518 35.0079 18.5405 35.0525 18.518 35.075C18.4291 35.2309 18.4291 35.2309 18.5627 35.2531C18.5851 35.7432 18.6297 36.189 18.6519 36.6567H18.7186C19.0084 35.81 18.83 34.9412 18.986 34.0723C19.0084 34.4286 19.0306 34.7852 19.0084 35.1639C19.0084 35.7432 18.986 36.3004 18.9638 36.8797C18.9638 36.991 18.9414 37.1024 18.9192 37.2138C18.8524 37.5257 18.83 37.8377 18.7186 38.1272C18.6297 38.35 18.674 38.6843 18.674 38.9517V39.7981C18.674 39.8205 18.7411 39.8873 18.7411 39.9765C18.7632 40.1771 18.6519 40.3777 18.7186 40.6004C18.7411 40.645 18.6965 40.7118 18.674 40.7564C18.6519 40.8232 18.6297 40.8899 18.6519 40.9567L18.7186 41.2911C18.7186 41.3133 18.7411 41.3357 18.7632 41.38C18.7857 41.2911 18.7857 41.2241 18.7857 41.2019C19.1644 41.2465 18.9638 41.5806 19.142 41.759C19.053 41.8034 18.986 41.8258 18.986 41.848C19.0084 41.9372 19.053 42.0039 19.053 42.0931C19.053 42.2935 19.0306 42.4719 19.0084 42.6724C19.0084 43.1847 18.986 43.6973 18.986 44.1874C18.986 44.2541 19.0084 44.3212 19.0084 44.3879C19.0084 44.4325 18.986 44.4771 18.986 44.5439V45.0118H19.0752C19.0306 45.0786 18.986 45.1454 18.9192 45.2122C18.897 45.2122 18.83 45.2122 18.83 45.19V42.3827H18.4959C18.4513 43.7194 18.5627 44.9226 18.3177 46.1702C18.0504 46.1926 17.9612 46.2372 17.6717 46.2372C16.981 46.2372 16.2903 46.2372 15.5996 46.2594C14.7751 46.2594 13.9731 46.2818 13.1486 46.2818C12.7477 46.2818 12.3244 46.3262 11.9232 46.3262C11.3885 46.3262 10.8316 46.2594 10.2969 46.2594C9.47244 46.2594 8.67039 46.3262 7.84616 46.3486C7.24442 46.3708 6.64295 46.3708 6.04147 46.3932C5.64032 46.4154 5.23916 46.4378 4.83826 46.4821C4.66011 46.5046 4.50414 46.5713 4.28113 46.6381C4.21435 46.6381 4.05838 46.6159 3.92483 46.6381C3.70208 46.6827 3.5015 46.8165 3.27875 46.8609C2.94437 46.9279 2.85542 47.0168 2.89977 47.3512V47.574C2.85542 47.5294 2.78839 47.4848 2.74379 47.4626C2.72162 47.4626 2.69945 47.4848 2.69945 47.4848C2.72162 47.5515 2.76622 47.5961 2.78839 47.6632C2.8776 47.6186 2.98897 47.5072 3.07817 47.5072H3.39013C3.34553 47.5072 3.3231 47.6407 3.25632 47.7521C3.43447 47.6853 3.5461 47.6408 3.65748 47.5961C3.67965 47.6632 3.67965 47.7521 3.67965 47.7746C3.9916 47.7521 4.28113 47.6632 4.54848 47.73C5.41756 47.9527 6.30882 48.0419 7.19982 48.1309C7.77913 48.1755 8.33626 48.1979 8.91556 48.2201C9.73979 48.2647 10.5643 48.3093 11.3885 48.3093C12.0792 48.3093 12.7477 48.2425 13.4384 48.2425C14.3964 48.2425 15.3544 48.2868 16.3125 48.3093C16.513 48.3093 16.7358 48.2868 16.9585 48.2868H18.5851C20.0332 48.2425 21.4813 48.2201 22.9297 48.1755C23.754 48.1533 24.6006 48.1087 25.4251 48.0865L27.9648 48.0195C28.9453 47.9973 29.9255 47.9973 30.8835 47.9749C31.6188 47.9749 32.3319 47.9527 33.0669 47.9305C33.8914 47.9081 34.7381 47.8413 35.5623 47.7967C36.008 47.7746 36.4535 47.73 36.8993 47.6854C37.434 47.6408 37.9909 47.574 38.5256 47.5515C39.3276 47.5072 40.1521 47.4848 40.9542 47.4402C41.9568 47.3734 42.9594 47.2842 43.9843 47.262C44.9201 47.2174 45.8781 47.2399 46.8137 47.2174C47.6382 47.1953 48.4625 47.1507 49.3091 47.1285L50.7129 47.0614C50.7129 47.0614 51.6485 47.0393 52.1164 46.9947C52.9185 46.9501 53.7205 46.8609 54.5226 46.8387C55.0351 46.8165 55.5477 46.8387 56.0599 46.8165C56.8844 46.7941 57.7311 46.7495 58.5553 46.7495C58.8673 46.7495 59.2016 46.7941 59.6025 46.8165C59.4244 46.9725 59.313 47.0614 59.1792 47.1728C59.2684 47.1953 59.3574 47.2399 59.4466 47.2842C59.4466 47.3066 59.4244 47.3288 59.4244 47.3734C59.313 47.3734 59.2016 47.3958 59.09 47.3958C59.0457 47.5072 59.0011 47.5515 58.9565 47.7746H59.3574C59.2016 47.7746 59.0678 47.9749 58.9119 48.1087C58.9343 48.1309 58.9565 48.1309 58.9786 48.1533C58.7337 48.0641 58.5777 48.1087 58.4885 48.3539C58.5553 48.376 58.5999 48.376 58.6667 48.376C58.6445 48.4428 58.6223 48.5098 58.5999 48.5988C58.5777 48.6434 58.5553 48.688 58.5553 48.7548L58.4885 48.688C58.4885 48.6434 58.4885 48.5988 58.4664 48.5542C58.3325 48.688 58.132 48.7772 58.2433 49.0667C58.1544 49.1113 58.043 49.1559 57.9317 49.2227C57.9538 49.2673 57.9984 49.3119 58.0206 49.3787C57.8203 49.4008 57.6197 49.4454 57.6643 49.6906C57.7532 49.7128 57.8424 49.7574 57.9092 49.7796C57.7978 49.8242 57.6865 49.8909 57.5751 49.9355C57.5527 49.9801 57.5305 50.0915 57.4859 50.1139C57.1739 50.1807 57.3523 50.2921 57.4413 50.4035C57.3745 50.4481 57.3077 50.4927 57.241 50.5148C57.3077 50.5373 57.3523 50.5594 57.3969 50.604C57.3299 50.6487 57.2853 50.6708 57.241 50.6932C57.2853 50.7154 57.3523 50.76 57.3745 50.76C57.2853 50.8268 57.1739 50.916 57.0404 51.0274C57.0404 51.072 57.0404 51.0941 57.0626 51.1387C56.9736 51.228 56.8844 51.3169 56.7952 51.4507C56.7063 51.5843 56.6617 51.7627 56.5503 51.8962C56.0824 52.4087 55.748 53.0102 55.1465 53.4114C54.9238 53.5673 54.7232 53.7677 54.5226 53.9682C54.1217 54.347 53.7651 54.7703 53.3418 55.1269C52.7849 55.5948 52.2056 56.0181 51.6039 56.4414C50.8689 56.9537 50.1336 57.4662 49.3983 57.9563C48.9972 58.2237 48.5517 58.4243 48.1283 58.6695C47.705 58.9144 47.3041 59.1374 46.8805 59.3823C46.6132 59.5607 46.3682 59.8056 46.0785 59.9394C45.3432 60.2514 44.5636 60.5187 43.8061 60.8083C43.7391 60.8304 43.6947 60.8529 43.6277 60.875C43.0708 61.1202 42.5361 61.3876 41.979 61.5882C41.4665 61.7663 40.932 61.9001 40.397 62.0115C40.2189 62.0561 40.0183 62.0115 39.818 62.0336C39.439 62.1004 39.0603 62.1896 38.6816 62.2342C37.7014 62.368 36.7209 62.457 35.7407 62.5908C35.1614 62.6576 34.6043 62.7689 34.025 62.8357C33.6241 62.8581 33.2007 62.8135 32.7996 62.8135C32.5101 62.8135 32.1981 62.8803 31.9083 62.8357C31.4406 62.7689 30.9727 62.6576 30.5048 62.5684C30.3934 62.5462 30.2374 62.5016 30.1482 62.5462C29.9701 62.6351 29.8141 62.5016 29.636 62.5462C29.5246 62.5684 29.4132 62.4794 29.3016 62.4794C29.2126 62.457 29.1013 62.5016 28.9899 62.4794C28.7447 62.4124 28.5219 62.3234 28.2546 62.3456C27.9872 62.368 27.7199 62.2342 27.4301 62.1675C27.0292 62.0783 26.6505 61.9891 26.2493 61.9001C26.0934 61.8555 25.9598 61.7887 25.8038 61.6995C25.7592 61.7217 25.6922 61.7663 25.6033 61.7663C25.2245 61.6995 24.8458 61.6774 24.4892 61.5435C24.1773 61.4322 23.8878 61.2762 23.5534 61.3208C23.4644 61.343 23.3974 61.2984 23.3085 61.2984C23.2414 61.2094 23.1747 61.031 23.1079 61.031C22.6621 61.0534 22.3948 60.6747 22.016 60.5633C21.8155 60.4963 21.6598 60.2736 21.4592 60.2068C20.9691 60.0062 20.5679 59.5829 20.011 59.5161C19.8326 59.4937 19.6545 59.4047 19.4539 59.3377C19.5207 59.4269 19.5653 59.4937 19.6321 59.5607L19.5875 59.6051C18.986 59.2488 18.3845 58.8922 17.783 58.5581C17.6938 58.5356 17.6271 58.4467 17.56 58.4021L16.9585 58.0009C16.8918 57.9563 16.758 57.8896 16.758 57.9117C16.6244 58.068 16.4906 57.9342 16.4017 57.8896C15.7999 57.4662 15.1093 57.1989 14.5299 56.731C14.285 56.5306 13.9952 56.3968 13.8171 56.1517C13.5051 55.7729 13.1264 55.5056 12.7031 55.2828C12.369 55.1047 12.057 54.9041 11.7451 54.7035C11.5891 54.5922 11.4331 54.4586 11.4331 54.2134C11.4331 54.0574 11.3663 53.9015 11.1658 53.9907C11.0765 53.8569 10.9876 53.7009 10.8762 53.6563C10.6089 53.5449 10.4305 53.3446 10.2299 53.1662C10.0296 52.988 9.8736 52.7429 9.62842 52.6539C9.18292 52.4755 8.91557 52.0968 8.64821 51.7848C8.02431 51.0495 7.46718 50.2475 6.88787 49.4676C6.84353 49.4008 6.75432 49.3562 6.68755 49.2895L6.66512 49.3119C6.77649 49.5346 6.88787 49.7352 6.9995 49.958C6.97707 49.9801 6.93247 50.0026 6.9103 50.0247C6.77649 49.8688 6.62052 49.7128 6.48697 49.5568C6.46454 49.5792 6.44237 49.6014 6.4202 49.6014L8.02431 52.1414C8.15785 52.342 8.26923 52.5423 8.40303 52.7429C8.38086 52.7653 8.35843 52.7875 8.31383 52.8096C8.06891 52.7653 7.84616 52.5869 7.73453 52.3863C7.53421 52.03 7.3112 51.8073 6.8657 51.8516C6.8211 51.6956 6.77649 51.5175 6.75432 51.3615C6.66512 51.3615 6.59835 51.3615 6.44237 51.3393C6.75432 51.8294 7.02167 52.2528 7.3112 52.7429C7.19982 52.6761 7.13305 52.6315 7.08845 52.6093C7.4896 53.0326 7.77913 53.5673 8.29166 53.8347C8.40303 54.347 8.98234 54.5921 9.11589 55.0823C9.00451 55.0601 8.91557 55.0376 8.80419 55.0155C8.62578 54.7927 8.42521 54.57 8.22488 54.3248C8.26923 54.4808 8.33626 54.6143 8.42521 54.726C8.69256 55.0601 8.93774 55.3942 9.24969 55.684C9.36106 55.7954 9.51704 55.84 9.51704 56.0403C9.56164 55.9957 9.60625 55.9735 9.69519 55.9289C9.65059 56.0181 9.62842 56.0627 9.60625 56.1295C9.69519 56.1295 9.76222 56.1517 9.829 56.1517C9.8736 56.2855 9.80657 56.486 10.0739 56.4414C10.0963 56.4414 10.1185 56.4636 10.1409 56.486C10.2523 56.7756 10.4305 56.7756 10.6757 56.6642C10.7203 56.642 10.8316 56.6642 10.8538 56.7088C10.9652 56.9537 11.1212 56.9761 11.3217 56.798C11.3217 56.9094 11.3439 57.0207 11.3439 57.1097H11.4331C11.4331 57.0653 11.4109 56.9983 11.4109 56.8869C11.5223 56.9761 11.5891 57.0207 11.6337 57.0653C11.8564 57.377 12.057 57.6668 12.369 57.9117C12.7923 58.2683 13.171 58.647 13.5719 58.9814C14.3518 59.6275 15.2206 60.1622 16.0897 60.6523C17.1591 61.2538 18.1839 61.9001 19.2758 62.4791C20.5901 63.1701 21.9939 63.6378 23.442 63.9721C23.9767 64.0835 24.4892 64.1949 25.0239 64.3284C25.4919 64.4622 25.9598 64.6628 26.4275 64.7742C27.1406 64.9302 27.8759 65.0637 28.5887 65.1975C28.7447 65.2197 28.9007 65.2421 29.0788 65.2643V65.3089C29.2794 65.3089 29.5246 65.2197 29.5692 65.2865C29.6806 65.4649 29.7695 65.3757 29.9033 65.3535C30.0593 65.3089 30.2374 65.3089 30.4156 65.3089C31.0395 65.3311 31.641 65.4649 32.2649 65.4203C32.3987 65.4203 32.5993 65.3089 32.7106 65.5317C32.7552 65.5092 32.7774 65.4871 32.822 65.4649C32.9109 65.4425 33.0226 65.4424 33.1115 65.4203V65.4649C33.0669 65.4871 33.0226 65.4871 32.9334 65.5095C33.0448 65.5317 33.1115 65.5538 33.1786 65.5762C33.134 65.6208 33.1115 65.6208 33.0669 65.643C33.0226 65.6652 32.9556 65.6876 32.8666 65.7544C33.6687 65.9104 34.4261 65.9328 35.0946 65.7544V65.6209H35.1836C35.1836 65.6652 35.206 65.7098 35.2282 65.7544C36.253 65.8436 37.2556 65.7098 38.2136 65.3757C38.3028 65.487 38.3696 65.643 38.5034 65.4203C38.548 65.3535 38.6594 65.3311 38.7483 65.3089C38.9489 65.2643 39.1941 65.1751 39.3722 65.2421C39.5728 65.3089 39.6396 65.1305 39.7956 65.1305C40.0629 65.1305 40.3081 65.1083 40.553 65.0637C40.6868 65.0415 40.8204 64.9745 40.9764 64.9302C40.9764 64.9077 40.9764 64.8856 40.9542 64.8631C40.7982 64.841 40.6201 64.8188 40.4863 64.8188C40.7536 64.685 40.9988 64.5736 41.2437 64.4622C41.2437 64.4844 41.2661 64.4844 41.2661 64.5068C41.1991 64.529 41.1548 64.6182 41.0656 64.6182H41.3775C41.3107 64.6182 41.2215 64.8188 41.1102 64.9523C41.9122 64.7518 42.6475 64.5736 43.3603 64.3955V64.3509C43.2714 64.373 43.2044 64.373 43.1376 64.3955C43.1154 63.9275 43.6277 64.0835 43.8061 63.8162C43.5831 63.8829 43.3603 63.9497 43.1376 63.9943V63.9497C43.895 63.6156 44.6749 63.2815 45.4324 62.9471C45.4324 62.9695 45.4548 62.9695 45.4548 62.9917C45.321 63.0809 45.1875 63.1477 44.9869 63.259C45.1204 63.2815 45.2096 63.2815 45.2764 63.3036C45.2764 63.3704 45.2764 63.415 45.2542 63.4374C45.633 63.415 45.5438 63.0809 45.6551 62.8803C45.7222 62.9025 45.8111 62.9471 45.8781 62.9249C46.0785 62.8803 46.2569 62.8135 46.4572 62.7468C46.6802 62.6797 46.903 62.613 47.1257 62.5238C47.4823 62.3678 47.8164 62.1675 48.1729 61.989C48.2397 61.9669 48.3511 61.989 48.4403 61.989C48.5071 61.989 48.5517 61.9445 48.5963 61.9001C48.6852 61.8331 48.7744 61.6995 48.8412 61.7217C49.1531 61.7663 49.3759 61.6549 49.4651 61.3654C49.4875 61.3654 49.4875 61.343 49.5097 61.343C49.6211 61.254 49.7324 61.1648 49.8438 61.0978C50.3342 60.8304 50.8018 60.5633 51.2922 60.2957C51.3144 60.2736 51.359 60.2957 51.4036 60.2957C51.4704 60.2957 51.5596 60.2957 51.6039 60.2736C51.8937 60.1398 52.161 59.984 52.4284 59.8281C52.3616 59.8056 52.4284 59.7835 52.2056 59.761V59.7164C52.4284 59.6721 52.4952 59.6497 52.629 59.6051L52.5844 59.5607C53.1637 58.9814 53.8989 58.5581 54.4558 58.068C54.5672 58.0901 54.6118 58.1123 54.6786 58.1123C54.701 58.0456 54.701 57.9788 54.701 57.9342C54.7899 57.8228 54.8792 57.689 54.9905 57.6001C55.4806 57.1543 56.0156 56.7756 56.4611 56.3076C57.1072 55.6616 57.7311 54.9933 58.3104 54.3026C58.8451 53.6787 59.3798 53.0548 59.8253 52.3641C60.4492 51.4061 60.9839 50.4259 61.5408 49.4233C61.9419 48.7102 62.2985 47.9973 62.6994 47.2842C62.744 47.2174 62.8332 47.1285 62.9 47.1285C63.5014 47.0614 64.1032 47.0168 64.6825 46.9501C64.816 46.9279 64.972 46.8387 65.1058 46.7719C65.0388 46.6605 64.9942 46.5267 64.9274 46.4154C64.8384 46.2816 64.7046 46.1702 64.6154 46.0366C64.5265 45.9253 64.4597 45.7915 64.3927 45.6579C64.3259 45.5465 64.2591 45.4573 64.1921 45.346C64.0586 45.1008 63.9248 44.8559 63.8134 44.5885C63.7912 44.5215 63.7466 44.4101 63.7688 44.3433C64.1699 43.4745 64.3259 42.5386 64.7046 41.6698C65.0834 40.7786 65.1947 39.7759 65.3732 38.8179C65.5291 37.9045 65.6181 36.991 65.7294 36.0773C65.7965 35.4313 65.8854 34.8074 65.9079 34.1613C66.0414 33.1365 65.9968 32.1784 65.9746 31.2204ZM9.96254 56.0849C9.80682 55.9067 9.67302 55.7062 9.51704 55.528L9.58382 55.461C9.829 55.7286 10.0742 55.9957 10.3191 56.2855C10.1855 56.2187 10.0296 56.1741 9.96254 56.0849ZM10.3191 56.2855C10.3859 56.2633 10.4529 56.2633 10.5197 56.2409C10.5864 56.3522 10.6311 56.486 10.6978 56.6196C10.3859 56.5974 10.2299 56.4636 10.3191 56.2855ZM33.4902 65.4871V65.4203C33.9136 65.3757 34.3147 65.3311 34.7381 65.2867V65.3535C34.3147 65.4203 33.9136 65.4649 33.4902 65.4871ZM39.1049 64.9077C38.7929 64.9748 38.4588 65.0191 38.1469 65.0637C38.0355 65.0862 37.9019 65.1975 37.8573 64.9969C37.8127 65.0191 37.7681 65.0191 37.7235 65.0415C37.8349 65.3757 38.1023 65.1083 38.325 65.2421C37.8349 65.3089 37.367 65.3535 36.8993 65.4203V65.3757C37.0329 65.3535 37.1888 65.3311 37.3226 65.3089V65.2421C37.0996 65.2197 36.8769 65.1975 36.6541 65.1975C36.5874 65.1975 36.4981 65.2867 36.4314 65.3089C36.3422 65.3311 36.253 65.3535 36.1416 65.3535C35.7629 65.3757 35.3841 65.3757 35.0276 65.3981C35.0054 65.3981 34.9608 65.3757 34.9386 65.3757V65.3089C36.4314 65.1083 37.9019 64.9077 39.3947 64.7074C39.4168 64.7518 39.4168 64.7964 39.439 64.841C39.3055 64.841 39.2163 64.8856 39.1049 64.9077ZM39.439 64.685C39.9515 64.6182 40.4195 64.5736 40.9096 64.5068C39.8848 64.7964 39.5507 64.841 39.439 64.685ZM20.0332 19.7016C20.7463 18.7214 21.4813 17.7409 22.1945 16.7383C22.4172 16.4488 22.5954 16.1368 22.8184 15.8473C22.8851 15.7581 22.9741 15.7135 23.0857 15.6243L23.0633 15.58C23.1525 15.4683 23.2414 15.3794 23.286 15.2902C23.3974 15.112 23.4644 14.9115 23.5534 14.7109C23.5758 14.6663 23.6426 14.6219 23.6426 14.6219C23.9545 14.7776 23.9545 14.4435 24.0659 14.3321C24.2665 14.1094 24.4671 13.8642 24.6452 13.6415C24.7788 13.4633 24.9126 13.3073 25.0239 13.1068C25.0461 13.04 24.9793 12.9286 24.9572 12.8394H24.8904C24.9572 12.7948 25.0239 12.728 25.0907 12.6834C25.1132 12.6834 25.1131 12.6834 25.1353 12.6613C25.2691 12.4607 25.4027 12.2601 25.5365 12.082C25.8038 11.7254 26.0934 11.3688 26.4053 11.0569C26.3607 11.1683 26.3161 11.2799 26.2718 11.3688C26.2939 11.3688 26.2939 11.3913 26.3161 11.3913C26.5835 11.0347 26.8732 10.7006 27.1406 10.344C27.1182 10.3219 27.096 10.2994 27.0738 10.2994C26.9624 10.4108 26.8732 10.5222 26.7619 10.6336C26.7394 10.6114 26.7173 10.5892 26.6948 10.5892C26.9178 10.2994 27.1406 10.0099 27.3633 9.67554C27.4079 9.74257 27.4525 9.83151 27.5415 10.0099C27.6307 9.78691 27.7199 9.63093 27.7867 9.47521C27.7199 9.54199 27.6307 9.60876 27.5639 9.67554L27.4969 9.60876L27.898 9.00729C28.3214 8.40555 28.7447 7.7819 29.168 7.18017C29.324 6.95742 29.5246 6.77927 29.6581 6.55652C30.0815 5.70986 30.75 5.04135 31.2622 4.26147C31.3739 4.10575 31.5296 3.97195 31.6634 3.83814C31.7748 3.7046 31.864 3.7492 31.9532 3.86057C32.5546 4.61803 33.1561 5.39791 33.7576 6.15536C34.2034 6.7125 34.6489 7.2472 35.0722 7.82625C35.5847 8.53936 36.0748 9.25221 36.5874 9.96532C37.1667 10.7895 37.746 11.614 38.3028 12.4607C39.1495 13.7082 39.9515 14.9561 40.7982 16.2036C41.4221 17.1173 42.046 18.0083 42.6475 18.922H41.5111C40.4641 18.8996 39.3947 18.8103 38.3474 18.8549C36.9215 18.922 35.4733 19.0777 34.0474 19.1891C32.2427 19.3451 30.4156 19.3675 28.6112 19.3675C27.9648 19.3675 27.3187 19.4564 26.6727 19.501C25.8928 19.5456 25.1353 19.5902 24.3554 19.6127C23.442 19.657 22.5508 19.6794 21.6373 19.7016C21.125 19.724 20.5901 19.7016 20.0332 19.7016ZM45.5884 29.9504V30.151C45.5662 30.151 45.5438 30.1732 45.4992 30.1732C45.4102 29.8612 45.321 29.5271 45.2096 29.2151C44.9869 28.5691 44.7417 27.923 44.3408 27.3437C43.8951 26.7198 43.4942 26.0737 43.0484 25.4276C42.937 25.2716 42.781 25.1378 42.6475 25.0043C42.1796 24.4918 41.7116 23.9571 41.1102 23.5783C40.2189 23.0215 39.3055 22.5535 38.325 22.1524C38.0577 22.041 37.8127 21.9075 37.5454 21.7515H38.0801L41.89 21.6847C42.7143 21.6623 43.5163 21.6623 44.3408 21.6177C44.5414 21.6177 44.6528 21.6847 44.7641 21.8629C44.9647 22.197 45.165 22.5311 45.3878 22.8655C45.4102 22.9098 45.4548 22.9769 45.4548 23.0436C45.4548 23.5337 45.4548 24.0463 45.477 24.5364C45.4994 25.0489 45.5438 25.539 45.5662 26.0515C45.5662 26.5638 45.5216 27.0985 45.5438 27.6332C45.5662 28.3909 45.5884 29.1705 45.5884 29.9504ZM21.6152 22.4868C22.6624 22.4422 23.6648 22.3751 24.6898 22.3308C25.4919 22.2862 26.3161 22.2637 27.1182 22.2194C27.4525 22.197 27.7645 22.1748 28.0986 22.2194C27.7421 22.3976 27.3858 22.5757 27.0738 22.7987C26.6727 23.0658 26.2939 23.4224 25.8928 23.7121C25.4919 24.0017 25.1353 24.3582 24.8012 24.7369C24.3779 25.2495 23.9099 25.695 23.4644 26.1851C23.1525 26.5416 22.7959 26.8758 22.5286 27.2545C22.1499 27.7448 21.8157 28.2795 21.4592 28.8364C21.5706 26.7198 21.7044 24.6256 21.6152 22.4868ZM36.164 43.92C35.4509 44.0981 34.7159 44.2987 33.9806 44.3879C33.3567 44.4771 32.7106 44.4547 32.0646 44.4547C31.4852 44.4547 30.9281 44.4325 30.3488 44.3879C29.7027 44.3212 29.0567 44.2541 28.4327 43.9646C27.898 43.7194 27.3412 43.4967 26.8065 43.2293C26.2718 42.962 25.7368 42.65 25.3359 42.1599C25.0461 41.8034 24.6452 41.5138 24.2887 41.2019C24.3554 41.4692 24.5114 41.692 24.7566 41.848C24.6452 41.9818 24.4892 41.9147 24.2665 41.5584C24.1997 41.6028 24.1327 41.6252 24.0881 41.6474C24.1551 41.4914 24.2219 41.3357 24.2887 41.2019C24.1997 41.0237 24.0881 40.8232 23.9991 40.645C23.8207 40.3552 23.6426 40.0433 23.4866 39.7537C23.442 39.6867 23.442 39.6199 23.3974 39.5532C23.286 39.4194 23.1747 39.2858 23.0857 39.152C22.9073 38.8847 22.7513 38.5951 22.5286 38.3278C22.5286 38.3946 22.5508 38.4613 22.5508 38.5505C22.5286 38.5505 22.5064 38.5727 22.5064 38.5727L22.0385 37.4365C22.0161 37.4365 22.0161 37.4365 21.9939 37.459L22.395 38.9293C22.3726 38.9293 22.3504 38.9517 22.328 38.9517C22.2612 38.8625 22.1945 38.7733 22.1499 38.6619C22.1053 38.4838 21.9717 38.4838 21.8601 38.5505C21.7933 38.5951 21.7487 38.7511 21.7711 38.8179C21.9271 39.1966 22.1053 39.5753 22.2834 39.9543C22.328 40.0879 22.3726 40.1992 22.4394 40.3331C22.4618 40.3777 22.5286 40.422 22.5286 40.489C22.6178 40.6672 22.6846 40.8453 22.7959 41.0013C22.9965 41.2687 23.2193 41.536 23.4198 41.8034C23.6204 42.0707 23.7986 42.3605 23.9767 42.6278C23.9991 42.6724 24.0659 42.6724 24.0881 42.6946C24.1997 43.0287 24.5784 43.2739 24.8458 43.1404C24.9126 43.6526 25.4694 43.8311 25.6925 44.3212C25.4251 44.2098 25.2245 44.1206 25.0461 44.0314C25.0239 44.0538 25.0239 44.076 25.0018 44.1206C25.2691 44.2541 25.5365 44.3879 25.7814 44.5439C26.0042 44.6775 26.2272 44.8113 26.4275 44.9672C26.6951 45.2122 27.0068 45.346 27.3858 45.4352C27.3633 45.3681 27.3412 45.346 27.3412 45.346C27.9648 45.6357 28.6112 45.9474 29.1013 46.1926C26.784 46.2372 24.3111 46.2818 21.7487 46.3262C21.7487 45.9028 21.7265 45.5019 21.7265 45.0786C21.7265 44.9005 21.7711 44.7445 21.7487 44.5661C21.6819 43.5413 21.6819 42.5165 21.5484 41.5138C21.4146 40.4444 21.4146 39.3972 21.437 38.3278C21.4592 37.7485 21.4146 37.147 21.3924 36.5677C21.3924 35.7878 21.3924 35.0304 21.4146 34.2505C21.4146 34.1391 21.4592 34.0499 21.5038 33.9385H21.5705C21.5927 33.9831 21.5705 34.0499 21.6152 34.0723C21.6819 34.1391 21.7933 34.2505 21.8379 34.2283C21.9717 34.1391 22.172 34.0499 22.2166 33.9164C22.328 33.649 22.3726 33.3592 22.3726 33.0919C22.3726 32.8916 22.4618 32.7577 22.5508 32.6239C22.5954 32.5572 22.6178 32.4904 22.6624 32.4012C22.5732 32.3344 22.484 32.2898 22.3726 32.2009C22.4618 31.9557 22.4394 31.6659 22.7738 31.5324C22.8184 31.5099 22.8184 31.3986 22.8405 31.3318C22.8627 31.1536 22.8851 30.9531 22.9073 30.7749C22.9519 30.8417 22.9741 30.8639 23.0187 30.9085C23.0411 30.8639 23.0633 30.8417 23.0633 30.8417C23.0633 30.7525 23.0411 30.5743 23.0633 30.5743C23.3306 30.5297 23.2193 30.2402 23.3531 30.1064C23.3752 30.0842 23.3306 30.0172 23.3306 29.9729C23.3306 29.9283 23.3306 29.8612 23.3531 29.8612C23.6648 29.7945 23.6204 29.4603 23.8207 29.3043C23.8878 29.2597 23.9099 29.193 23.9991 29.0816C24.1773 29.3936 23.8653 29.5495 23.8432 29.7723C24.2219 29.5495 24.3333 29.0148 24.1105 28.8589C24.1997 28.7918 24.2887 28.7029 24.3554 28.6137C24.6006 28.3463 24.868 28.1011 25.0907 27.8338C25.2467 27.6332 25.3359 27.3883 25.4919 27.1877C25.5811 27.0763 25.7592 26.9871 25.8928 26.9204C26.2939 26.6976 26.6727 26.4524 26.9178 26.0737C26.9624 26.0291 27.0292 25.9845 27.096 25.9402C27.1628 25.8956 27.2966 25.8956 27.3187 25.8285C27.3412 25.7842 27.2741 25.6728 27.2295 25.6058C27.3187 25.5612 27.4079 25.4722 27.5861 25.383C27.5193 25.5168 27.4971 25.6058 27.4525 25.695L27.5639 25.8063C27.7645 25.6504 28.0764 25.4722 28.2768 25.3384C28.2768 25.3162 28.1654 25.227 28.1654 25.227C28.0318 25.2941 27.8313 25.4055 27.6307 25.4944C27.6753 25.4276 27.6753 25.383 27.6975 25.3608C28.0094 25.1603 28.3214 24.9597 28.6555 24.8037C29.4354 24.4472 30.2153 24.0909 30.9949 23.7565C31.1287 23.6897 31.3068 23.7343 31.4628 23.7343C31.5296 23.7343 31.5742 23.7343 31.6412 23.7121C31.9975 23.6008 32.3541 23.4894 32.7106 23.4002C32.8666 23.3556 33.0448 23.3334 33.2007 23.3334C33.8692 23.3556 34.5375 23.3556 35.206 23.4002C35.4955 23.4224 35.7629 23.4894 36.0302 23.5783C36.3646 23.6897 36.7209 23.8457 37.0329 24.0017C37.4116 24.2022 37.7681 24.425 38.1247 24.6702C38.7708 25.0935 39.3722 25.5612 40.0183 25.9402C40.6422 26.3189 41.1323 26.8312 41.5335 27.4105C42.0236 28.1011 42.5807 28.725 42.8035 29.5717L43.1376 31.0423C43.2044 31.3096 43.3603 31.577 43.2936 31.8889C43.1822 32.4458 43.093 33.0251 43.0041 33.5822C42.9594 33.805 42.9148 34.0277 42.937 34.2505C42.9816 34.9412 42.7143 35.5426 42.4469 36.1665C42.3577 36.3671 42.2242 36.5677 42.1128 36.7905C42.135 36.8126 42.2688 36.8797 42.2909 36.8797L42.4915 36.4785C42.5137 36.4785 42.5137 36.4785 42.5361 36.5009C42.4247 36.8126 42.3355 37.147 42.2242 37.459C41.9568 38.1496 41.6895 38.8625 41.3553 39.531C41.1769 39.9097 40.865 40.2217 40.6422 40.578C40.4195 40.8899 40.2413 41.2241 40.0183 41.5138C39.818 41.759 39.6174 42.0039 39.3501 42.1823C38.7483 42.6278 38.1247 43.0733 37.4786 43.4299C37.0775 43.6751 36.6095 43.8086 36.164 43.92ZM24.2887 42.7392L24.2665 42.7614C24.2219 42.7392 24.1551 42.7168 24.1105 42.6724L23.5758 41.8704C23.5312 41.8034 23.509 41.7366 23.5312 41.6474C23.7761 42.0261 24.0213 42.3827 24.2887 42.7392ZM38.1469 45.7915C39.1495 45.3681 39.974 44.7667 40.7314 44.076C40.8428 43.9646 40.9542 43.8532 41.088 43.764C42.0236 43.1847 42.7143 42.3827 43.3382 41.4914C44.051 40.4666 44.519 39.308 45.0983 38.2164C45.1429 38.1272 45.1875 38.038 45.2321 37.9712C45.1875 40.5112 45.477 43.0066 45.8111 45.5241C43.2936 45.6133 40.7314 45.7025 38.1469 45.7915ZM60.739 45.1232C60.7165 45.1678 60.6719 45.2122 60.6498 45.2568C60.6273 45.2122 60.6273 45.1454 60.6052 45.0564C60.4714 45.4127 60.1818 45.2346 59.9813 45.2346C58.7783 45.2568 57.5529 45.2568 56.3497 45.2568C55.1911 45.2568 54.0103 45.2568 52.8517 45.2792C52.473 45.2792 52.0718 45.3681 51.6931 45.3906C50.7797 45.4352 49.8662 45.4573 48.9528 45.4795C48.8858 45.4795 48.819 45.3681 48.7076 45.2792C48.6855 45.3238 48.6409 45.3906 48.5738 45.4795C48.5517 45.4352 48.5071 45.3906 48.4625 45.3238C48.4403 45.3906 48.4179 45.4573 48.3957 45.5019H48.3289C48.2843 45.19 48.1951 44.9005 48.1951 44.5885C48.1951 43.92 48.2619 43.2518 48.2843 42.5832C48.3065 42.2713 48.2843 41.9818 48.2843 41.692C48.3735 41.759 48.4403 41.8034 48.5295 41.8704C48.5738 41.7812 48.6184 41.7144 48.663 41.6474C48.663 41.6474 48.6184 41.6252 48.5738 41.5806C48.6184 41.5584 48.663 41.5138 48.663 41.4917C48.6855 41.4246 48.7298 41.3579 48.7298 41.3133C48.7298 41.1573 48.6855 41.0237 48.663 40.8899C48.6855 40.8899 48.7076 40.8899 48.7298 40.8678L48.8636 41.536H48.9304C48.8414 41.38 49.131 41.2465 48.8858 41.0681C48.8636 41.0459 48.9082 40.9121 48.9082 40.8453C48.8414 40.7118 48.7968 40.578 48.7298 40.3998C48.7522 40.3777 48.819 40.3552 48.8858 40.3331C48.7968 40.2885 48.7298 40.2439 48.663 40.2214C48.8858 40.0211 48.8858 39.9097 48.6855 39.6867C48.7298 39.6645 48.7744 39.6645 48.7744 39.6424C48.7744 39.4418 48.7744 39.2412 48.7298 39.0406C48.6855 38.8179 48.7968 38.5505 48.4625 38.417C48.4849 38.4838 48.5071 38.5284 48.5517 38.5951C48.5517 38.5951 48.4849 38.6173 48.4179 38.6619C48.1283 38.3946 48.3065 38.038 48.2397 37.6371C48.3957 37.6817 48.5071 37.7263 48.6184 37.7707C48.5738 37.6149 48.4625 37.4365 48.3957 37.236H48.3065V35.7656C48.3065 35.7878 48.4625 35.7878 48.5517 35.81C48.5517 35.7878 48.5738 35.7656 48.5738 35.7432C48.5071 35.654 48.4179 35.5651 48.3289 35.4537L48.3735 35.4091C48.1951 35.1863 48.2843 34.8744 48.2843 34.8076V33.2479C48.5071 33.4706 48.1729 33.7604 48.5071 33.8939V33.6712H48.4849C48.4625 33.3371 48.4625 33.0029 48.4403 32.6685H48.3957C48.3735 32.7131 48.3735 32.7356 48.3511 32.7799H48.3065C48.3511 31.0198 48.3957 29.2597 48.4403 27.4551C48.663 27.7448 48.9082 28.0122 49.0642 28.3017C49.5765 29.2376 50.245 30.0396 50.8689 30.8863C51.4036 31.6216 51.8937 32.4236 52.3838 33.1811C52.9853 34.0945 53.5646 35.0079 54.1663 35.9216C54.6118 36.6123 55.0797 37.303 55.5477 37.9712C55.971 38.5727 56.4165 39.152 56.8622 39.7313C57.241 40.2439 57.6419 40.7564 58.0206 41.2687C58.4664 41.8926 58.9119 42.5165 59.3576 43.1179C59.5804 43.4299 59.8253 43.7419 60.0705 44.0538C60.204 44.232 60.4046 44.3658 60.5384 44.4771C60.516 44.4771 60.4938 44.4771 60.4492 44.4547C60.516 44.5439 60.5606 44.6107 60.6052 44.6553C60.8503 44.7888 60.8725 44.9226 60.739 45.1232ZM61.8751 39.5532V39.3972C61.8751 39.4418 61.8973 39.5086 61.8751 39.5532ZM62.6326 29.7277C62.6104 29.7277 62.4766 29.5939 62.4545 29.5717C62.432 29.6385 62.4545 29.7052 62.4099 29.7945C62.3877 29.7277 62.2317 29.7499 62.2317 29.6831C62.2093 29.995 62.3653 30.307 62.3431 30.6189C62.4099 30.5743 62.6772 30.5519 62.744 30.4851C62.7664 30.5076 62.8108 30.5297 62.8332 30.5297C62.3877 30.8639 62.4991 31.1982 62.6994 31.577C62.744 31.6659 62.8778 31.8443 62.744 32.0225C62.6994 32.0671 62.7664 32.2009 62.7886 32.3122H62.8554V32.3566L62.655 32.4236C62.6104 32.3566 62.3431 32.223 62.3431 32.1117V33.2479C62.5658 33.3146 62.5658 33.6266 62.655 33.7826C62.6994 33.7158 62.7218 33.6712 62.744 33.6044L62.7664 33.6266C62.744 33.7604 62.7218 33.8939 62.6772 34.0277C62.6326 34.2283 62.588 34.4065 62.5658 34.607C62.5658 34.6292 62.6104 34.6738 62.6104 34.696C62.3653 35.2531 62.4991 35.877 62.4099 36.4563C62.3431 36.8797 62.4099 37.3252 62.3652 37.7707C62.3206 38.1496 62.2317 38.5505 62.1425 38.9293C62.1203 38.996 62.0757 39.0185 61.9644 39.0631C62.0087 38.7957 61.9865 38.6173 61.9419 38.3724C61.9198 38.3724 61.63 38.2164 61.6078 38.2164C61.6078 38.5284 61.7859 38.9517 61.853 39.308C61.7859 39.2858 61.5186 39.1298 61.4964 39.1298C61.4518 39.3972 61.4518 39.7537 61.4296 40.0433C61.4072 40.266 61.2066 40.4666 61.1845 40.7118C61.1845 40.8453 61.3404 40.9345 61.318 41.1573H61.4964C61.4964 40.7118 61.697 40.3106 61.697 39.8427H61.7638C61.7859 39.8873 61.853 39.9319 61.8306 39.9543C61.7859 40.1992 61.697 40.4666 61.7192 40.7118C61.7192 40.8453 61.8306 40.9791 61.7859 41.1351C61.7413 41.2687 61.7192 41.4025 61.697 41.6028C61.6746 41.4914 61.6524 41.4471 61.6524 41.38C61.63 41.38 61.4297 41.3579 61.4072 41.3579C61.3851 41.4914 61.5632 41.6252 61.541 41.7366C61.5186 41.759 61.4964 41.759 61.4518 41.7812L60.7165 40.7118C60.1372 39.8651 59.5579 39.0185 58.9786 38.1496C58.8227 37.9266 58.6891 37.7039 58.5777 37.4811C57.8871 36.3004 57.1296 35.1639 56.2829 34.0723C55.6366 33.2479 55.1243 32.3566 54.5226 31.4878C53.9657 30.6635 53.4086 29.8612 52.8517 29.037C52.6511 28.7696 52.4062 28.5245 52.2278 28.2349C51.6485 27.3215 51.1362 26.3857 50.5569 25.4722C50.0668 24.7145 49.5319 23.9795 49.0196 23.2442C48.8414 22.999 48.663 22.7317 48.4849 22.4643C48.4625 22.4197 48.4403 22.3751 48.4403 22.3083C48.3957 21.8182 48.3511 21.3281 48.3289 20.8602C48.3289 20.4145 48.3735 19.969 48.3735 19.501V19.1001C48.3735 18.9888 48.3957 18.8996 48.3957 18.7882C48.4179 18.7657 48.4403 18.7214 48.4625 18.699C47.8164 18.699 47.1481 18.6768 46.5018 18.699C46.0787 18.7214 45.8557 18.543 45.5662 18.2313C44.7195 17.273 44.0956 16.1814 43.3603 15.1566C42.6697 14.1762 41.9568 13.2181 41.2437 12.2601C40.6647 11.4802 40.0854 10.7228 39.506 9.94289C38.86 9.05189 38.2361 8.16063 37.5676 7.26937C36.7655 6.19996 35.9413 5.13056 35.1168 4.06115C34.7381 3.57079 34.3147 3.10312 33.8914 2.59059C34.1809 2.63519 34.4483 2.67979 34.7159 2.70196L35.7853 2.76874C36.5874 2.83577 37.3894 2.88011 38.1915 2.99149C38.86 3.08069 39.5282 3.2145 40.2189 3.32587C41.6895 3.57079 43.1376 3.97195 44.5414 4.43988C45.3656 4.70723 46.1677 5.06378 46.9697 5.39791C48.7744 6.13319 50.4902 7.02419 52.1832 7.96005C52.7182 8.24957 53.0299 8.7175 53.431 9.14083C54.0103 9.74257 54.5896 10.344 55.1465 10.9679C55.7926 11.7032 56.3943 12.4607 57.018 13.2181C57.5751 13.8866 58.1544 14.5549 58.7113 15.2234C58.8897 15.424 59.0232 15.6689 59.1792 15.8917C59.5358 16.4264 59.9367 16.9389 60.2486 17.5182C60.4716 17.9415 60.6052 18.4316 60.7611 18.8996C60.9839 19.5902 61.2066 20.2587 61.4296 20.9494C61.5854 21.4617 61.7192 21.9964 61.8306 22.5311C61.9198 22.8877 61.8973 23.2664 62.0087 23.6229C62.1425 24.0909 62.0087 24.6031 62.1425 25.0711C62.1647 25.1157 62.1871 25.1824 62.2093 25.227C62.2985 25.3162 62.3653 25.4052 62.2317 25.539C62.2093 25.5612 62.2093 25.6504 62.2317 25.7171C62.2761 25.6728 62.2985 25.6282 62.3431 25.5612C62.3431 25.6058 62.3652 25.6282 62.3652 25.6504C62.3652 25.7396 62.3431 25.8285 62.3652 25.9177C62.3652 25.9623 62.4099 26.0291 62.432 26.0737C62.4766 26.0291 62.5212 26.0069 62.6104 25.9402C62.8108 26.6976 62.8332 27.4551 62.8332 28.2349C62.8332 28.9702 62.9667 29.7052 62.655 30.4184C62.7218 30.1732 62.5658 29.9504 62.6326 29.7277Z" fill="#DD3735"/>
<path d="M48.469 38.4647C48.4912 38.4647 48.5136 38.4871 48.5136 38.4871L48.4912 38.4647C48.4912 38.4425 48.4912 38.4425 48.469 38.4647ZM51.9892 60.4775C51.7443 60.6556 51.4991 60.8116 51.1872 60.8784C51.165 60.8562 51.165 60.8338 51.1426 60.8116C51.3877 60.6556 51.6551 60.4997 51.9003 60.3437C51.9224 60.3883 51.967 60.4329 51.9892 60.4775ZM10.2143 30.2879C10.4592 29.9759 10.7044 29.664 10.9718 29.3523C10.9939 29.3745 11.1723 29.4191 11.1945 29.4412C10.9496 29.7532 10.6152 30.1765 10.3703 30.5106C10.3257 30.4663 10.2589 30.3103 10.2143 30.2879ZM3.88682 41.2052C3.70841 40.8265 3.53026 40.4253 3.35211 40.0466C3.37428 40.0244 3.53026 39.9574 3.55243 39.9574C3.79761 40.314 3.90899 40.7373 4.08714 41.116C4.08714 41.116 3.90899 41.2052 3.88682 41.2052ZM9.56823 30.5106C9.43442 30.7112 9.30088 30.934 9.16707 31.1346C9.1449 31.1124 8.89972 31.2238 8.87755 31.2013C9.0111 31.001 9.34522 30.6445 9.47903 30.4439C9.5012 30.4663 9.52363 30.4885 9.56823 30.5106ZM49.6052 61.3909C49.6277 61.3909 49.6277 61.3685 49.6498 61.3685C49.8058 61.3909 49.9842 61.4131 50.1624 61.4131C49.8726 61.6137 49.6944 61.5915 49.6052 61.3909ZM9.61257 31.4465C9.635 31.3797 9.6796 31.3127 9.72395 31.2459C9.76855 31.2459 9.83558 31.2238 9.83558 31.2238C9.92453 31.0678 9.92453 30.9564 10.0137 30.8226C9.99156 30.8004 9.96913 30.8004 9.94696 30.778C9.81315 30.8672 9.6796 30.9786 9.5458 31.0678C9.5904 31.1124 9.5904 31.1346 9.5904 31.1792C9.41225 31.157 9.34522 31.2459 9.25628 31.4911C9.23385 31.5579 9.12247 31.5801 9.0111 31.6693C8.98892 31.7139 8.96649 31.8252 8.92189 31.9366L8.94432 31.959C8.89972 32.0034 8.83295 32.0258 8.83295 32.0258C8.69914 32.1594 8.54317 32.271 8.40962 32.4045C8.38719 32.4713 8.36502 32.5383 8.36502 32.6051C8.52099 32.4491 8.78835 32.1594 8.98892 31.9812L9.0111 32.0034C9.1003 31.8698 9.16707 31.736 9.25628 31.6025C9.27845 31.6247 9.27845 31.6471 9.30088 31.6693C9.23385 31.8474 9.16707 32.048 9.1003 32.2264C9.0557 32.2486 8.98892 32.2932 8.98892 32.271C8.89972 32.3378 8.83295 32.4267 8.74375 32.4937L8.34285 32.7611C8.11984 32.9617 7.89709 33.1398 7.65217 33.3404C7.49619 33.5853 7.34021 33.8081 7.16181 34.0979C7.42916 34.0311 7.49619 34.1425 7.47376 34.3652C7.78571 34.4098 7.80789 34.1646 7.89709 33.9865C7.91952 33.9419 7.94169 33.8527 7.98629 33.8305C8.18687 33.6524 8.40962 33.4964 8.63237 33.318C8.67697 33.2734 8.67697 33.1844 8.67697 33.1174C8.67697 33.0952 8.5656 33.0952 8.49882 33.073C8.69914 32.85 8.98892 32.4713 9.1895 32.2264C9.30088 32.1594 9.41225 32.0704 9.41225 32.0034C9.38982 31.7585 9.5458 31.6917 9.72395 31.6025C9.635 31.5357 9.61257 31.4687 9.61257 31.4465Z" fill="#DD3735"/>
<path d="M10.0583 31.2015C9.96911 31.3575 9.88016 31.4913 9.79096 31.6473L9.65715 31.5802C9.56821 32.0928 9.25626 32.5385 8.9443 32.6275C9.03351 32.6721 9.12245 32.7167 9.18948 32.6942C9.25626 32.6721 9.30086 32.5607 9.3452 32.4939L9.94693 31.6248L10.1475 31.2907L10.0583 31.2015ZM2.63898 40.9824C2.75036 40.9824 2.86173 41.0048 2.99554 41.0048C2.99554 40.9156 3.10691 40.938 3.10691 40.8488H3.17368C3.17368 40.9602 3.19611 41.0494 3.19611 41.1608H2.72818C2.70575 41.1384 2.61681 41.0048 2.63898 40.9824ZM2.46083 39.9576C2.39406 39.8908 2.28243 39.824 2.28243 39.757C2.26025 39.6681 2.32703 39.5567 2.39406 39.4453C2.4384 39.601 2.46083 39.7348 2.50543 39.8908C2.483 39.913 2.46083 39.9354 2.46083 39.9576ZM3.01771 38.5316C3.10691 38.7546 3.19611 38.9995 3.28506 39.2223C3.26289 39.2223 3.12908 39.2893 3.10691 39.3115C3.01771 39.0888 2.90633 38.8436 2.81739 38.6208C2.83956 38.5987 2.97311 38.5316 3.01771 38.5316ZM52.6131 59.8316C52.7245 59.787 52.8583 59.7645 53.0364 59.7199C52.8358 59.8759 52.6799 59.9873 52.5463 60.1211C52.5239 60.0987 52.5017 60.0765 52.4796 60.0765C52.5239 59.9873 52.5685 59.9205 52.6131 59.8313V59.8316ZM25.2311 12.7537C25.3646 12.6645 25.476 12.5977 25.6098 12.5085L25.6544 12.5531C25.5206 12.7316 25.4092 12.9097 25.2533 13.1325C25.2311 12.9765 25.2311 12.8873 25.2087 12.7759C25.1865 12.7759 25.2087 12.7759 25.2311 12.7537ZM31.7589 24.0273C31.9595 23.9384 32.1601 23.8492 32.4052 23.7378C32.3828 23.8714 32.3828 23.9606 32.3828 24.0498C32.316 24.0273 32.2268 24.0052 32.1601 24.0052C32.0265 24.0273 31.7813 24.2058 31.67 24.2279C31.6475 24.2279 31.7589 24.0498 31.7589 24.0273ZM48.469 42.9209C48.5136 43.1436 48.937 43.255 48.5136 43.4778C48.5804 43.5224 48.6472 43.5448 48.7142 43.5894C48.7142 43.6116 48.6918 43.6562 48.6696 43.6783C48.625 43.7008 48.5358 43.7454 48.4912 43.7229C48.469 43.7229 48.4244 43.6337 48.4244 43.5894C48.4244 43.3888 48.4468 43.1882 48.469 42.9209Z" fill="#DD3735"/>
</svg>
