<svg width="94" height="28" viewBox="0 0 94 28" fill="none" xmlns="http://www.w3.org/2000/svg">
<path fill-rule="evenodd" clip-rule="evenodd" d="M19.4152 5.53377C19.5048 5.53377 19.6241 5.59461 19.6391 5.7315C19.6441 5.7773 19.9564 7.93591 20.3693 10.7896C21.1906 16.4657 22.4098 24.8916 22.3999 24.9118L14.5204 26.6458L0 23.8775C0 23.8775 1.86541 9.16906 1.94003 8.6519C2.02957 7.96743 2.04449 7.95222 2.76081 7.72407C2.81742 7.69934 3.1107 7.60761 3.57176 7.46339L3.57196 7.46333L3.572 7.46332C3.96169 7.34143 4.47122 7.18205 5.059 6.99397C5.55147 4.86451 7.13334 0.681641 10.4165 0.681641C10.8343 0.681641 11.3417 0.925007 11.7297 1.44216H11.864C13.2817 1.44216 14.0727 2.67421 14.5353 4.02793C14.9979 3.87583 15.2815 3.78457 15.2964 3.78457C15.4158 3.75415 15.6993 3.70852 15.8485 3.86062C16.0127 3.99751 17.3707 5.38166 17.3707 5.38166C17.3707 5.38166 19.3257 5.53377 19.4152 5.53377ZM12.5057 4.63637C12.9385 4.48427 13.3713 4.34738 13.7295 4.2409C13.4161 3.26744 12.9534 2.43086 12.2073 2.3396C12.4013 2.87196 12.5057 3.54122 12.5057 4.36259V4.63637ZM11.2961 2.50684C11.4901 3.02399 11.6244 3.75409 11.6244 4.75798V4.91008C11.3018 5.01358 10.9721 5.11708 10.6361 5.22253L10.636 5.22257C10.1327 5.38056 9.61543 5.54293 9.08741 5.71624C9.57988 3.79972 10.5201 2.85668 11.2961 2.50684ZM10.7592 1.71607C10.6398 1.62481 10.4906 1.56396 10.3414 1.56396C7.98349 1.56396 6.64039 4.72773 6.10315 6.67467C6.44773 6.56032 6.80092 6.45036 7.16271 6.33772C7.47468 6.24059 7.79304 6.14147 8.1178 6.03583C8.58042 3.48048 9.69967 2.21801 10.7592 1.71607Z" fill="#95BF47"/>
<path d="M20.1951 5.98723C20.1034 5.98723 18.1027 5.83861 18.1027 5.83861C18.1027 5.83861 16.7129 4.48612 16.5449 4.35236C16.4838 4.29291 16.4074 4.26318 16.3464 4.26318L15.2314 26.6461L23.2954 24.9518C23.2954 24.9518 20.47 6.34393 20.4547 6.21017C20.3936 6.07641 20.2867 6.01696 20.1951 5.98723Z" fill="#5E8E3E"/>
<path d="M12.543 10.0233L11.5245 13.0197C11.5245 13.0197 10.6014 12.5384 9.50329 12.5384C7.86407 12.5384 7.7845 13.5476 7.7845 13.796C7.7845 15.1622 11.4449 15.69 11.4449 18.9038C11.4449 21.4344 9.80567 23.0645 7.59352 23.0645C4.91985 23.0645 3.58301 21.4499 3.58301 21.4499L4.29917 19.1522C4.29917 19.1522 5.69967 20.3321 6.87736 20.3321C7.65718 20.3321 7.97548 19.7421 7.97548 19.3074C7.97548 17.522 4.9835 17.4444 4.9835 14.4946C4.9835 12.0261 6.79779 9.6352 10.4741 9.6352C11.8428 9.61968 12.543 10.0233 12.543 10.0233Z" fill="white"/>
<path fill-rule="evenodd" clip-rule="evenodd" d="M82.3409 11.204H80.1606L80.2666 10.6844C80.4482 9.59932 81.0842 8.65179 82.1441 8.65179C82.7043 8.65179 83.1434 8.8199 83.1434 8.8199L83.7491 6.3288C83.7491 6.3288 83.2191 6.05371 82.0381 6.05371C80.9328 6.05371 79.8123 6.37465 78.9644 7.10822C77.8894 8.02519 77.3897 9.35479 77.1474 10.6997L77.0566 11.2193H75.5879L75.1185 13.6187H76.5872L74.9217 22.4827H78.0559L79.7215 13.6187H81.8867L82.3409 11.204ZM40.4756 12.6564C41.3084 11.6477 42.3986 10.9753 43.7916 10.9753C45.442 10.9753 46.3656 12.0451 46.3808 13.8637C46.3808 14.4292 46.2899 15.2544 46.1536 15.9422L44.9272 22.4832H41.7929L42.9739 16.1409C43.0799 15.7129 43.1102 15.1628 43.1102 14.7348C43.1102 14.0471 42.8377 13.5581 42.126 13.5581C41.1267 13.5581 40.0517 14.8571 39.6429 16.9508L38.5981 22.4832H35.4638L38.5224 6.28345H41.6567L40.4453 12.6411L40.4756 12.6564ZM31.3456 14.3981C31.3456 14.9024 31.7544 15.2845 32.5569 15.7124C33.7834 16.4307 34.7978 17.3782 34.8281 18.7537C34.8281 21.2753 32.784 22.6813 29.9677 22.6813C28.0296 22.6813 26.8789 21.9019 26.8789 21.9019L27.6511 19.6554C27.6511 19.6554 28.9078 20.3431 30.2251 20.3431C31.1185 20.3431 31.603 19.854 31.603 19.258C31.603 18.6773 31.2699 18.2799 30.3009 17.745C29.1198 17.0573 28.2265 16.0945 28.2265 14.826C28.2265 12.5947 30.1343 11.0053 32.8749 11.0053C34.8433 11.0053 35.5095 11.5249 35.5095 11.5249L34.7827 13.7715C34.7827 13.7715 33.8591 13.3436 32.8143 13.3436C31.921 13.3436 31.3456 13.7562 31.3456 14.3981ZM53.467 10.9749C49.6817 10.9749 47.1833 14.4135 47.1833 18.2495C47.1833 20.6947 48.6823 22.6815 51.4986 22.6815C55.2083 22.6815 57.7066 19.3345 57.7066 15.4069C57.7217 13.1297 56.4196 10.9749 53.467 10.9749ZM50.4086 18.1882C50.4086 19.3496 50.8477 20.2666 51.9227 20.2666C53.5731 20.2666 54.527 17.2712 54.527 15.3303C54.527 14.398 54.1485 13.4199 53.0432 13.4199C51.3322 13.4199 50.4086 16.3695 50.4086 18.1882ZM65.7473 10.9749C63.6275 10.9749 62.4313 12.8699 62.4313 12.8699H62.4011L62.5828 11.1735H59.7967C59.6605 12.3197 59.4031 14.0773 59.1608 15.3763L56.9956 26.9759H60.1299L61.0081 22.2841H61.0838C61.0838 22.2841 61.7348 22.6968 62.9159 22.6968C66.6104 22.6968 69.0178 18.8761 69.0178 15.0248C69.0027 12.8852 68.0488 10.9749 65.7473 10.9749ZM61.4471 19.8235C61.4471 19.8235 61.9316 20.2973 62.7493 20.2973C64.5057 20.2973 65.717 17.3783 65.7018 15.3304C65.7018 14.4898 65.4141 13.5881 64.4451 13.5881C63.3549 13.5881 62.3253 14.8872 61.9619 16.8739L61.4471 19.8235ZM73.4836 6.43652C72.4843 6.43652 71.6818 7.24651 71.6818 8.27046C71.6818 9.20271 72.2723 9.85987 73.1656 9.85987H73.1959C74.1801 9.85987 75.0129 9.18743 75.028 8.02593C75.0432 7.09368 74.4224 6.43652 73.4836 6.43652ZM72.2279 22.4674H69.0936L71.1983 11.2192H74.3477L72.2279 22.4674ZM87.0664 18.9525C87.9294 16.2169 89.8978 11.2194 89.8978 11.2194V11.2041H93.1835L89.3527 19.5332C87.99 22.3758 86.6575 24.4696 85.2342 25.8145C84.1289 26.869 82.7965 27.4039 82.1606 27.5414L81.2824 24.8516C81.8123 24.6682 82.4785 24.3779 83.069 23.95C83.7958 23.4456 84.4166 22.7579 84.78 22.0396C84.8709 21.8868 84.886 21.7492 84.8557 21.52L82.963 11.2194H86.2639C86.2639 11.2194 86.9755 18.0661 87.0361 18.9525H87.0664Z" fill="black"/>
</svg>
