<svg width="42" height="61" viewBox="0 0 42 61" fill="none" xmlns="http://www.w3.org/2000/svg">
<path fill-rule="evenodd" clip-rule="evenodd" d="M16.7339 17.9244C16.7339 15.3449 18.8504 14.3528 22.3559 14.3528C27.3827 14.3528 33.7323 15.874 38.7591 18.5858V3.04252C33.2693 0.859842 27.8457 0 22.3559 0C8.92914 0 0 7.01102 0 18.7181C0 36.9732 25.1339 34.063 25.1339 41.9339C25.1339 44.9764 22.4882 45.9685 18.7843 45.9685C13.2945 45.9685 6.28346 43.7197 0.727558 40.6772V56.4189C6.87874 59.0646 13.0961 60.189 18.7843 60.189C32.5417 60.189 42 53.3764 42 41.537C41.9339 21.8268 16.7339 25.3323 16.7339 17.9244Z" fill="#635BFF"/>
</svg>
