<svg width="129" height="24" viewBox="0 0 129 24" fill="none" xmlns="http://www.w3.org/2000/svg">
<mask id="mask0" mask-type="alpha" maskUnits="userSpaceOnUse" x="11" y="0" width="11" height="24">
<path fill-rule="evenodd" clip-rule="evenodd" d="M21.6806 6.16875L11.6006 0.438721V23.9856L15.6326 21.6577V15.0324L18.679 16.7783L18.6342 12.2569L15.6326 10.511V7.86985L21.6806 11.4064V6.16875Z" fill="white"/>
</mask>
<g mask="url(#mask0)">
<path d="M-0.317383 0.349121H24.4122V24.0303H-0.317383V0.349121Z" fill="url(#paint0_linear)"/>
</g>
<mask id="mask1" mask-type="alpha" maskUnits="userSpaceOnUse" x="0" y="0" width="11" height="24">
<path fill-rule="evenodd" clip-rule="evenodd" d="M0.624023 6.16875L10.704 0.438721V23.9856L6.67202 21.6577V7.86985L0.624023 11.4064V6.16875Z" fill="white"/>
</mask>
<g mask="url(#mask1)">
<path d="M-0.450195 0.349121H24.2794V24.0303H-0.450195V0.349121Z" fill="url(#paint1_linear)"/>
</g>
<path d="M39.9141 7.73541H35.4341V20.1356H32.9253V7.73541H28.4453V5.72095H39.9141V7.73541Z" fill="#425066"/>
<path fill-rule="evenodd" clip-rule="evenodd" d="M101.469 20.1359H99.0501V5.67651H101.469V20.1359ZM90.8511 14.0029H96.6751V12.0332H90.8511V7.73565H97.5263V5.72119H88.3423V20.1358H90.8511V14.0029ZM39.1963 18.8825C40.1371 19.8226 41.3915 20.315 42.9147 20.315C43.7659 20.3598 44.5723 20.1807 45.3787 19.7331C46.0507 19.4197 46.6331 18.8825 47.0811 18.2558L45.7819 17.0024C45.1547 17.8529 44.1691 18.3901 43.0939 18.3453C42.3323 18.3901 41.6603 18.1215 41.1227 17.5843C40.5851 17.0024 40.2715 16.2861 40.2267 15.4803H47.2603V14.4955C47.2603 12.7944 46.8571 11.4962 46.0507 10.5561C45.2443 9.61599 44.1243 9.16833 42.6459 9.16833C41.7499 9.16833 40.8987 9.39216 40.1371 9.88458C39.3755 10.377 38.7931 11.0485 38.3899 11.8543C37.9419 12.7496 37.7627 13.7344 37.7627 14.7193V15.0327C37.7627 16.6442 38.2555 17.9424 39.1963 18.8825ZM41.0337 11.8092C41.4369 11.3615 42.0193 11.0929 42.6465 11.1377C43.2289 11.0929 43.8113 11.3615 44.2593 11.7196C44.6177 12.1225 44.8417 12.7493 44.8865 13.5551V13.7341H40.2721C40.3169 13.0179 40.5857 12.3464 41.0337 11.8092ZM51.338 9.39186L51.4276 10.6453C52.1892 9.70522 53.354 9.16803 54.5636 9.2128C56.8036 9.2128 57.9236 10.511 57.9684 13.0627V20.1357H55.5492V13.197C55.5492 12.5255 55.4148 12.033 55.1012 11.6749C54.7876 11.3616 54.3396 11.1825 53.6676 11.1825C52.7268 11.1377 51.8756 11.6749 51.4724 12.4807V20.0909H49.0532V9.3471L51.338 9.39186ZM65.2257 16.2414C65.5841 16.4652 65.7633 16.8233 65.7633 17.2262C65.7633 17.5843 65.5841 17.9425 65.1361 18.1215C64.8225 18.3454 64.3297 18.4797 63.7025 18.4797C63.1649 18.5244 62.5825 18.3454 62.1345 18.032C61.7313 17.7186 61.5073 17.2262 61.5073 16.7338H59.1777C59.1777 17.3605 59.4017 17.9872 59.7601 18.5244C60.1633 19.1064 60.7457 19.554 61.3729 19.8226C62.0897 20.1808 62.8961 20.3151 63.7025 20.3151C65.0017 20.3151 66.0321 20.0017 66.8385 19.4198C67.6001 18.8826 68.0481 18.032 68.0481 17.0919C68.0481 16.5547 67.9137 16.0623 67.6449 15.6147C67.3313 15.167 66.9281 14.8089 66.4353 14.585C65.7185 14.2269 64.9569 13.9583 64.1953 13.824C63.2545 13.6002 62.6273 13.4211 62.3137 13.1973C62.0449 13.0182 61.8657 12.7049 61.8657 12.3467C61.8657 11.9439 62.0449 11.5857 62.3585 11.3619C62.7617 11.0933 63.2097 11.0038 63.6577 11.0038C64.1953 10.959 64.6433 11.1381 65.0465 11.4514C65.4049 11.7648 65.5841 12.1677 65.5841 12.6153H68.0033C68.0481 11.6753 67.6001 10.7352 66.8385 10.1532C66.0769 9.5265 65.0465 9.21313 63.7473 9.21313C62.5825 9.21313 61.5521 9.5265 60.7905 10.1532C60.0737 10.6904 59.6257 11.5857 59.6257 12.481C59.6257 13.5554 60.2081 14.406 61.4177 14.9879C62.0897 15.3013 62.7617 15.5251 63.4785 15.6594C64.0609 15.749 64.6881 15.928 65.2257 16.2414ZM69.3918 14.6744C69.3918 13.6896 69.571 12.7047 70.019 11.8542C70.4222 11.0484 71.0046 10.3769 71.7662 9.92926C72.5726 9.48161 73.4686 9.21301 74.3646 9.25778C75.7982 9.25778 77.0078 9.70543 77.9038 10.6455C78.7998 11.5856 79.2926 12.7943 79.3822 14.3611V14.943C79.3822 15.9279 79.203 16.868 78.755 17.7633C78.3966 18.5691 77.7694 19.2406 77.0078 19.6882C76.2014 20.1359 75.3054 20.4045 74.3646 20.3597C72.8414 20.3597 71.6318 19.8673 70.7358 18.8377C69.8398 17.8528 69.3918 16.5098 69.347 14.8087L69.3918 14.6744ZM72.4384 17.4945C71.9904 16.8678 71.7664 16.0172 71.7664 14.8981C71.7664 13.6446 72.0352 12.7046 72.3936 12.0778C72.528 11.9435 72.7072 11.7645 72.8864 11.6302C73.9616 10.8692 75.44 11.093 76.2016 12.1226C76.6944 12.7941 76.9184 13.6446 76.9184 14.719C76.9184 15.9277 76.6944 16.8678 76.2464 17.4945C76.112 17.6736 75.9776 17.8079 75.7984 17.9422C74.7232 18.748 73.2448 18.5241 72.4384 17.4945ZM86.5942 11.6305C86.2806 11.5857 85.9222 11.541 85.6086 11.541C84.4886 11.541 83.7718 11.9439 83.3686 12.7944V20.136H80.9494V9.3922H83.2342L83.279 10.6009C83.8614 9.66079 84.6678 9.21313 85.6982 9.21313C85.967 9.21313 86.2806 9.2579 86.5494 9.34743L86.5942 11.6305ZM103.843 11.8542C103.395 12.7047 103.216 13.6896 103.216 14.6744V14.8087C103.216 16.5098 103.709 17.8528 104.605 18.8377C105.501 19.8673 106.71 20.3597 108.233 20.3597C109.174 20.4045 110.07 20.1359 110.877 19.6882C111.638 19.2406 112.265 18.5691 112.624 17.7633C113.027 16.868 113.206 15.9279 113.206 14.943V14.3611C113.117 12.7943 112.624 11.5856 111.728 10.6455C110.832 9.70543 109.622 9.25778 108.189 9.25778C107.293 9.21301 106.397 9.48161 105.59 9.92926C104.829 10.3769 104.246 11.0484 103.843 11.8542ZM105.636 14.8981C105.636 16.0172 105.86 16.8678 106.308 17.4945C106.756 18.1212 107.473 18.4794 108.235 18.4346C108.996 18.4794 109.713 18.1212 110.116 17.4945C110.564 16.8678 110.788 15.9277 110.788 14.719C110.788 13.6446 110.564 12.7941 110.071 12.1226C109.31 11.093 107.831 10.8692 106.756 11.6302C106.577 11.7645 106.398 11.9435 106.263 12.0778C105.86 12.7046 105.636 13.6446 105.636 14.8981ZM125.795 9.43701L124.093 16.8234L121.898 9.43701H120.061L117.866 16.7786L116.118 9.43701H113.744L116.701 20.1808H118.672L120.957 12.7945L123.242 20.1808H125.213L128.125 9.43701H125.795Z" fill="#425066"/>
<defs>
<linearGradient id="paint0_linear" x1="-0.317383" y1="24.0303" x2="24.4122" y2="24.0303" gradientUnits="userSpaceOnUse">
<stop stop-color="#FF6F00"/>
<stop offset="1" stop-color="#FFA800"/>
</linearGradient>
<linearGradient id="paint1_linear" x1="-0.450195" y1="24.0303" x2="24.2794" y2="24.0303" gradientUnits="userSpaceOnUse">
<stop stop-color="#FF6F00"/>
<stop offset="1" stop-color="#FFA800"/>
</linearGradient>
</defs>
</svg>
