<svg width="66" height="66" viewBox="0 0 66 66" fill="none" xmlns="http://www.w3.org/2000/svg">
<path d="M59.5547 0H6.44531C2.88566 0 0 2.88566 0 6.44531V59.5547C0 63.1143 2.88566 66 6.44531 66H59.5547C63.1143 66 66 63.1143 66 59.5547V6.44531C66 2.88566 63.1143 0 59.5547 0Z" fill="#3178C6"/>
<path d="M59.5547 0H6.44531C2.88566 0 0 2.88566 0 6.44531V59.5547C0 63.1143 2.88566 66 6.44531 66H59.5547C63.1143 66 66 63.1143 66 59.5547V6.44531C66 2.88566 63.1143 0 59.5547 0Z" fill="#3178C6"/>
<path fill-rule="evenodd" clip-rule="evenodd" d="M40.8554 52.5197V58.9729C41.9045 59.5107 43.1452 59.9139 44.5776 60.1828C46.01 60.4517 47.5196 60.5862 49.1067 60.5862C50.6535 60.5862 52.1227 60.4383 53.5148 60.1425C54.9069 59.8468 56.1275 59.3594 57.1765 58.6804C58.2256 58.0016 59.0561 57.1142 59.668 56.0185C60.2799 54.9228 60.586 53.5684 60.586 51.9551C60.586 50.7854 60.4112 49.7604 60.0614 48.8798C59.7117 47.9993 59.2074 47.2162 58.5483 46.5305C57.8894 45.8449 57.0992 45.2297 56.1779 44.6852C55.2566 44.1407 54.2176 43.6265 53.0609 43.1426C52.2136 42.793 51.4537 42.4536 50.7812 42.1242C50.1087 41.7947 49.5371 41.4587 49.0664 41.1159C48.5956 40.773 48.2325 40.41 47.977 40.0269C47.7215 39.6437 47.5936 39.2102 47.5936 38.7261C47.5936 38.2826 47.708 37.8826 47.9366 37.5263C48.1653 37.17 48.4881 36.8642 48.905 36.6087C49.322 36.3534 49.833 36.155 50.4382 36.0138C51.0435 35.8727 51.7159 35.8021 52.4557 35.8021C52.9936 35.8021 53.5619 35.8425 54.1604 35.9231C54.7589 36.0038 55.3607 36.1282 55.9661 36.2961C56.5713 36.4642 57.1596 36.676 57.7313 36.9314C58.3029 37.1869 58.8308 37.4826 59.3149 37.8188V31.789C58.3332 31.4126 57.2606 31.1337 56.0972 30.9522C54.9338 30.7707 53.5989 30.6799 52.0926 30.6799C50.5592 30.6799 49.1067 30.8447 47.7349 31.174C46.3631 31.5034 45.156 32.0176 44.1135 32.7167C43.0712 33.4158 42.2475 34.3065 41.6423 35.3887C41.0371 36.4709 40.7344 37.7649 40.7344 39.2706C40.7344 41.1931 41.2892 42.8333 42.3988 44.1912C43.5083 45.549 45.1929 46.6985 47.4525 47.6396C48.3401 48.0026 49.1673 48.3588 49.9339 48.7084C50.7005 49.058 51.363 49.421 51.921 49.7974C52.4792 50.1738 52.9196 50.5838 53.2426 51.0275C53.5653 51.4711 53.7267 51.9752 53.7267 52.54C53.7267 52.9567 53.6258 53.3432 53.4241 53.6995C53.2223 54.0558 52.9163 54.3649 52.5061 54.6271C52.0959 54.8893 51.5848 55.0943 50.9729 55.2421C50.3609 55.3901 49.6448 55.464 48.8243 55.464C47.4255 55.464 46.0403 55.2187 44.6684 54.7279C43.2965 54.2373 42.0255 53.5012 40.8554 52.5197ZM30.0068 36.6202H38.2852V31.3245H15.211V36.6202H23.4488V60.1995H30.0068V36.6202Z" fill="white"/>
</svg>
