<?xml version="1.0" standalone="no"?>
<!DOCTYPE svg PUBLIC "-//W3C//DTD SVG 20010904//EN"
 "http://www.w3.org/TR/2001/REC-SVG-20010904/DTD/svg10.dtd">
<svg version="1.0" xmlns="http://www.w3.org/2000/svg"
 width="500.000000pt" height="571.000000pt" viewBox="0 0 500.000000 571.000000"
 preserveAspectRatio="xMidYMid meet">
<metadata>
Created by potrace 1.16, written by Peter Selinger 2001-2019
</metadata>
<g transform="translate(0.000000,571.000000) scale(0.100000,-0.100000)"
fill="#000000" stroke="none">
<path d="M2490 4325 c0 -762 4 -1385 8 -1385 4 0 34 65 66 143 33 78 92 219
131 312 40 94 110 258 155 365 45 107 113 267 150 355 37 88 112 264 165 390
54 127 117 275 140 330 46 108 129 304 274 646 50 119 91 219 91 223 0 3 -266
6 -590 6 l-590 0 0 -1385z"/>
</g>
</svg>
