<svg width="61" height="66" viewBox="0 0 61 66" fill="none" xmlns="http://www.w3.org/2000/svg">
<path fill-rule="evenodd" clip-rule="evenodd" d="M39.0622 18.4689C36.021 9.69091 44.9103 0.280651 52.2228 -3.05176e-05C56.6044 2.2858 60.3665 8.28848 60.1784 16.4342C59.6042 26.4698 52.5035 35.1187 44.7754 43.0872C44.345 33.3706 42.2827 27.1769 39.0622 18.4689Z" fill="#7CC734"/>
<path fill-rule="evenodd" clip-rule="evenodd" d="M21.8223 65.9995C20.5981 56.2012 24.5759 47.8428 28.5242 42.7462C30.4003 40.353 31.8432 38.1696 32.9403 36.1585C35.0144 37.0567 40.5896 39.9817 43.6613 44.7307C43.2152 51.6197 38.1245 64.1569 21.8213 65.9995" fill="#3E7FCA"/>
<path fill-rule="evenodd" clip-rule="evenodd" d="M15.6611 28.7842C2.68573 25.1551 -0.515027 13.7554 0.0640646 6.09032C12.6642 0.982891 26.2246 6.21441 34.0542 17.1187C39.5437 24.7611 42.9809 34.5594 43.6782 43.1108C39.9121 38.1403 35.1553 35.2606 29.0965 33.0053C24.9522 31.464 21.1241 30.4427 15.6611 28.7842Z" fill="#EB6E2E"/>
</svg>
