<svg width="43" height="40" viewBox="0 0 43 40" fill="none" xmlns="http://www.w3.org/2000/svg">
<path d="M11.356 40C10.3176 40 9.27921 39.6822 8.37257 39.046C6.56035 37.7732 5.83567 35.6201 6.52793 33.5605L9.08471 25.9564C9.19137 25.6401 9.0753 25.2945 8.79609 25.0989L2.10244 20.3997C0.290217 19.1258 -0.433419 16.9728 0.258842 14.9132C0.952153 12.8541 2.84699 11.5237 5.08693 11.5237H13.3607C13.7047 11.5237 14.008 11.3105 14.1146 10.9937L16.6714 3.39001C17.3637 1.33094 19.2595 0 21.5005 0C23.7405 0 25.6363 1.33094 26.3286 3.39052L28.8854 10.9937C28.9921 11.311 29.2943 11.5237 29.6394 11.5237H37.9131C40.153 11.5237 42.0489 12.8541 42.7412 14.9132C43.4334 16.9728 42.7098 19.1263 40.8965 20.3997L34.2039 25.0989C33.9247 25.2945 33.8086 25.6401 33.9153 25.9579L36.4721 33.56C37.1644 35.6201 36.4397 37.7732 34.6274 39.046C32.8131 40.3193 30.4718 40.3168 28.6595 39.0455L21.9659 34.3463C21.6877 34.1492 21.3133 34.1502 21.0352 34.3453L14.3405 39.0455C13.4338 39.6817 12.3944 40 11.356 40ZM5.08693 15.6631C4.58603 15.6631 4.39884 15.995 4.33296 16.1926C4.26604 16.3907 4.2148 16.7656 4.62054 17.0511L11.3142 21.7498C13.0982 23.0024 13.8396 25.2065 13.1588 27.2343L10.602 34.8394C10.4473 35.3003 10.716 35.5746 10.8896 35.6969C11.0653 35.8192 11.4156 35.9844 11.8224 35.6964L18.516 30.9972C20.3021 29.7426 22.701 29.7441 24.485 30.9982L31.1776 35.6964C31.5844 35.9829 31.9358 35.8187 32.1104 35.6969C32.284 35.5746 32.5527 35.3003 32.398 34.8389L29.8412 27.2358C29.1604 25.2065 29.9018 23.0024 31.6858 21.7498L38.3784 17.0506C38.7852 16.7656 38.734 16.3907 38.6671 16.1926C38.6012 15.995 38.414 15.6631 37.9131 15.6631H29.6394C27.4319 15.6631 25.492 14.3003 24.8113 12.2715L22.2545 4.66891C22.0997 4.20808 21.7149 4.13936 21.5005 4.13936C21.2851 4.13936 20.9003 4.20808 20.7455 4.66891L18.1887 12.2731C17.5059 14.3008 15.5661 15.6631 13.3607 15.6631H5.08693Z" fill="#28B292"/>
</svg>
