<svg xmlns="http://www.w3.org/2000/svg" xmlns:xlink="http://www.w3.org/1999/xlink" viewBox="0 0 896.89588 300"><defs><style>.cls-1{fill:#fcbc39;}.cls-2{fill:url(#linear-gradient);}.cls-3{fill:#fff;}</style><linearGradient id="linear-gradient" x1="76.84076" y1="282.70795" x2="261.19931" y2="-51.70988" gradientUnits="userSpaceOnUse"><stop offset="0" stop-color="#fee034"/><stop offset="1" stop-color="#fbb03b"/></linearGradient></defs><title>PO Systems Group</title><g id="Layer_2" data-name="Layer 2"><g id="Layer_6" data-name="Layer 6"><path class="cls-1" d="M402.34784,117.78236H388.75362v-52.97H365.08377v52.97H351.44535V53.46152h50.90248Z"/><path class="cls-1" d="M476.96343,85.534q0,15.96972-7.91926,24.54961-7.91926,8.578-22.70169,8.579-14.782,0-22.70169-8.579-7.91786-8.57943-7.91833-24.638,0-16.05765,7.94066-24.52728,7.94159-8.46777,22.76776-8.46917,14.82523,0,22.67936,8.53523Q476.9639,69.52056,476.96343,85.534Zm-46.94332,0q0,10.77907,4.09222,16.234,4.09083,5.45583,12.23014,5.45537,16.32283,0,16.32237-21.68934,0-21.734-16.234-21.734-8.13978,0-12.27481,5.4777Q430.02058,74.75447,430.02012,85.534Z"/><path class="cls-1" d="M541.01955,63.8884q-7.69874,0-11.92216,5.78568Q524.874,75.4593,524.874,85.79826q0,21.51348,16.14558,21.51348,6.77478,0,16.41076-3.38785v11.43831a45.55947,45.55947,0,0,1-17.68644,3.30039q-14.03387,0-21.46974-8.51383-7.43425-8.51244-7.434-24.43889a39.89712,39.89712,0,0,1,3.65118-17.57571,26.39282,26.39282,0,0,1,10.49248-11.57137,31.0396,31.0396,0,0,1,16.03578-4.02523,43.28781,43.28781,0,0,1,18.83,4.53141l-4.39928,11.08659a73.056,73.056,0,0,0-7.25955-2.99147A21.65572,21.65572,0,0,0,541.01955,63.8884Z"/><path class="cls-1" d="M583.036,68.59567v19.446q0,3.08033-1.01236,15.04669l22.70169-34.49265h16.14651v49.18669H607.89268V98.16053q0-5.23531.88023-14.78243l-22.6133,34.40426H570.05684V68.59567Z"/><path class="cls-1" d="M654.92253,118.66258q-22.965,0-22.965-25.20932,0-12.53906,6.2472-19.16031t17.906-6.62125a34.14272,34.14272,0,0,1,15.31,3.34412l-3.95916,10.38222q-3.16826-1.27568-5.89548-2.08984a19.0359,19.0359,0,0,0-5.45537-.81323q-10.47062,0-10.47062,14.8699,0,14.43164,10.47062,14.43071a23.8654,23.8654,0,0,0,7.17116-1.03376,25.89292,25.89292,0,0,0,6.59985-3.23433v11.483a21.6552,21.6552,0,0,1-6.57752,2.86028A37.02137,37.02137,0,0,1,654.92253,118.66258Z"/><path class="cls-1" d="M721.97245,68.59567V78.67083H705.86968v39.11152H692.45132V78.67083H676.30481V68.59567Z"/><path class="cls-1" d="M753.38431,118.66258q-11.87889,0-18.56574-6.55519-6.68824-6.55565-6.68731-18.56667,0-12.36181,6.18114-19.11565,6.1802-6.75245,17.09187-6.75338,10.42735,0,16.2349,5.93921,5.80755,5.94014,5.80708,16.41076v6.51145H741.72547q.22052,5.71962,3.38785,8.93068,3.16826,3.21153,8.887,3.212a36.88949,36.88949,0,0,0,8.40311-.924,42.04468,42.04468,0,0,0,8.271-2.94774v10.38222a31.52553,31.52553,0,0,1-7.52288,2.61835A47.48554,47.48554,0,0,1,753.38431,118.66258ZM751.49265,77.2193a8.511,8.511,0,0,0-6.68731,2.70489q-2.42016,2.70628-2.77188,7.67734h18.83q-.08793-4.97152-2.59509-7.67734A8.7922,8.7922,0,0,0,751.49265,77.2193Z"/><path class="cls-1" d="M846.34605,117.78236H833.80792V79.02255l-.70437,2.72815A123.07846,123.07846,0,0,1,828.8364,95.785l-8.71109,21.99732h-9.54666l-8.84322-22.17318A114.22006,114.22006,0,0,1,797.68787,82.014l-.8365-2.99147v38.7598H784.357V68.59567h18.47827l8.44684,20.9859a67.61561,67.61561,0,0,1,2.44156,7.78713,63.6887,63.6887,0,0,1,1.51853,7.52288q1.45154-6.59892,2.2657-9.48059a53.01526,53.01526,0,0,1,1.78186-5.30184q.96723-2.41877,8.75482-21.51348h18.30148Z"/><path class="cls-1" d="M880.39766,118.66258q-22.965,0-22.965-25.20932,0-12.53906,6.2472-19.16031t17.906-6.62125a34.14272,34.14272,0,0,1,15.31,3.34412l-3.95916,10.38222q-3.16826-1.27568-5.89548-2.08984a19.0359,19.0359,0,0,0-5.45537-.81323q-10.47062,0-10.47062,14.8699,0,14.43164,10.47062,14.43071a23.8654,23.8654,0,0,0,7.17116-1.03376,25.89291,25.89291,0,0,0,6.59985-3.23433v11.483a21.6552,21.6552,0,0,1-6.57752,2.86028A37.02137,37.02137,0,0,1,880.39766,118.66258Z"/><path class="cls-1" d="M392.09681,161.58439v11.26245h-27.013v53.05839H351.44535V161.58439Z"/><path class="cls-1" d="M427.95354,226.78546q-8.66876,0-13.59515-6.29186H413.655q.70344,6.16066.70344,7.12743v19.92981H400.94V176.71855h10.91073l1.89165,6.37933h.616q4.70773-7.30236,13.94687-7.30329a15.96467,15.96467,0,0,1,13.63888,6.731q4.92546,6.73151,4.92686,18.69786a36.91453,36.91453,0,0,1-2.30944,13.68261,19.19725,19.19725,0,0,1-6.57752,8.84322A16.85517,16.85517,0,0,1,427.95354,226.78546Zm-3.9601-40.256q-4.97152,0-7.25862,3.05754-2.289,3.0594-2.37643,10.0975V201.136q0,7.91926,2.3541,11.35085,2.35317,3.43205,7.45681,3.43159,9.01908,0,9.01908-14.87083,0-7.25909-2.221-10.8884A7.58409,7.58409,0,0,0,423.99344,186.52946Z"/><path class="cls-1" d="M450.91855,176.71855h14.694l9.28333,27.67321a38.3993,38.3993,0,0,1,1.6274,8.53523h.26425a37.719,37.719,0,0,1,1.89165-8.53523l9.10747-27.67321h14.38605l-20.80911,55.47762q-2.86121,7.69874-8.16118,11.52671a20.5978,20.5978,0,0,1-12.3846,3.828,31.12922,31.12922,0,0,1-6.81944-.7481V236.15626a22.968,22.968,0,0,0,5.27951.57224,9.53576,9.53576,0,0,0,6.22487-2.17824,14.12058,14.12058,0,0,0,4.15736-6.57752l.79183-2.41923Z"/><path class="cls-1" d="M553.91033,176.71855v49.18669H540.44824V186.79371H522.62968v39.11152H509.21178V176.71855Z"/><path class="cls-1" d="M612.64368,176.71855v49.18669H599.18159V186.79371H581.363v39.11152H567.94467V176.71855Z"/><rect class="cls-2" width="300.00017" height="300" rx="38.11219" ry="38.11219"/><path class="cls-3" d="M125.6285,197.0886l.00124,23.55849H45.2002l-.00126-23.55149H73.56754l.0003-92.113H67.44579A25.62984,25.62984,0,0,1,41.816,79.35293v0h58.34792L100.1626,197.0956Z"/><path class="cls-3" d="M300.00017,195.18818v25.45892H203.986v-.05722c-1.24823-.03792-2.48692-.09514-3.7255-.1619a61.25635,61.25635,0,0,1-23.00072-5.70729,70.27593,70.27593,0,0,1-20.30433-13.63446c-13.32019-13.16783-20.77108-30.29947-20.77108-48.37392v-1.11494c0-22.6768,9.671-43.45753,26.8024-57.25413a58.46423,58.46423,0,0,1,9.671-6.65986,67.15761,67.15761,0,0,1,19.037-6.98413,83.30517,83.30517,0,0,1,21.72388-1.1054,63.545,63.545,0,0,1,20.14242,4.27832,78.38139,78.38139,0,0,1,17.60781,10.47108c7.35563,5.54539,16.96939,19.98052,16.96939,19.98052L244.91847,131.093s-7.27944-19.20846-27.81232-25.01113a40.21936,40.21936,0,0,0-10.96679-1.42921H206.044a27.76049,27.76049,0,0,0-5.0213.41941c-17.62689,3.20129-31.0613,17.91254-34.07231,37.48319a38.34634,38.34634,0,0,0-.6383,7.46054,47.66144,47.66144,0,0,0,5.55493,22.3623q.41435.78613.85743,1.54342c7.76538,13.35834,22.34323,21.26667,37.79781,21.26667Z"/></g></g></svg>