<svg width="40" height="30" viewBox="0 0 40 30" fill="none" xmlns="http://www.w3.org/2000/svg">
<path d="M34.5455 29.2857H5.45455C2.44727 29.2857 0 26.8821 0 23.9286V6.07143C0 3.11786 2.44727 0.714287 5.45455 0.714287H34.5455C37.5527 0.714287 40 3.11786 40 6.07143V23.9286C40 26.8821 37.5527 29.2857 34.5455 29.2857ZM5.45455 4.28572C4.45273 4.28572 3.63636 5.0875 3.63636 6.07143V23.9286C3.63636 24.9125 4.45273 25.7143 5.45455 25.7143H34.5455C35.5473 25.7143 36.3636 24.9125 36.3636 23.9286V6.07143C36.3636 5.0875 35.5473 4.28572 34.5455 4.28572H5.45455ZM16.3636 20.3571H9.09091C8.6087 20.3571 8.14624 20.169 7.80526 19.8341C7.46429 19.4992 7.27273 19.045 7.27273 18.5714C7.27273 18.0978 7.46429 17.6436 7.80526 17.3087C8.14624 16.9739 8.6087 16.7857 9.09091 16.7857H16.3636C16.8458 16.7857 17.3083 16.9739 17.6493 17.3087C17.9903 17.6436 18.1818 18.0978 18.1818 18.5714C18.1818 19.045 17.9903 19.4992 17.6493 19.8341C17.3083 20.169 16.8458 20.3571 16.3636 20.3571ZM16.3636 13.2143H9.09091C8.6087 13.2143 8.14624 13.0261 7.80526 12.6913C7.46429 12.3564 7.27273 11.9022 7.27273 11.4286C7.27273 10.955 7.46429 10.5008 7.80526 10.1659C8.14624 9.831 8.6087 9.64286 9.09091 9.64286H16.3636C16.8458 9.64286 17.3083 9.831 17.6493 10.1659C17.9903 10.5008 18.1818 10.955 18.1818 11.4286C18.1818 11.9022 17.9903 12.3564 17.6493 12.6913C17.3083 13.0261 16.8458 13.2143 16.3636 13.2143Z" fill="url(#paint0_linear)"/>
<path d="M28 16.7142C30.2091 16.7142 32 14.9234 32 12.7142C32 10.5051 30.2091 8.71422 28 8.71422C25.7909 8.71422 24 10.5051 24 12.7142C24 14.9234 25.7909 16.7142 28 16.7142Z" fill="url(#paint1_linear)"/>
<path d="M28 16.7142C24.7868 16.7142 22.8572 17.8576 22.8572 18.9994C22.8572 19.5703 24.7868 20.1428 28 20.1428C31.0158 20.1428 33.1429 19.5719 33.1429 18.9994C33.1429 17.8576 31.1269 16.7142 28 16.7142Z" fill="url(#paint2_linear)"/>
<defs>
<linearGradient id="paint0_linear" x1="5.85787" y1="25.1015" x2="24.9689" y2="-1.65387" gradientUnits="userSpaceOnUse">
<stop offset="0.01441" stop-color="#FF7439"/>
<stop offset="0.26478" stop-color="#FD793A"/>
<stop offset="0.55213" stop-color="#F9873B"/>
<stop offset="0.85658" stop-color="#F19E3E"/>
<stop offset="1" stop-color="#EDAB3F"/>
</linearGradient>
<linearGradient id="paint1_linear" x1="25.1716" y1="15.5426" x2="30.8284" y2="9.88579" gradientUnits="userSpaceOnUse">
<stop offset="0.01441" stop-color="#FF7439"/>
<stop offset="0.26478" stop-color="#FD793A"/>
<stop offset="0.55213" stop-color="#F9873B"/>
<stop offset="0.85658" stop-color="#F19E3E"/>
<stop offset="1" stop-color="#EDAB3F"/>
</linearGradient>
<linearGradient id="paint2_linear" x1="24.3635" y1="19.6407" x2="25.8181" y2="15.2768" gradientUnits="userSpaceOnUse">
<stop offset="0.01441" stop-color="#FF7439"/>
<stop offset="0.26478" stop-color="#FD793A"/>
<stop offset="0.55213" stop-color="#F9873B"/>
<stop offset="0.85658" stop-color="#F19E3E"/>
<stop offset="1" stop-color="#EDAB3F"/>
</linearGradient>
</defs>
</svg>
