<svg width="141" height="42" viewBox="0 0 141 42" fill="none" xmlns="http://www.w3.org/2000/svg">
<path d="M70.061 42C65.4826 42 61.16 41.9949 57.0249 41.9846C52.7725 41.9739 50.0116 39.1783 49.9908 34.8632C49.9752 31.6102 49.9785 28.3567 49.9821 25.1031L49.985 20.8085L49.9832 16.7348C49.981 13.5954 49.9785 10.456 49.9883 7.31707C50.0022 2.81823 52.7735 0.0190624 57.2205 0.0124087C66.1066 -0.00242868 74.9928 -0.00446689 83.8781 0.0139436C88.2682 0.0226406 91 2.78856 91.0072 7.23265C91.0219 16.414 91.0222 25.5943 91.0069 34.7752C90.9996 39.2141 88.265 41.9775 83.8699 41.9862C78.9975 41.9959 74.4137 42 70.061 42ZM52.2228 20.8085L52.2199 25.1052C52.2163 28.3546 52.213 31.6035 52.2287 34.8529C52.2432 37.9023 54.0385 39.7273 57.0307 39.7355C65.0941 39.756 73.8724 39.757 83.8654 39.737C86.9767 39.7314 88.764 37.9212 88.7691 34.7711C88.7844 25.5928 88.784 16.4155 88.7694 7.23674C88.7643 4.08147 86.98 2.26873 83.8738 2.26311C74.991 2.24468 66.107 2.24622 57.2242 2.26157C53.9646 2.26668 52.2363 4.01751 52.2261 7.32423C52.2163 10.4601 52.2189 13.5964 52.2211 16.7333L52.2228 20.8085ZM20.5155 41.9995C16.031 41.9995 11.5466 41.9949 7.09318 41.9852C2.81639 41.976 0.0372593 39.1988 0.0132073 34.9107C-0.00461025 31.6997 -0.000533192 28.4876 0.00340772 25.2766L0.00671665 21.0418L0.00378952 16.8745C0.000484575 13.6414 -0.00283035 10.4084 0.0118073 7.17483C0.0314076 2.76452 2.78431 0.0205923 7.19665 0.0124087C16.0824 -0.00242868 24.9678 -0.00294572 33.8535 0.0134319C38.271 0.0211021 41.0202 2.76963 41.0278 7.1866C41.0468 17.338 41.046 26.4083 41.0264 34.9164C41.0162 39.2008 38.2334 41.976 33.9377 41.9852C29.4846 41.9949 25.0002 41.9995 20.5155 41.9995ZM2.24457 21.0418L2.24127 25.2792C2.23719 28.4856 2.23325 31.6915 2.25106 34.8974C2.26786 37.9207 4.07989 39.7299 7.09827 39.7365C16.0019 39.7554 25.0302 39.7554 33.933 39.7365C36.966 39.7299 38.7813 37.9258 38.7886 34.9107C38.8082 26.4063 38.8089 17.3385 38.79 7.19121C38.7845 4.06407 36.9838 2.2672 33.8496 2.26208C24.966 2.24622 16.0832 2.24673 7.20021 2.26157C4.06793 2.26668 2.26341 4.06202 2.24966 7.18507C2.23503 10.414 2.23834 13.6435 2.24165 16.8724L2.24457 21.0418ZM19.0274 26.1438C18.9585 27.1763 19.0125 27.8491 20.4312 27.8542C21.9101 27.8593 22.0246 27.1901 21.9617 26.043C21.8938 24.8003 21.9866 23.5493 21.9341 22.3055C21.8897 21.249 21.9615 20.4861 23.3715 20.6325C24.7976 20.7803 24.3364 19.4833 24.5423 18.7686C24.7958 17.8885 24.1062 17.9412 23.539 17.931C22.7644 17.9172 21.897 18.1653 21.9203 16.8172C21.9413 15.6 22.1287 14.6499 23.5895 14.7445C24.7195 14.8177 24.693 14.1551 24.7301 13.3411C24.7746 12.3644 24.2246 12.2252 23.4705 12.1582C20.6604 11.9075 19.1609 13.3099 19.0352 16.3357C19.0036 17.0986 19.2981 18.1101 17.9392 17.9259C16.7493 17.7647 16.6789 18.4483 16.6664 19.3789C16.6538 20.3209 16.9032 20.809 17.9125 20.6596C18.8371 20.523 19.1009 20.988 19.0454 21.845C18.9931 22.6519 19.0342 23.4644 19.0346 24.2748C19.035 24.898 19.0688 25.5232 19.0274 26.1438ZM128.441 41.9995C127.038 41.9995 125.635 41.9969 124.232 41.9959L120.027 41.9913L116.14 41.9933C112.899 41.9969 109.657 41.9995 106.416 41.9877C101.988 41.9708 99.2316 39.229 99.2232 34.833C99.2046 24.9655 99.205 15.8957 99.2243 7.10474C99.2337 2.80698 102.009 0.0241791 106.293 0.0144552C115.212 -0.00447917 124.495 -0.00498033 133.883 0.0139436C138.185 0.0226406 140.973 2.79316 140.983 7.07199C141.006 16.919 141.006 26.0512 140.981 34.99C140.97 39.1461 138.17 41.957 134.013 41.9841C132.155 41.9959 130.298 41.9995 128.441 41.9995ZM120.027 39.7421L124.235 39.7467C127.49 39.7493 130.744 39.7544 133.998 39.735C136.918 39.7155 138.736 37.8956 138.743 34.9839C138.768 26.0487 138.769 16.9205 138.745 7.07762C138.738 4.06919 136.918 2.26873 133.878 2.26311C124.493 2.24417 115.214 2.24468 106.298 2.26362C103.277 2.27027 101.469 4.08147 101.462 7.10934C101.443 15.8978 101.442 24.9645 101.461 34.8289C101.467 37.9366 103.276 39.7263 106.425 39.7386C109.663 39.7508 112.901 39.7488 116.138 39.7442L120.027 39.7421ZM117.886 22.766C117.886 23.9499 117.947 25.1379 117.869 26.3162C117.787 27.5437 118.583 27.3984 119.318 27.3671C120.051 27.3364 121.018 27.7038 120.953 26.3075C120.889 24.9404 120.891 23.5631 120.983 22.1981C121.05 21.2024 121.513 20.3147 122.662 20.3209C123.858 20.3275 124.173 21.2474 124.198 22.2625C124.231 23.6327 124.237 25.0044 124.209 26.3746C124.195 27.0622 124.4 27.3569 125.145 27.3922C126.514 27.4572 127.583 27.448 127.307 25.5053C127.099 24.0364 127.317 22.5107 127.16 21.03C126.883 18.4181 124.422 17.1247 122.089 18.326C121.481 18.6391 121.305 18.788 120.609 18.171C119.464 17.1554 117.9 18.1986 117.893 19.7755C117.888 20.7721 117.892 21.7688 117.892 22.766C117.89 22.766 117.888 22.766 117.886 22.766ZM113.04 26.0773C112.902 27.4546 113.711 27.3881 114.645 27.3943C115.59 27.4004 116.329 27.428 116.262 26.0763C116.161 24.0231 116.197 21.9602 116.251 19.9039C116.282 18.7159 116.229 17.9694 114.632 17.954C112.987 17.9387 112.995 18.7542 113.052 19.9059C113.099 20.8391 113.062 21.7765 113.062 22.7118C113.062 23.8343 113.151 24.966 113.04 26.0773ZM114.745 13.578C113.772 13.5299 113.057 13.9985 112.991 15.0796C112.924 16.1761 113.607 16.7066 114.574 16.7547C115.541 16.8023 116.214 16.2907 116.372 15.2654C116.341 14.1874 115.723 13.6266 114.745 13.578ZM65.129 26.2477C70.0971 27.7616 75.2626 24.4252 76.0626 19.2388C76.2732 17.8727 76.5809 16.5214 76.8522 15.1211C76.1203 15.2116 75.5026 15.5171 74.7064 15.1344C72.3476 13.9996 70.6896 14.8126 70.1755 17.3662C69.9862 18.3065 69.6603 18.2124 68.959 18.1096C66.9597 17.8169 65.4761 16.6094 64.0026 15.3436C62.7375 16.9543 63.8997 18.6846 64.0668 20.0712C64.2224 21.3626 64.6928 23.7473 67.095 24.1014C65.9544 25.032 64.8411 25.1615 63.6927 25.2848C63.8697 26.1126 64.5971 26.086 65.129 26.2477Z" fill="url(#paint0_linear)"/>
<defs>
<linearGradient id="paint0_linear" x1="26.7475" y1="64.9669" x2="114.69" y2="-22.5339" gradientUnits="userSpaceOnUse">
<stop offset="0.01441" stop-color="#FF7439"/>
<stop offset="0.26478" stop-color="#FD793A"/>
<stop offset="0.55213" stop-color="#F9873B"/>
<stop offset="0.85658" stop-color="#F19E3E"/>
<stop offset="1" stop-color="#EDAB3F"/>
</linearGradient>
</defs>
</svg>
