<svg width="55" height="70" viewBox="0 0 55 70" fill="none" xmlns="http://www.w3.org/2000/svg">
<path d="M50.1617 34.7537C53.3863 38.261 55 42.6035 55 47.7804C55 51.7792 53.946 55.466 51.84 58.8407C49.7326 62.2174 46.5234 64.9211 42.2126 66.9517C37.9003 68.9833 32.6175 70 26.3646 70C21.492 70 16.7029 69.3606 11.9972 68.0827C7.29001 66.8048 3.29111 64.9854 0 62.6264L6.2211 50.4351C8.85312 52.4014 11.8988 53.925 15.3548 55.0071C18.8108 56.0881 22.3483 56.6287 25.9697 56.6287C29.984 56.6287 33.144 55.8596 35.4486 54.3187C37.7523 52.7796 38.9046 50.5992 38.9046 47.7804C38.9046 42.1446 34.5923 39.3257 25.9697 39.3257H18.6623V28.8059L32.8817 12.7809H3.456V0H51.84V10.323L36.2389 28.0196C42.2946 29.0027 46.9352 31.2484 50.1617 34.7537Z" fill="#FD8C4E"/>
</svg>
