<svg width="56" height="70" viewBox="0 0 56 70" fill="none" xmlns="http://www.w3.org/2000/svg">
<path d="M56 57.0223V70H3.19446V59.677L30.146 34.6068C33.0061 31.9205 34.9372 29.6095 35.9355 27.6759C36.9337 25.7432 37.4328 23.8259 37.4328 21.9239C37.4328 19.1713 36.4843 17.0581 34.5883 15.5834C32.6913 14.1087 29.9121 13.3713 26.2526 13.3713C23.1917 13.3713 20.4291 13.9455 17.9677 15.0918C15.5053 16.2391 13.4417 17.9596 11.7786 20.2533L0 12.7809C2.7285 8.78396 6.48835 5.65307 11.2795 3.39204C16.0717 1.131 21.5619 0 27.75 0C32.9408 0 37.4825 0.836257 41.3759 2.50682C45.2693 4.17836 48.2961 6.53829 50.4592 9.58565C52.6213 12.634 53.7033 16.2219 53.7033 20.3513C53.7033 24.087 52.905 27.5943 51.3082 30.8711C49.7105 34.1489 46.6165 37.8846 42.0251 42.0783L25.9534 57.0223H56Z" fill="#FD8C4E"/>
</svg>
