<svg width="74" height="42" viewBox="0 0 74 42" fill="none" xmlns="http://www.w3.org/2000/svg">
<path d="M54.0583 31.1516C53.4467 31.1516 52.8487 30.9702 52.3401 30.6304C51.8315 30.2906 51.4351 29.8076 51.201 29.2424C50.9669 28.6773 50.9057 28.0555 51.025 27.4555C51.1444 26.8556 51.4389 26.3045 51.8715 25.872C52.304 25.4395 52.8551 25.1449 53.455 25.0256C54.0549 24.9063 54.6768 24.9675 55.2419 25.2016C55.807 25.4357 56.29 25.8321 56.6299 26.3407C56.9697 26.8493 57.1511 27.4472 57.1511 28.0589C57.1511 28.8791 56.8252 29.6658 56.2452 30.2458C55.6652 30.8258 54.8786 31.1516 54.0583 31.1516ZM20.0061 31.1516C19.3944 31.1516 18.7965 30.9702 18.2879 30.6304C17.7793 30.2906 17.3829 29.8076 17.1488 29.2424C16.9147 28.6773 16.8535 28.0555 16.9728 27.4555C17.0921 26.8556 17.3867 26.3045 17.8192 25.872C18.2517 25.4395 18.8028 25.1449 19.4027 25.0256C20.0027 24.9063 20.6245 24.9675 21.1896 25.2016C21.7548 25.4357 22.2378 25.8321 22.5776 26.3407C22.9174 26.8493 23.0988 27.4472 23.0988 28.0589C23.0988 28.8791 22.773 29.6658 22.193 30.2458C21.613 30.8258 20.8263 31.1516 20.0061 31.1516ZM55.1537 12.5952L61.3391 1.93176C61.4226 1.78575 61.4764 1.62469 61.4974 1.45783C61.5185 1.29097 61.5063 1.12159 61.4617 0.959438C61.4171 0.797284 61.3409 0.645543 61.2374 0.512932C61.134 0.380321 61.0054 0.269454 60.8589 0.186699C60.7125 0.103944 60.5512 0.0509316 60.3843 0.030708C60.2173 0.0104843 60.048 0.0234476 59.8861 0.0688531C59.7241 0.114258 59.5727 0.191211 59.4406 0.295291C59.3085 0.399371 59.1983 0.528526 59.1163 0.675339L52.8664 11.4677C47.9025 9.19935 42.5059 8.03429 37.0483 8.05279C31.5844 8.03942 26.1805 9.19267 21.1981 11.4355L14.9482 0.643122C14.7807 0.350086 14.504 0.135306 14.1785 0.0457557C13.8531 -0.0437949 13.5054 -0.00082871 13.2116 0.165258C12.9177 0.331344 12.7016 0.607034 12.6105 0.932035C12.5194 1.25704 12.5606 1.6049 12.7253 1.89954L18.8785 12.563C13.5582 15.4647 9.04558 19.6474 5.7492 24.7326C2.45282 29.8178 0.476795 35.6449 0 41.6862H74C73.5378 35.6492 71.571 29.824 68.2789 24.7424C64.9869 19.6608 60.4745 15.4847 55.1537 12.5952Z" fill="#3DDC84"/>
</svg>
