<svg width="63" height="66" viewBox="0 0 63 66" fill="none" xmlns="http://www.w3.org/2000/svg">
<path d="M4.9071 51.6118L31.0855 66L57.3988 51.4169L62.304 10.7346L31.0525 0L0 10.928L4.9071 51.6118Z" fill="#B3B3B3"/>
<path d="M30.9799 62.5629L54.6352 49.471L59.2065 13.0864L30.9799 3.46069V62.5629Z" fill="#A6120D"/>
<path d="M30.9796 62.564V3.46069L3.48456 13.261L7.68941 49.646L30.9796 62.564Z" fill="#DD1B16"/>
<path d="M38.7498 34.9237L30.98 38.557H22.7908L18.9412 48.1857L11.7809 48.3182L30.98 5.60693L38.7498 34.9237ZM37.9987 33.0945L31.0315 19.3015L25.3166 32.8571H30.9797L37.9987 33.0945Z" fill="#F2F2F2"/>
<path d="M37.5158 32.8677H30.9943L30.9796 38.5484L39.9973 38.557L44.2119 48.3197L51.0631 48.4467L30.9796 5.60693L31.0311 19.3015L37.5158 32.8677Z" fill="#B3B3B3"/>
</svg>
