<svg width="52" height="64" viewBox="0 0 52 64" fill="none" xmlns="http://www.w3.org/2000/svg">
<path d="M14.7691 46.7657L24.609 56.6118L51.6826 29.532H31.9966L14.7691 46.7657Z" fill="#39CEFD"/>
<path d="M31.9966 0H51.6826L9.84601 41.8427L-6.10352e-05 31.9967L31.9966 0Z" fill="#39CEFD"/>
<path d="M24.609 56.6119L31.9966 63.9934H51.6826L34.455 46.7659L24.609 56.6119Z" fill="#03569B"/>
<path d="M39.2117 51.5534L34.455 46.7659L24.609 56.6119L39.2117 51.5534Z" fill="url(#paint0_linear)"/>
<path d="M14.7679 46.7624L24.6143 36.916L34.4612 46.7624L24.6143 56.6088L14.7679 46.7624Z" fill="#16B9FD"/>
<path d="M51.6826 29.5321L34.455 46.7658L51.6826 63.9995H31.9966L14.7629 46.7658L31.9966 29.5321H51.6826ZM31.9966 0L-6.10352e-05 31.9967L9.84601 41.8427L51.6826 0H31.9966Z" fill="url(#paint1_radial)"/>
<defs>
<linearGradient id="paint0_linear" x1="27.4824" y1="58.5121" x2="34.8155" y2="51.179" gradientUnits="userSpaceOnUse">
<stop stop-color="#1A237E" stop-opacity="0.4"/>
<stop offset="1" stop-color="#1A237E" stop-opacity="0"/>
</linearGradient>
<radialGradient id="paint1_radial" cx="0" cy="0" r="1" gradientUnits="userSpaceOnUse" gradientTransform="translate(1.45188 4.36202) scale(78.2956)">
<stop stop-color="white" stop-opacity="0.1"/>
<stop offset="1" stop-color="white" stop-opacity="0"/>
</radialGradient>
</defs>
</svg>
