<svg width="53" height="75" viewBox="0 0 53 75" fill="none" xmlns="http://www.w3.org/2000/svg">
<path d="M14.3605 55.4433C16.6697 58.3313 19.0215 61.9625 20.2522 64.1559C21.751 67.0073 22.3725 68.9326 23.4874 72.3811C24.1394 74.2698 24.7608 74.8425 26.0647 74.8425C27.4903 74.8425 28.1423 73.8799 28.6419 72.3811C29.6837 69.1458 30.488 66.6844 31.7613 64.3387C36.6721 55.0778 44.6779 48.4976 49.1865 39.4804C49.1865 39.4804 52.1537 33.9726 52.1537 26.2592C52.1537 19.0698 49.2292 14.0737 49.2292 14.0737L14.3788 55.5042L14.3605 55.4433Z" fill="#34A853"/>
<path d="M2.54067 38.5062C5.34941 44.9035 10.7049 50.5088 14.3605 55.4439L33.7354 32.4744C33.7354 32.4744 30.9998 36.0569 26.0586 36.0569C20.5508 36.0569 16.0665 31.6701 16.0665 26.1258C16.0665 22.3117 18.3391 19.6675 18.3391 19.6675C4.08212 21.7877 4.87418 25.2423 2.49802 38.494L2.54067 38.5062Z" fill="#FBBC04"/>
<path d="M33.9791 1.19995C40.4374 3.27757 45.9209 7.65824 49.2109 14.0556L33.7354 32.5165C33.7354 32.5165 36.008 29.8601 36.008 26.0583C36.008 20.3981 31.2313 16.1271 26.0769 16.1271C21.1844 16.1271 18.4 19.667 18.4 19.667C19.5881 16.9618 31.8649 2.11995 33.9974 1.20604L33.9791 1.19995Z" fill="#4285F4"/>
<path d="M6.07446 9.32187C9.92506 4.74014 16.6758 0 25.9977 0C30.5002 0 33.9182 1.19417 33.9182 1.19417L18.3818 19.6551C17.3338 19.0867 7.11023 11.1253 6.07446 9.29749V9.32187Z" fill="#1A73E8"/>
<path d="M2.54067 38.5058C2.54067 38.5058 0 33.461 0 26.1985C0 19.3137 2.69298 13.2819 6.09272 9.38257L18.4 19.7402L2.55894 38.5058H2.54067Z" fill="#EA4335"/>
</svg>
