<svg width="66" height="44" viewBox="0 0 66 44" fill="none" xmlns="http://www.w3.org/2000/svg">
<path fill-rule="evenodd" clip-rule="evenodd" d="M64.5554 0.00115907C63.5422 0.0345594 63.8354 0.49103 61.6421 1.03286C59.4266 1.5784 56.7471 1.24439 54.3646 2.2464C48.1298 4.85905 47.1204 14.9608 39.6944 18.8686C34.8254 21.6186 29.8599 22.2495 25.4213 23.6412C21.8586 25.07 19.6431 26.0163 17.0304 28.269C15.0041 30.0169 14.5105 31.7129 12.3915 33.9062C10.2427 36.8269 2.0968 34.2328 0 37.8957C1.10592 38.6119 1.74421 38.8086 3.68514 38.5525C3.28434 39.3133 0.731085 40.3153 1.19498 41.4361C1.19498 41.4361 7.36662 42.5606 12.5696 39.421C14.9967 38.4338 17.2717 36.3444 21.0422 35.8434C25.926 35.194 31.4297 36.8677 37.3341 37.339C36.1132 39.7512 34.855 41.1763 33.5079 43.1655C33.0923 43.6145 33.8642 44.0116 35.2967 43.7407C37.8722 43.1024 39.7389 42.4121 41.5908 41.1318C44.0067 39.4655 45.0459 37.9402 47.0833 35.5243C48.8535 38.3633 55.0956 38.9867 56.376 36.5337C53.9934 35.5243 53.485 30.273 54.3015 28.0055C55.2664 25.8456 55.9603 22.7913 56.7397 19.9523C57.4411 17.3953 57.8753 13.4949 58.714 11.4983C59.716 9.01553 61.6644 8.2399 63.1266 6.92244C64.5888 5.60499 66.0435 4.50649 65.999 1.49304C65.9842 0.513297 65.4794 -0.0285301 64.5554 0.00115907Z" fill="#1F305F"/>
<path d="M1.83702 40.9246C5.66321 41.0397 6.70234 40.9395 9.72692 39.6257C12.2987 38.5087 15.739 35.4989 18.7784 34.5266C23.2392 33.0941 28.0229 33.3094 32.7694 33.8698C34.3578 34.059 35.9536 34.3225 37.0929 34.2C38.8705 33.109 38.9559 30.1475 40.0581 29.91C39.7575 35.64 37.3007 39.3066 34.8439 42.6318C40.021 41.7188 43.4798 38.4864 45.5729 34.4858C46.2075 33.2723 47.2614 31.2868 47.7439 29.9211C48.1261 30.8266 47.2466 31.4018 47.6585 32.389C50.9911 29.639 52.5647 26.5068 53.9155 21.9199C55.4816 16.6129 57.0886 12.0519 58.098 10.4821C59.0814 8.94941 60.6142 8.00307 62.0133 7.02332C63.6016 5.90627 65.023 4.74468 65.2679 2.61819C63.5905 2.46233 63.2045 2.07637 62.9559 1.23022C62.1171 1.70154 61.3452 1.80545 60.4731 1.83143C59.7161 1.8537 58.8848 1.8203 57.8679 1.92421C49.4696 2.7852 49.0799 10.9942 42.9751 17.0211C42.5817 17.4034 41.91 17.9675 41.4646 18.3015C39.5794 19.708 37.5605 20.4799 35.434 21.2927C31.9901 22.6064 28.7243 22.9887 25.4956 24.1243C23.1242 24.9556 20.9198 25.9093 18.9714 27.2416C18.4852 27.5756 17.8246 28.1694 17.4015 28.5146C16.2585 29.4498 15.5089 30.4852 14.7815 31.554C14.0318 32.6525 13.3119 33.7844 12.2097 34.8643C10.4246 36.616 3.75939 35.3765 1.41023 37.002C1.15045 37.1838 0.938906 37.3991 0.797882 37.6588C2.07823 38.2415 2.93554 37.8852 4.40887 38.0448C4.59071 39.4513 1.35828 40.2826 1.83702 40.9246Z" fill="#C0765A"/>
<path fill-rule="evenodd" clip-rule="evenodd" d="M55.2774 5.39074C56.465 6.42244 58.9589 5.59485 58.5135 3.54259C56.6654 3.38672 55.5966 4.01391 55.2774 5.39074Z" fill="#1F305F"/>
<path d="M63.4421 2.98911C63.1267 3.65341 62.5218 4.50697 62.5218 6.19554C62.5181 6.48501 62.3028 6.68541 62.2991 6.23636C62.314 4.5849 62.7519 3.87236 63.2158 2.93715C63.4273 2.55491 63.5572 2.71077 63.4421 2.98911Z" fill="#1F305F"/>
<path d="M63.0709 2.74059C62.6961 3.37148 61.798 4.52565 61.6532 6.21051C61.6273 6.49998 61.3897 6.67811 61.4268 6.23278C61.5901 4.59245 62.3064 3.56446 62.8519 2.67008C63.0969 2.30639 63.2119 2.47339 63.0709 2.74059Z" fill="#1F305F"/>
<path d="M62.6997 2.40997C62.2729 3.00746 60.8923 4.39543 60.6029 6.05802C60.5509 6.34378 60.3023 6.49965 60.3765 6.06173C60.6771 4.43996 61.8684 3.16333 62.4844 2.3209C62.7591 1.97576 62.863 2.1539 62.6997 2.40997Z" fill="#1F305F"/>
<path d="M62.6998 2.03963C62.1951 2.57403 60.5474 4.34054 60.0278 5.94747C59.935 6.22209 59.6678 6.34456 59.8014 5.91778C60.3247 4.35167 61.7683 2.66681 62.4994 1.92087C62.8223 1.62027 62.8965 1.81325 62.6998 2.03963Z" fill="#1F305F"/>
</svg>
