<svg width="75" height="66" viewBox="0 0 75 66" fill="none" xmlns="http://www.w3.org/2000/svg">
<path d="M74.1121 33.0075C74.1121 28.098 67.9638 23.4452 58.5374 20.5599C60.7127 10.9522 59.7459 3.30831 55.4859 0.861066C54.504 0.287022 53.3559 0.0151062 52.1021 0.0151062V3.38384C52.797 3.38384 53.3559 3.5198 53.8242 3.77661C55.8787 4.95491 56.77 9.44152 56.0751 15.2122C55.9089 16.6322 55.637 18.1277 55.3046 19.6535C52.3438 18.9284 49.111 18.3694 45.7121 18.0069C43.6727 15.2122 41.5578 12.6743 39.4278 10.4536C44.3525 5.8764 48.975 3.36873 52.1172 3.36873V0C47.9629 0 42.5246 2.96086 37.0259 8.09705C31.5271 2.99107 26.0888 0.060426 21.9345 0.060426V3.42916C25.0616 3.42916 29.6992 5.92172 34.6239 10.4688C32.509 12.6894 30.3941 15.2122 28.385 18.0069C24.9709 18.3694 21.7382 18.9284 18.7773 19.6686C18.4298 18.1579 18.173 16.6926 17.9918 15.2877C17.2818 9.51705 18.1579 5.03044 20.1973 3.83703C20.6505 3.56512 21.2396 3.44427 21.9345 3.44427V0.0755322C20.6656 0.0755322 19.5175 0.347448 18.5205 0.921492C14.2756 3.36873 13.3239 10.9975 15.5143 20.575C6.1181 23.4754 0 28.1131 0 33.0075C0 37.9171 6.14832 42.5699 15.5747 45.4552C13.3994 55.0629 14.3662 62.7068 18.6262 65.154C19.6081 65.7281 20.7562 66 22.0252 66C26.1794 66 31.6178 63.0391 37.1165 57.9029C42.6152 63.0089 48.0536 65.9396 52.2078 65.9396C53.4768 65.9396 54.6249 65.6677 55.6219 65.0936C59.8668 62.6464 60.8185 55.0176 58.6281 45.4401C67.994 42.5548 74.1121 37.902 74.1121 33.0075ZM54.4436 22.9316C53.8846 24.8803 53.1897 26.8894 52.4042 28.8986C51.7848 27.6901 51.1353 26.4816 50.4253 25.2731C49.7304 24.0645 48.9902 22.8862 48.2499 21.7382C50.3951 22.0554 52.4646 22.4482 54.4436 22.9316ZM47.5248 39.0199C46.3465 41.0593 45.138 42.9929 43.8842 44.7906C41.6333 44.9869 39.3523 45.0927 37.0561 45.0927C34.775 45.0927 32.4939 44.9869 30.2582 44.8057C29.0043 43.008 27.7807 41.0895 26.6024 39.0652C25.4543 37.0863 24.412 35.0771 23.4603 33.0529C24.3969 31.0286 25.4543 29.0043 26.5873 27.0254C27.7656 24.986 28.9741 23.0524 30.228 21.2547C32.4788 21.0584 34.7599 20.9526 37.0561 20.9526C39.3371 20.9526 41.6182 21.0584 43.854 21.2396C45.1078 23.0373 46.3314 24.9558 47.5097 26.9801C48.6578 28.959 49.7002 30.9682 50.6519 32.9924C49.7002 35.0167 48.6578 37.041 47.5248 39.0199ZM52.4042 37.0561C53.2199 39.0803 53.9149 41.1046 54.4889 43.0684C52.51 43.5518 50.4253 43.9597 48.265 44.277C49.0053 43.1138 49.7455 41.9203 50.4404 40.6967C51.1353 39.4882 51.7848 38.2646 52.4042 37.0561ZM37.0863 53.1746C35.6814 51.7244 34.2765 50.108 32.8867 48.3406C34.2463 48.401 35.6361 48.4463 37.041 48.4463C38.461 48.4463 39.8659 48.4161 41.2406 48.3406C39.881 50.108 38.4761 51.7244 37.0863 53.1746ZM25.8471 44.277C23.702 43.9597 21.6324 43.5669 19.6535 43.0835C20.2124 41.1348 20.9073 39.1257 21.6928 37.1165C22.3122 38.325 22.9618 39.5335 23.6718 40.742C24.3818 41.9506 25.1069 43.1289 25.8471 44.277ZM37.0108 12.8405C38.4157 14.2907 39.8205 15.9071 41.2103 17.6745C39.8508 17.6141 38.461 17.5688 37.0561 17.5688C35.6361 17.5688 34.2312 17.599 32.8565 17.6745C34.2161 15.9071 35.621 14.2907 37.0108 12.8405ZM25.832 21.7382C25.0918 22.9013 24.3516 24.0948 23.6567 25.3184C22.9618 26.5269 22.3122 27.7354 21.6928 28.9439C20.8771 26.9197 20.1822 24.8954 19.6081 22.9316C21.5871 22.4633 23.6718 22.0554 25.832 21.7382ZM12.1607 40.6514C6.813 38.3703 3.35363 35.3793 3.35363 33.0075C3.35363 30.6358 6.813 27.6297 12.1607 25.3637C13.4598 24.8048 14.8798 24.3062 16.3452 23.8379C17.2062 26.7988 18.3392 29.8805 19.7441 33.0378C18.3543 36.1799 17.2364 39.2465 16.3905 42.1923C14.8949 41.724 13.4749 41.2103 12.1607 40.6514ZM20.2879 62.2385C18.2335 61.0602 17.3422 56.5736 18.0371 50.8029C18.2033 49.3829 18.4752 47.8874 18.8075 46.3616C21.7684 47.0867 25.0011 47.6457 28.4001 48.0082C30.4395 50.8029 32.5544 53.3408 34.6844 55.5615C29.7597 60.1387 25.1371 62.6464 21.995 62.6464C21.3152 62.6313 20.7411 62.4953 20.2879 62.2385ZM56.1204 50.7274C56.8304 56.4981 55.9542 60.9847 53.9148 62.1781C53.4617 62.45 52.8725 62.5708 52.1776 62.5708C49.0506 62.5708 44.4129 60.0783 39.4882 55.5312C41.6031 53.3106 43.718 50.7878 45.7272 47.9931C49.1412 47.6306 52.374 47.0716 55.3349 46.3314C55.6823 47.8572 55.9542 49.3225 56.1204 50.7274ZM61.9364 40.6514C60.6372 41.2103 59.2172 41.7089 57.7519 42.1772C56.8908 39.2163 55.7578 36.1346 54.3529 32.9773C55.7427 29.8352 56.8606 26.7686 57.7066 23.8228C59.2021 24.2911 60.6221 24.8048 61.9515 25.3637C67.2991 27.6448 70.7585 30.6358 70.7585 33.0075C70.7434 35.3793 67.284 38.3854 61.9364 40.6514Z" fill="#61DAFB"/>
<path d="M37.041 39.9118C40.8538 39.9118 43.9447 36.8209 43.9447 33.0081C43.9447 29.1954 40.8538 26.1045 37.041 26.1045C33.2283 26.1045 30.1374 29.1954 30.1374 33.0081C30.1374 36.8209 33.2283 39.9118 37.041 39.9118Z" fill="#61DAFB"/>
</svg>
