<svg width="66" height="57" viewBox="0 0 66 57" fill="none" xmlns="http://www.w3.org/2000/svg">
<path d="M63.413 43.6179C59.891 45.4537 41.6456 52.9555 37.7612 54.9803C33.8769 57.0059 31.719 56.9861 28.6505 55.5192C25.5821 54.0523 6.16574 46.2095 2.66819 44.5378C0.92 43.7021 0.000900269 42.9971 0.000900269 42.331V35.6598C0.000900269 35.6598 25.2783 30.1569 29.3593 28.6931C33.44 27.2289 34.8557 27.1761 38.3284 28.4483C41.8015 29.7204 62.5664 33.467 65.9988 34.7241C65.9988 34.7241 65.9972 40.6821 65.9972 41.3005C65.9976 41.9601 65.2058 42.6836 63.413 43.6179Z" fill="#A41E11"/>
<path d="M63.4129 36.945C59.8909 38.7801 41.6455 46.2827 37.7611 48.3075C33.8768 50.3331 31.7189 50.3133 28.6504 48.8464C25.5816 47.3802 6.16567 39.5359 2.66812 37.8649C-0.829424 36.1931 -0.902753 35.0424 2.53311 33.6973C5.96858 32.3515 25.2782 24.7756 29.3596 23.3114C33.4403 21.848 34.856 21.7944 38.3287 23.067C41.8018 24.3391 59.9382 31.5581 63.3702 32.8151C66.803 34.0733 66.9349 35.1092 63.4129 36.945Z" fill="#D82C20"/>
<path d="M63.413 32.7398C59.891 34.5757 41.6456 42.0775 37.7612 44.103C33.8769 46.1279 31.719 46.1081 28.6505 44.6412C25.5817 43.175 6.16574 35.3314 2.66819 33.6597C0.92 32.824 0.000900269 32.1198 0.000900269 31.4537V24.7818C0.000900269 24.7818 25.2783 19.2792 29.3593 17.815C33.44 16.3512 34.8557 16.298 38.3284 17.5702C41.8015 18.8423 62.5664 22.5882 65.9988 23.8456C65.9988 23.8456 65.9972 29.8037 65.9972 30.4229C65.9976 31.082 65.2058 31.8056 63.413 32.7398Z" fill="#A41E11"/>
<path d="M63.4129 26.0662C59.8909 27.902 41.6455 35.4038 37.7611 37.4294C33.8768 39.4542 31.7189 39.4345 28.6504 37.9675C25.5816 36.5014 6.16567 28.6574 2.66812 26.9861C-0.829424 25.3147 -0.902753 24.164 2.53311 22.8181C5.96858 21.473 25.2782 13.8967 29.3596 12.4329C33.4403 10.9691 34.856 10.916 38.3287 12.1881C41.8018 13.4603 59.9382 20.6788 63.3702 21.9362C66.803 23.194 66.9349 24.2303 63.4129 26.0662Z" fill="#D82C20"/>
<path d="M63.413 21.4577C59.891 23.2936 41.6456 30.7957 37.7612 32.8213C33.8769 34.8461 31.719 34.8263 28.6505 33.3594C25.5817 31.8933 6.16574 24.0493 2.66819 22.3779C0.92 21.5422 0.000900269 20.8377 0.000900269 20.1719V13.5C0.000900269 13.5 25.2783 7.99746 29.3593 6.53365C33.44 5.06945 34.8557 5.01669 38.3284 6.28884C41.8015 7.56099 62.5664 11.3068 65.9988 12.5643C65.9988 12.5643 65.9972 18.5223 65.9972 19.1411C65.9976 19.7999 65.2058 20.5234 63.413 21.4577Z" fill="#A41E11"/>
<path d="M63.4129 14.7844C59.8909 16.6202 41.6455 24.1224 37.7611 26.1476C33.8768 28.1724 31.7189 28.1526 28.6504 26.6861C25.582 25.2196 6.16567 17.376 2.66812 15.7046C-0.829424 14.0333 -0.902753 12.8822 2.53311 11.5367C5.96858 10.1912 25.2782 2.61571 29.3596 1.15151C33.4403 -0.312685 34.856 -0.365445 38.3287 0.907095C41.8018 2.17925 59.9382 9.39781 63.3702 10.6552C66.803 11.9122 66.9349 12.9489 63.4129 14.7844Z" fill="#D82C20"/>
<path d="M41.6478 8.35976L35.9291 8.95335L34.6488 12.0338L32.581 8.59642L25.9778 8.00283L30.9049 6.22594L29.4268 3.49854L34.0397 5.30258L38.3888 3.87874L37.2133 6.69926L41.6478 8.35976Z" fill="white"/>
<path d="M34.3074 23.3044L23.6344 18.8777L38.9281 16.5305L34.3074 23.3044Z" fill="white"/>
<path d="M19.5102 16.4088C24.0246 16.4088 27.6843 14.9902 27.6843 13.2403C27.6843 11.4904 24.0246 10.0718 19.5102 10.0718C14.9958 10.0718 11.3361 11.4904 11.3361 13.2403C11.3361 14.9902 14.9958 16.4088 19.5102 16.4088Z" fill="white"/>
<path d="M48.4062 9.20142L57.4575 12.7785L48.4139 16.3517L48.4062 9.20142Z" fill="#7A0C00"/>
<path d="M38.3928 13.1626L48.4062 9.20142L48.4139 16.3517L47.4324 16.7357L38.3928 13.1626Z" fill="#AD2115"/>
</svg>
