<svg width="66" height="66" viewBox="0 0 66 66" fill="none" xmlns="http://www.w3.org/2000/svg">
<path d="M65.9953 18.2806C65.9914 17.6168 65.9841 16.9534 65.9657 16.2888C65.927 14.8433 65.8416 13.3846 65.5847 11.9545C65.324 10.5022 64.8978 9.15179 64.2261 7.83248C63.5668 6.53685 62.7049 5.35123 61.6768 4.32308C60.6488 3.29493 59.4632 2.43313 58.167 1.77348C56.8488 1.10261 55.4982 0.676544 54.0472 0.415839C52.6163 0.158134 51.1577 0.073233 49.711 0.0341161C49.0468 0.0161135 48.3833 0.00855681 47.7193 0.0044451C46.9312 -5.17477e-10 46.1425 0 45.3546 0H20.6454C19.8567 0 19.069 0 18.2811 0.00455622C17.6168 0.00866794 16.9525 0.0162246 16.2893 0.0342272C15.9277 0.0440065 15.5653 0.056675 15.2027 0.074122C14.115 0.126574 13.0256 0.222699 11.953 0.41595C10.8647 0.611534 9.83282 0.900021 8.82889 1.31508C8.49429 1.45332 8.16268 1.60579 7.83308 1.77348C6.86094 2.26822 5.9508 2.87664 5.12302 3.58364C4.84709 3.81934 4.58027 4.06593 4.32334 4.32297C3.29497 5.35112 2.43307 6.53674 1.77375 7.83237C1.10209 9.15168 0.676475 10.5021 0.415548 11.9544C0.158843 13.3845 0.0734976 14.8432 0.034603 16.2887C0.0163781 16.9533 0.00871029 17.6167 0.00437632 18.2805C-0.000624412 19.0688 4.23519e-05 19.8572 4.23519e-05 20.6454V45.3534C4.23519e-05 46.1423 -0.00073554 46.93 0.00437632 47.7189C0.00871029 48.3827 0.0163781 49.0461 0.034603 49.7095C0.0734976 51.1558 0.158732 52.6148 0.415548 54.0443C0.676475 55.4961 1.10209 56.8478 1.77375 58.1668C2.43307 59.4627 3.29497 60.648 4.32334 61.6757C5.35094 62.7043 6.53689 63.566 7.83319 64.2261C9.1515 64.8971 10.502 65.3226 11.9534 65.5833C13.3833 65.8407 14.8431 65.9262 16.2894 65.9649C16.9526 65.9826 17.617 65.9905 18.2812 65.9942C19.0691 65.9999 19.8568 65.9991 20.6455 65.9991H45.3547C46.1426 65.9991 46.9313 65.9999 47.7193 65.9942C48.3833 65.9905 49.0468 65.9826 49.711 65.9649C51.1577 65.9262 52.6163 65.8405 54.0472 65.5833C55.4982 65.3226 56.8488 64.897 58.167 64.2261C59.4632 63.5661 60.6488 62.7043 61.6768 61.6757C62.7049 60.6479 63.5669 59.4627 64.2261 58.1668C64.8978 56.8478 65.324 55.4963 65.5847 54.0443C65.8416 52.6148 65.927 51.1558 65.9657 49.7095C65.9839 49.0461 65.9913 48.3828 65.9953 47.7189C66.0004 46.93 65.9999 46.1423 65.9999 45.3534V20.6454C66.0001 19.8572 66.0004 19.0688 65.9954 18.2806H65.9953Z" fill="#F05138"/>
<path d="M52.2977 40.74C52.2961 40.738 52.2947 40.7366 52.293 40.7347C52.366 40.4862 52.4414 40.2393 52.5053 39.9846C55.2446 29.0708 48.559 16.1677 37.2453 9.37451C42.203 16.0954 44.3951 24.2356 42.4475 31.3555C42.2738 31.9905 42.065 32.5999 41.8342 33.1922C41.5837 33.0276 41.2681 32.8408 40.8442 32.6071C40.8442 32.6071 29.5904 25.6587 17.393 13.3688C17.073 13.0462 23.8971 23.1224 31.6418 31.3047C27.993 29.257 17.8242 21.8585 11.3866 15.9669C12.1775 17.2859 13.1182 18.556 14.1522 19.7787C19.528 26.5963 26.5385 35.0076 34.9375 41.4674C29.0362 45.0789 20.6976 45.3597 12.3953 41.4712C10.3418 40.5089 8.41126 39.3477 6.62422 38.0284C10.1386 43.6498 15.5513 48.4998 22.1387 51.3314C29.9949 54.7076 37.8077 54.4787 43.6263 51.3868L43.6218 51.3935C43.6483 51.3767 43.6821 51.3583 43.7097 51.3413C43.9486 51.2129 44.1857 51.0821 44.4177 50.9439C47.2133 49.4928 52.7352 48.0206 55.6993 53.7875C56.4252 55.1988 57.9676 47.7195 52.2969 40.7422L52.2977 40.74Z" fill="white"/>
</svg>
